NotoSerifTamil-SemiCondensedThin.ufo
<glyph name="exclam" format="2">
  <advance width="250.83333333333334"/>
  <unicode hex="0021"/>
  <outline>
    <contour>
      <point x="116.10000000000001" y="167.0" type="line"/>
      <point x="136.1" y="167.0" type="line"/>
      <point x="139.10000000000002" y="714.0" type="line"/>
      <point x="111.1" y="714.0" type="line"/>
    </contour>
    <contour>
      <point x="124.46666666666667" y="-5.0" type="curve" smooth="yes"/>
      <point x="139.73333333333335" y="-5.0"/>
      <point x="153.1" y="4.366666666666666"/>
      <point x="153.1" y="34.63333333333333" type="curve" smooth="yes"/>
      <point x="153.1" y="64.63333333333334"/>
      <point x="139.73333333333335" y="73.36666666666666"/>
      <point x="124.46666666666667" y="73.36666666666666" type="curve" smooth="yes"/>
      <point x="108.73333333333333" y="73.36666666666666"/>
      <point x="95.1" y="64.63333333333334"/>
      <point x="95.1" y="34.63333333333333" type="curve" smooth="yes"/>
      <point x="95.1" y="4.366666666666666"/>
      <point x="108.73333333333333" y="-5.0"/>
    </contour>
  </outline>
</glyph>
<glyph name="quotedbl" format="2">
  <advance width="264.7666666666667"/>
  <unicode hex="0022"/>
  <outline>
    <contour>
      <point x="191.06666666666666" y="527.5333333333334" type="line"/>
      <point x="210.7" y="527.5333333333334" type="line"/>
      <point x="221.43333333333334" y="714.0" type="line"/>
      <point x="179.0666666666667" y="714.0" type="line"/>
    </contour>
    <contour>
      <point x="53.7" y="527.5333333333334" type="line"/>
      <point x="73.33333333333334" y="527.5333333333334" type="line"/>
      <point x="84.06666666666666" y="714.0" type="line"/>
      <point x="41.7" y="714.0" type="line"/>
    </contour>
  </outline>
</glyph>
<glyph name="numbersign" format="2">
  <advance width="509.8666666666667"/>
  <unicode hex="0023"/>
  <outline>
    <contour>
      <point x="73.56666666666668" y="0.0" type="line"/>
      <point x="101.56666666666666" y="0.0" type="line"/>
      <point x="142.56666666666666" y="219.0" type="line"/>
      <point x="308.8333333333333" y="219.0" type="line"/>
      <point x="267.8333333333333" y="0.0" type="line"/>
      <point x="295.83333333333337" y="0.0" type="line"/>
      <point x="336.83333333333337" y="219.0" type="line"/>
      <point x="460.56666666666666" y="219.0" type="line"/>
      <point x="460.56666666666666" y="244.0" type="line"/>
      <point x="341.83333333333337" y="244.0" type="line"/>
      <point x="384.83333333333337" y="476.0" type="line"/>
      <point x="492.56666666666666" y="476.0" type="line"/>
      <point x="492.56666666666666" y="501.0" type="line"/>
      <point x="389.83333333333337" y="501.0" type="line"/>
      <point x="429.83333333333337" y="714.0" type="line"/>
      <point x="401.8333333333333" y="714.0" type="line"/>
      <point x="361.8333333333333" y="501.0" type="line"/>
      <point x="195.56666666666666" y="501.0" type="line"/>
      <point x="235.56666666666666" y="714.0" type="line"/>
      <point x="207.56666666666666" y="714.0" type="line"/>
      <point x="167.5666666666667" y="501.0" type="line"/>
      <point x="48.199999999999996" y="501.0" type="line"/>
      <point x="48.199999999999996" y="476.0" type="line"/>
      <point x="162.5666666666667" y="476.0" type="line"/>
      <point x="119.56666666666668" y="244.0" type="line"/>
      <point x="16.2" y="244.0" type="line"/>
      <point x="16.2" y="219.0" type="line"/>
      <point x="114.56666666666666" y="219.0" type="line"/>
    </contour>
    <contour>
      <point x="147.56666666666666" y="244.0" type="line"/>
      <point x="190.56666666666666" y="476.0" type="line"/>
      <point x="356.8333333333333" y="476.0" type="line"/>
      <point x="313.8333333333333" y="244.0" type="line"/>
    </contour>
  </outline>
</glyph>
<glyph name="percent" format="2">
  <advance width="806.2666666666667"/>
  <unicode hex="0025"/>
  <outline>
    <contour>
      <point x="208.83333333333334" y="0.0" type="line"/>
      <point x="240.1" y="0.0" type="line"/>
      <point x="593.4333333333333" y="714.0" type="line"/>
      <point x="562.1666666666666" y="714.0" type="line"/>
    </contour>
    <contour>
      <point x="185.4" y="280.0" type="curve" smooth="yes"/>
      <point x="280.5" y="280.0"/>
      <point x="318.40000000000003" y="366.6"/>
      <point x="318.40000000000003" y="503.0" type="curve"/>
      <point x="318.40000000000003" y="642.6666666666666"/>
      <point x="276.43333333333334" y="724.0"/>
      <point x="186.4" y="724.0" type="curve" smooth="yes"/>
      <point x="93.2" y="724.0"/>
      <point x="53.13333333333333" y="640.6666666666666"/>
      <point x="53.13333333333333" y="503.0" type="curve" smooth="yes"/>
      <point x="53.13333333333333" y="360.96666666666664"/>
      <point x="92.93333333333334" y="280.0"/>
    </contour>
    <contour>
      <point x="184.13333333333335" y="305.0" type="curve" smooth="yes"/>
      <point x="110.63333333333334" y="305.0"/>
      <point x="81.13333333333334" y="376.0"/>
      <point x="81.13333333333334" y="503.0" type="curve"/>
      <point x="81.13333333333334" y="618.2333333333333"/>
      <point x="107.46666666666667" y="699.0"/>
      <point x="184.76666666666668" y="699.0" type="curve" smooth="yes"/>
      <point x="260.0" y="699.0"/>
      <point x="290.4" y="630.9000000000001"/>
      <point x="290.4" y="503.0" type="curve" smooth="yes"/>
      <point x="290.4" y="384.23333333333335"/>
      <point x="264.43333333333334" y="305.0"/>
    </contour>
    <contour>
      <point x="620.5" y="-10.0" type="curve" smooth="yes"/>
      <point x="715.6" y="-10.0"/>
      <point x="753.5" y="76.6"/>
      <point x="753.5" y="213.0" type="curve" smooth="yes"/>
      <point x="753.5" y="352.6666666666667"/>
      <point x="711.5333333333333" y="434.0"/>
      <point x="621.5" y="434.0" type="curve" smooth="yes"/>
      <point x="528.3" y="434.0"/>
      <point x="488.23333333333335" y="350.6666666666667"/>
      <point x="488.23333333333335" y="213.0" type="curve" smooth="yes"/>
      <point x="488.23333333333335" y="70.96666666666667"/>
      <point x="528.0333333333333" y="-10.0"/>
    </contour>
    <contour>
      <point x="619.2333333333333" y="15.0" type="curve" smooth="yes"/>
      <point x="545.7333333333333" y="15.0"/>
      <point x="516.2333333333333" y="86.0"/>
      <point x="516.2333333333333" y="213.0" type="curve" smooth="yes"/>
      <point x="516.2333333333333" y="328.2333333333333"/>
      <point x="542.5666666666666" y="409.0"/>
      <point x="619.8666666666667" y="409.0" type="curve" smooth="yes"/>
      <point x="695.1" y="409.0"/>
      <point x="725.5" y="340.9"/>
      <point x="725.5" y="213.0" type="curve" smooth="yes"/>
      <point x="725.5" y="94.23333333333333"/>
      <point x="699.5333333333333" y="15.0"/>
    </contour>
  </outline>
</glyph>
<glyph name="quotesingle" format="2">
  <advance width="125.76666666666667"/>
  <unicode hex="0027"/>
  <outline>
    <contour>
      <point x="53.7" y="527.5333333333334" type="line"/>
      <point x="73.33333333333334" y="527.5333333333334" type="line"/>
      <point x="84.06666666666666" y="714.0" type="line"/>
      <point x="41.7" y="714.0" type="line"/>
    </contour>
  </outline>
</glyph>
<glyph name="parenleft" format="2">
  <advance width="257.1"/>
  <unicode hex="0028"/>
  <outline>
    <contour>
      <point x="228.03333333333333" y="-114.36666666666667" type="curve"/>
      <point x="228.03333333333333" y="-88.89999999999999" type="line"/>
      <point x="107.73333333333332" y="-32.733333333333334"/>
      <point x="79.86666666666666" y="134.0"/>
      <point x="79.86666666666666" y="315.0" type="curve" smooth="yes"/>
      <point x="79.86666666666666" y="496.0"/>
      <point x="105.83333333333333" y="667.8"/>
      <point x="228.03333333333333" y="718.2666666666667" type="curve"/>
      <point x="228.03333333333333" y="744.3666666666667" type="line"/>
      <point x="110.16666666666667" y="696.3"/>
      <point x="51.86666666666667" y="578.9333333333334"/>
      <point x="51.86666666666667" y="315.0" type="curve" smooth="yes"/>
      <point x="51.86666666666667" y="50.599999999999994"/>
      <point x="110.16666666666667" y="-65.03333333333333"/>
    </contour>
  </outline>
</glyph>
<glyph name="parenright" format="2">
  <advance width="257.1"/>
  <unicode hex="0029"/>
  <outline>
    <contour>
      <point x="44.53333333333334" y="-114.36666666666667" type="line"/>
      <point x="162.4" y="-65.03333333333333"/>
      <point x="220.7" y="50.599999999999994"/>
      <point x="220.7" y="315.0" type="curve" smooth="yes"/>
      <point x="220.7" y="578.9333333333334"/>
      <point x="162.4" y="696.3"/>
      <point x="44.53333333333334" y="744.3666666666667" type="curve"/>
      <point x="44.53333333333334" y="718.2666666666667" type="line"/>
      <point x="166.73333333333332" y="667.8"/>
      <point x="192.7" y="496.0"/>
      <point x="192.7" y="315.0" type="curve" smooth="yes"/>
      <point x="192.7" y="134.0"/>
      <point x="164.83333333333334" y="-32.733333333333334"/>
      <point x="44.53333333333334" y="-88.89999999999999" type="curve"/>
    </contour>
  </outline>
</glyph>
<glyph name="asterisk" format="2">
  <advance width="391.7666666666667"/>
  <unicode hex="002A"/>
  <outline>
    <contour>
      <point x="172.43333333333334" y="379.4666666666667" type="line"/>
      <point x="216.33333333333334" y="379.4666666666667" type="line"/>
      <point x="202.70000000000002" y="552.5333333333334" type="line"/>
      <point x="328.1666666666667" y="467.9" type="line"/>
      <point x="344.79999999999995" y="507.4666666666667" type="line"/>
      <point x="201.53333333333336" y="569.7333333333333" type="line"/>
      <point x="344.79999999999995" y="632.3666666666667" type="line"/>
      <point x="328.1666666666667" y="674.1999999999999" type="line"/>
      <point x="202.70000000000002" y="586.9333333333334" type="line"/>
      <point x="215.06666666666666" y="760.0" type="line"/>
      <point x="172.43333333333334" y="760.0" type="line"/>
      <point x="185.7" y="587.9333333333334" type="line"/>
      <point x="60.86666666666667" y="676.1999999999999" type="line"/>
      <point x="42.6" y="633.3666666666667" type="line"/>
      <point x="185.23333333333335" y="569.7333333333333" type="line"/>
      <point x="42.6" y="506.4666666666667" type="line"/>
      <point x="60.86666666666667" y="465.9" type="line"/>
      <point x="184.7" y="552.1666666666667" type="line"/>
    </contour>
  </outline>
</glyph>
<glyph name="plus" format="2">
  <advance width="509.8666666666667"/>
  <unicode hex="002B"/>
  <outline>
    <contour>
      <point x="240.43333333333334" y="143.0" type="line"/>
      <point x="269.1666666666667" y="143.0" type="line"/>
      <point x="269.1666666666667" y="343.3666666666667" type="line"/>
      <point x="450.3666666666667" y="343.3666666666667" type="line"/>
      <point x="450.3666666666667" y="371.3666666666667" type="line"/>
      <point x="269.1666666666667" y="371.3666666666667" type="line"/>
      <point x="269.1666666666667" y="572.0" type="line"/>
      <point x="240.43333333333334" y="572.0" type="line"/>
      <point x="240.43333333333334" y="371.3666666666667" type="line"/>
      <point x="59.5" y="371.3666666666667" type="line"/>
      <point x="59.5" y="343.3666666666667" type="line"/>
      <point x="240.43333333333334" y="343.3666666666667" type="line"/>
    </contour>
  </outline>
</glyph>
<glyph name="comma" format="2">
  <advance width="180.43333333333334"/>
  <unicode hex="002C"/>
  <outline>
    <contour>
      <point x="26.333333333333336" y="-154.0" type="line"/>
      <point x="103.66666666666666" y="-125.89999999999999"/>
      <point x="133.2" y="-63.699999999999996"/>
      <point x="133.2" y="0.0" type="curve" smooth="yes"/>
      <point x="133.2" y="53.46666666666667"/>
      <point x="109.2" y="73.0"/>
      <point x="84.03333333333333" y="73.0" type="curve" smooth="yes"/>
      <point x="65.76666666666667" y="73.0"/>
      <point x="55.93333333333333" y="60.733333333333334"/>
      <point x="55.93333333333333" y="43.83333333333333" type="curve" smooth="yes"/>
      <point x="55.93333333333333" y="16.633333333333333"/>
      <point x="101.83333333333333" y="6.566666666666666"/>
      <point x="101.83333333333333" y="-28.53333333333333" type="curve" smooth="yes"/>
      <point x="101.83333333333333" y="-61.0"/>
      <point x="80.93333333333334" y="-113.16666666666667"/>
      <point x="26.333333333333336" y="-130.53333333333333" type="curve"/>
    </contour>
  </outline>
</glyph>
<glyph name="hyphen" format="2">
  <advance width="282.8666666666667"/>
  <unicode hex="002D"/>
  <outline>
    <contour>
      <point x="23.166666666666668" y="259.0" type="line"/>
      <point x="259.7" y="259.0" type="line"/>
      <point x="259.7" y="287.0" type="line"/>
      <point x="23.166666666666668" y="287.0" type="line"/>
    </contour>
  </outline>
</glyph>
<glyph name="period" format="2">
  <advance width="180.43333333333334"/>
  <unicode hex="002E"/>
  <outline>
    <contour>
      <point x="90.76666666666667" y="-5.366666666666666" type="curve" smooth="yes"/>
      <point x="106.03333333333333" y="-5.366666666666666"/>
      <point x="119.03333333333333" y="4.0"/>
      <point x="119.03333333333333" y="34.266666666666666" type="curve" smooth="yes"/>
      <point x="119.03333333333333" y="64.26666666666667"/>
      <point x="106.03333333333333" y="73.0"/>
      <point x="90.76666666666667" y="73.0" type="curve" smooth="yes"/>
      <point x="75.03333333333333" y="73.0"/>
      <point x="61.4" y="64.26666666666667"/>
      <point x="61.4" y="34.266666666666666" type="curve" smooth="yes"/>
      <point x="61.4" y="4.0"/>
      <point x="75.03333333333333" y="-5.366666666666666"/>
    </contour>
  </outline>
</glyph>
<glyph name="slash" format="2">
  <advance width="262.7"/>
  <unicode hex="002F"/>
  <outline>
    <contour>
      <point x="0.0" y="-121.0" type="line"/>
      <point x="29.0" y="-121.0" type="line"/>
      <point x="262.7" y="760.0" type="line"/>
      <point x="233.7" y="760.0" type="line"/>
    </contour>
  </outline>
</glyph>
<glyph name="zero" format="2">
  <advance width="509.8666666666667"/>
  <unicode hex="0030"/>
  <outline>
    <contour>
      <point x="255.06666666666666" y="-10.0" type="curve" smooth="yes"/>
      <point x="390.4" y="-10.0"/>
      <point x="456.3666666666667" y="108.69999999999999"/>
      <point x="456.3666666666667" y="358.0" type="curve" smooth="yes"/>
      <point x="456.3666666666667" y="605.8"/>
      <point x="396.4" y="724.0"/>
      <point x="256.06666666666666" y="724.0" type="curve" smooth="yes"/>
      <point x="110.53333333333333" y="724.0"/>
      <point x="53.13333333333333" y="599.5999999999999"/>
      <point x="53.13333333333333" y="359.0" type="curve" smooth="yes"/>
      <point x="53.13333333333333" y="106.93333333333334"/>
      <point x="114.0" y="-10.0"/>
    </contour>
    <contour>
      <point x="254.43333333333334" y="15.0" type="curve" smooth="yes"/>
      <point x="132.9" y="15.0"/>
      <point x="81.13333333333333" y="128.33333333333334"/>
      <point x="81.13333333333333" y="358.0" type="curve" smooth="yes"/>
      <point x="81.13333333333333" y="576.9"/>
      <point x="126.56666666666666" y="699.0"/>
      <point x="255.43333333333334" y="699.0" type="curve" smooth="yes"/>
      <point x="383.56666666666666" y="699.0"/>
      <point x="428.3666666666667" y="581.3333333333334"/>
      <point x="428.3666666666667" y="358.0" type="curve" smooth="yes"/>
      <point x="428.3666666666667" y="133.4"/>
      <point x="376.6" y="15.0"/>
    </contour>
  </outline>
</glyph>
<glyph name="one" format="2">
  <advance width="509.8666666666667"/>
  <unicode hex="0031"/>
  <outline>
    <contour>
      <point x="118.23333333333333" y="0.0" type="line"/>
      <point x="383.1" y="0.0" type="line"/>
      <point x="383.1" y="20.0" type="line"/>
      <point x="322.90000000000003" y="20.0" type="line" smooth="yes"/>
      <point x="273.6333333333333" y="20.0"/>
      <point x="266.90000000000003" y="30.633333333333333"/>
      <point x="266.90000000000003" y="106.9" type="curve" smooth="yes"/>
      <point x="266.90000000000003" y="718.0" type="line"/>
      <point x="247.63333333333335" y="718.0" type="line"/>
      <point x="214.70000000000002" y="672.6" type="line" smooth="yes"/>
      <point x="165.83333333333334" y="610.2666666666667"/>
      <point x="130.93333333333334" y="598.9"/>
      <point x="85.73333333333333" y="588.2666666666667" type="curve"/>
      <point x="85.73333333333333" y="577.6333333333333"/>
      <point x="96.2" y="571.0"/>
      <point x="115.8" y="571.0" type="curve" smooth="yes"/>
      <point x="154.70000000000002" y="571.0"/>
      <point x="196.66666666666669" y="609.5666666666667"/>
      <point x="238.9" y="667.9" type="curve"/>
      <point x="238.9" y="106.9" type="line" smooth="yes"/>
      <point x="238.9" y="30.633333333333333"/>
      <point x="232.16666666666666" y="20.0"/>
      <point x="182.9" y="20.0" type="curve" smooth="yes"/>
      <point x="118.23333333333333" y="20.0" type="line"/>
    </contour>
  </outline>
</glyph>
<glyph name="two" format="2">
  <advance width="509.8666666666667"/>
  <unicode hex="0032"/>
  <outline>
    <contour>
      <point x="62.56666666666668" y="0.0" type="line"/>
      <point x="437.53333333333336" y="0.0" type="line"/>
      <point x="441.43333333333334" y="128.46666666666667" type="line"/>
      <point x="421.43333333333334" y="128.46666666666667" type="line"/>
      <point x="419.79999999999995" y="95.36666666666666" type="line" smooth="yes"/>
      <point x="417.53333333333336" y="41.2"/>
      <point x="411.5333333333333" y="26.099999999999998"/>
      <point x="359.1666666666667" y="26.099999999999998" type="curve" smooth="yes"/>
      <point x="99.10000000000001" y="26.099999999999998" type="line"/>
      <point x="311.3" y="287.7" type="line" smooth="yes"/>
      <point x="378.7333333333333" y="373.1333333333333"/>
      <point x="422.26666666666665" y="439.3666666666667"/>
      <point x="422.26666666666665" y="547.2333333333333" type="curve" smooth="yes"/>
      <point x="422.26666666666665" y="641.6999999999999"/>
      <point x="371.3" y="724.0"/>
      <point x="251.0666666666667" y="724.0" type="curve" smooth="yes"/>
      <point x="139.33333333333334" y="724.0"/>
      <point x="89.56666666666666" y="653.1666666666666"/>
      <point x="89.56666666666666" y="605.1666666666667" type="curve" smooth="yes"/>
      <point x="89.56666666666666" y="579.7"/>
      <point x="96.93333333333334" y="566.8000000000001"/>
      <point x="110.56666666666666" y="566.8000000000001" type="curve"/>
      <point x="110.56666666666666" y="648.5"/>
      <point x="159.66666666666666" y="699.0"/>
      <point x="251.0666666666667" y="699.0" type="curve" smooth="yes"/>
      <point x="359.5" y="699.0"/>
      <point x="394.2666666666667" y="618.9666666666667"/>
      <point x="394.2666666666667" y="544.1333333333333" type="curve" smooth="yes"/>
      <point x="394.2666666666667" y="447.4666666666667"/>
      <point x="354.2" y="387.23333333333335"/>
      <point x="270.70000000000005" y="280.90000000000003" type="curve" smooth="yes"/>
      <point x="62.56666666666668" y="22.0" type="line"/>
    </contour>
  </outline>
</glyph>
<glyph name="three" format="2">
  <advance width="509.8666666666667"/>
  <unicode hex="0033"/>
  <outline>
    <contour>
      <point x="246.33333333333334" y="-9.0" type="curve" smooth="yes"/>
      <point x="344.1333333333333" y="-9.0"/>
      <point x="442.46666666666664" y="48.06666666666667"/>
      <point x="442.46666666666664" y="191.26666666666665" type="curve" smooth="yes"/>
      <point x="442.46666666666664" y="323.40000000000003"/>
      <point x="372.0" y="370.1"/>
      <point x="301.66666666666663" y="376.6333333333333" type="curve"/>
      <point x="365.59999999999997" y="391.90000000000003"/>
      <point x="419.6666666666667" y="459.6"/>
      <point x="419.6666666666667" y="557.1999999999999" type="curve" smooth="yes"/>
      <point x="419.6666666666667" y="664.3666666666667"/>
      <point x="362.43333333333334" y="724.0"/>
      <point x="258.2666666666667" y="724.0" type="curve" smooth="yes"/>
      <point x="155.73333333333335" y="724.0"/>
      <point x="101.2" y="661.6666666666666"/>
      <point x="101.2" y="599.9666666666667" type="curve" smooth="yes"/>
      <point x="101.2" y="575.6666666666666"/>
      <point x="109.66666666666666" y="563.1333333333334"/>
      <point x="122.2" y="563.1333333333334" type="curve"/>
      <point x="122.2" y="647.2333333333333"/>
      <point x="165.4" y="699.0"/>
      <point x="260.1666666666667" y="699.0" type="curve" smooth="yes"/>
      <point x="346.2666666666667" y="699.0"/>
      <point x="391.6666666666667" y="647.7333333333333"/>
      <point x="391.6666666666667" y="556.2" type="curve" smooth="yes"/>
      <point x="391.6666666666667" y="449.09999999999997"/>
      <point x="326.8666666666667" y="387.0"/>
      <point x="237.03333333333333" y="387.0" type="curve"/>
      <point x="212.7" y="387.0" type="line"/>
      <point x="212.7" y="362.0" type="line"/>
      <point x="241.5666666666667" y="362.0" type="line" smooth="yes"/>
      <point x="366.1" y="362.0"/>
      <point x="414.4666666666667" y="300.73333333333335"/>
      <point x="414.4666666666667" y="189.73333333333332" type="curve" smooth="yes"/>
      <point x="414.4666666666667" y="73.8"/>
      <point x="336.06666666666666" y="16.0"/>
      <point x="247.33333333333334" y="16.0" type="curve" smooth="yes"/>
      <point x="142.60000000000002" y="16.0"/>
      <point x="101.83333333333334" y="67.19999999999999"/>
      <point x="101.83333333333334" y="136.0" type="curve"/>
      <point x="89.36666666666667" y="136.0"/>
      <point x="80.83333333333334" y="124.7"/>
      <point x="80.83333333333334" y="100.53333333333333" type="curve" smooth="yes"/>
      <point x="80.83333333333334" y="45.8"/>
      <point x="133.16666666666669" y="-9.0"/>
    </contour>
  </outline>
</glyph>
<glyph name="four" format="2">
  <advance width="509.8666666666667"/>
  <unicode hex="0034"/>
  <outline>
    <contour>
      <point x="239.86666666666665" y="0.0" type="line"/>
      <point x="455.1" y="0.0" type="line"/>
      <point x="455.1" y="20.0" type="line"/>
      <point x="426.2666666666667" y="20.0" type="line" smooth="yes"/>
      <point x="374.79999999999995" y="20.0"/>
      <point x="368.43333333333334" y="30.266666666666666"/>
      <point x="368.43333333333334" y="105.43333333333334" type="curve" smooth="yes"/>
      <point x="368.43333333333334" y="208.0" type="line"/>
      <point x="497.33333333333337" y="208.0" type="line"/>
      <point x="497.33333333333337" y="233.0" type="line"/>
      <point x="368.43333333333334" y="233.0" type="line"/>
      <point x="368.43333333333334" y="714.0" type="line"/>
      <point x="339.43333333333334" y="714.0" type="line"/>
      <point x="20.8" y="225.36666666666665" type="line"/>
      <point x="20.8" y="208.0" type="line"/>
      <point x="340.43333333333334" y="208.0" type="line"/>
      <point x="340.43333333333334" y="105.43333333333334" type="line" smooth="yes"/>
      <point x="340.43333333333334" y="30.266666666666666"/>
      <point x="333.70000000000005" y="20.0"/>
      <point x="282.6" y="20.0" type="curve" smooth="yes"/>
      <point x="239.86666666666665" y="20.0" type="line"/>
    </contour>
    <contour>
      <point x="55.33333333333333" y="233.0" type="line"/>
      <point x="237.9" y="511.6333333333334" type="line" smooth="yes"/>
      <point x="268.76666666666665" y="558.7"/>
      <point x="331.26666666666665" y="657.4333333333333"/>
      <point x="342.43333333333334" y="679.7" type="curve"/>
      <point x="341.06666666666666" y="616.9666666666667"/>
      <point x="340.43333333333334" y="505.5333333333333"/>
      <point x="340.43333333333334" y="447.5333333333333" type="curve" smooth="yes"/>
      <point x="340.43333333333334" y="233.0" type="line"/>
    </contour>
  </outline>
</glyph>
<glyph name="five" format="2">
  <advance width="509.8666666666667"/>
  <unicode hex="0035"/>
  <outline>
    <contour>
      <point x="226.26666666666668" y="-10.0" type="curve" smooth="yes"/>
      <point x="352.3333333333333" y="-10.0"/>
      <point x="420.4" y="79.63333333333333"/>
      <point x="420.4" y="216.0" type="curve" smooth="yes"/>
      <point x="420.4" y="353.3666666666667"/>
      <point x="338.93333333333334" y="423.0"/>
      <point x="234.0" y="423.0" type="curve" smooth="yes"/>
      <point x="189.73333333333332" y="423.0"/>
      <point x="153.23333333333332" y="411.26666666666665"/>
      <point x="125.53333333333335" y="392.2" type="curve"/>
      <point x="150.6" y="684.0" type="line"/>
      <point x="318.8" y="684.0" type="line" smooth="yes"/>
      <point x="369.76666666666665" y="684.0"/>
      <point x="377.4" y="680.5333333333334"/>
      <point x="379.40000000000003" y="627.9" type="curve" smooth="yes"/>
      <point x="380.4" y="601.0" type="line"/>
      <point x="400.40000000000003" y="601.0" type="line"/>
      <point x="397.40000000000003" y="712.0" type="line"/>
      <point x="127.6" y="712.0" type="line"/>
      <point x="96.9" y="354.2666666666667" type="line"/>
      <point x="109.9" y="350.26666666666665" type="line"/>
      <point x="137.4666666666667" y="380.1333333333333"/>
      <point x="185.86666666666667" y="398.0"/>
      <point x="235.96666666666667" y="398.0" type="curve" smooth="yes"/>
      <point x="326.93333333333334" y="398.0"/>
      <point x="392.4" y="333.1"/>
      <point x="392.4" y="216.0" type="curve" smooth="yes"/>
      <point x="392.4" y="90.56666666666666"/>
      <point x="332.43333333333334" y="15.0"/>
      <point x="230.06666666666666" y="15.0" type="curve" smooth="yes"/>
      <point x="146.89999999999998" y="15.0"/>
      <point x="90.73333333333333" y="53.06666666666667"/>
      <point x="90.73333333333333" y="126.0" type="curve"/>
      <point x="78.63333333333334" y="126.0"/>
      <point x="69.73333333333333" y="117.53333333333333"/>
      <point x="69.73333333333333" y="91.16666666666666" type="curve" smooth="yes"/>
      <point x="69.73333333333333" y="45.6"/>
      <point x="123.46666666666668" y="-10.0"/>
    </contour>
  </outline>
</glyph>
<glyph name="six" format="2">
  <advance width="509.8666666666667"/>
  <unicode hex="0036"/>
  <outline>
    <contour>
      <point x="266.96666666666664" y="-10.0" type="curve" smooth="yes"/>
      <point x="378.8" y="-10.0"/>
      <point x="445.83333333333337" y="67.23333333333333"/>
      <point x="445.83333333333337" y="218.53333333333333" type="curve" smooth="yes"/>
      <point x="445.83333333333337" y="354.6333333333333"/>
      <point x="377.1" y="427.73333333333335"/>
      <point x="270.33333333333337" y="427.73333333333335" type="curve" smooth="yes"/>
      <point x="193.9" y="427.73333333333335"/>
      <point x="136.13333333333333" y="389.33333333333337"/>
      <point x="100.56666666666666" y="355.9" type="curve"/>
      <point x="100.56666666666666" y="600.4"/>
      <point x="175.63333333333335" y="699.0"/>
      <point x="286.5" y="699.0" type="curve" smooth="yes"/>
      <point x="366.6333333333334" y="699.0"/>
      <point x="401.5" y="664.1666666666667"/>
      <point x="401.5" y="588.2666666666667" type="curve"/>
      <point x="414.03333333333336" y="588.2666666666667"/>
      <point x="422.1333333333333" y="598.9666666666667"/>
      <point x="422.1333333333333" y="624.3666666666667" type="curve" smooth="yes"/>
      <point x="422.1333333333333" y="675.6666666666666"/>
      <point x="384.1333333333333" y="724.0"/>
      <point x="290.03333333333336" y="724.0" type="curve" smooth="yes"/>
      <point x="161.36666666666667" y="724.0"/>
      <point x="72.56666666666668" y="631.7666666666667"/>
      <point x="72.56666666666668" y="338.3666666666667" type="curve" smooth="yes"/>
      <point x="72.56666666666668" y="96.7"/>
      <point x="145.23333333333335" y="-10.0"/>
    </contour>
    <contour>
      <point x="269.2333333333333" y="15.0" type="curve" smooth="yes"/>
      <point x="158.53333333333336" y="15.0"/>
      <point x="103.83333333333333" y="119.5"/>
      <point x="100.56666666666666" y="322.06666666666666" type="curve"/>
      <point x="129.73333333333332" y="350.8333333333333"/>
      <point x="181.96666666666667" y="402.73333333333335"/>
      <point x="270.33333333333337" y="402.73333333333335" type="curve" smooth="yes"/>
      <point x="370.3333333333333" y="402.73333333333335"/>
      <point x="417.83333333333337" y="331.3333333333333"/>
      <point x="417.83333333333337" y="219.53333333333333" type="curve" smooth="yes"/>
      <point x="417.83333333333337" y="92.2"/>
      <point x="367.6666666666667" y="15.0"/>
    </contour>
  </outline>
</glyph>
<glyph name="seven" format="2">
  <advance width="509.8666666666667"/>
  <unicode hex="0037"/>
  <outline>
    <contour>
      <point x="172.06666666666666" y="0.0" type="line"/>
      <point x="198.7" y="0.0" type="line"/>
      <point x="450.8333333333333" y="690.0" type="line"/>
      <point x="450.8333333333333" y="712.0" type="line"/>
      <point x="59.86666666666667" y="712.0" type="line"/>
      <point x="54.6" y="568.0" type="line"/>
      <point x="74.60000000000001" y="568.0" type="line"/>
      <point x="78.23333333333333" y="629.9" type="line" smooth="yes"/>
      <point x="81.23333333333333" y="679.2666666666667"/>
      <point x="91.5" y="684.0"/>
      <point x="127.13333333333333" y="684.0" type="curve" smooth="yes"/>
      <point x="421.83333333333337" y="684.0" type="line"/>
    </contour>
  </outline>
</glyph>
<glyph name="eight" format="2">
  <advance width="509.8666666666667"/>
  <unicode hex="0038"/>
  <outline>
    <contour>
      <point x="253.7" y="-10.0" type="curve" smooth="yes"/>
      <point x="369.8" y="-10.0"/>
      <point x="450.4666666666667" y="51.099999999999994"/>
      <point x="450.4666666666667" y="168.83333333333331" type="curve" smooth="yes"/>
      <point x="450.4666666666667" y="276.56666666666666"/>
      <point x="402.56666666666666" y="322.93333333333334"/>
      <point x="295.5" y="375.1" type="curve"/>
      <point x="381.7" y="407.46666666666664"/>
      <point x="431.3" y="467.06666666666666"/>
      <point x="431.3" y="559.8000000000001" type="curve" smooth="yes"/>
      <point x="431.3" y="653.3666666666667"/>
      <point x="373.8" y="724.0"/>
      <point x="259.1666666666667" y="724.0" type="curve" smooth="yes"/>
      <point x="149.4" y="724.0"/>
      <point x="88.73333333333333" y="657.3333333333333"/>
      <point x="88.73333333333333" y="553.9" type="curve" smooth="yes"/>
      <point x="88.73333333333333" y="465.2"/>
      <point x="145.33333333333331" y="414.1666666666667"/>
      <point x="229.00000000000003" y="376.3666666666667" type="curve"/>
      <point x="125.43333333333334" y="339.0"/>
      <point x="65.56666666666666" y="271.73333333333335"/>
      <point x="65.56666666666666" y="169.73333333333335" type="curve" smooth="yes"/>
      <point x="65.56666666666666" y="57.36666666666667"/>
      <point x="131.43333333333334" y="-10.0"/>
    </contour>
    <contour>
      <point x="251.8" y="15.000000000000002" type="curve" smooth="yes"/>
      <point x="146.06666666666666" y="15.000000000000002"/>
      <point x="93.56666666666666" y="73.2"/>
      <point x="93.56666666666666" y="170.63333333333335" type="curve" smooth="yes"/>
      <point x="93.56666666666666" y="253.63333333333335"/>
      <point x="144.03333333333333" y="322.90000000000003"/>
      <point x="259.3333333333333" y="362.0" type="curve"/>
      <point x="394.0" y="305.1333333333334"/>
      <point x="422.46666666666664" y="250.13333333333333"/>
      <point x="422.46666666666664" y="169.36666666666667" type="curve" smooth="yes"/>
      <point x="422.46666666666664" y="66.2"/>
      <point x="355.43333333333334" y="15.000000000000002"/>
    </contour>
    <contour>
      <point x="266.43333333333334" y="389.1" type="curve"/>
      <point x="167.33333333333334" y="432.53333333333336"/>
      <point x="116.73333333333333" y="470.4666666666667"/>
      <point x="116.73333333333333" y="559.9" type="curve" smooth="yes"/>
      <point x="116.73333333333333" y="644.1666666666667"/>
      <point x="169.33333333333334" y="699.0"/>
      <point x="262.9666666666667" y="699.0" type="curve" smooth="yes"/>
      <point x="363.9666666666667" y="699.0"/>
      <point x="403.3" y="629.5333333333333"/>
      <point x="403.3" y="557.2666666666667" type="curve" smooth="yes"/>
      <point x="403.3" y="479.23333333333335"/>
      <point x="371.43333333333334" y="426.56666666666666"/>
    </contour>
  </outline>
</glyph>
<glyph name="nine" format="2">
  <advance width="509.8666666666667"/>
  <unicode hex="0039"/>
  <outline>
    <contour>
      <point x="209.03333333333336" y="-11.733333333333333" type="curve"/>
      <point x="368.50000000000006" y="-11.733333333333333"/>
      <point x="436.93333333333334" y="111.16666666666666"/>
      <point x="436.93333333333334" y="388.0" type="curve"/>
      <point x="436.93333333333334" y="622.1666666666667"/>
      <point x="361.8666666666667" y="724.0"/>
      <point x="235.36666666666667" y="724.0" type="curve" smooth="yes"/>
      <point x="120.26666666666667" y="724.0"/>
      <point x="63.66666666666667" y="632.5"/>
      <point x="63.66666666666667" y="487.8" type="curve" smooth="yes"/>
      <point x="63.66666666666667" y="365.1"/>
      <point x="123.1" y="286.26666666666665"/>
      <point x="244.70000000000002" y="286.26666666666665" type="curve" smooth="yes"/>
      <point x="325.1333333333333" y="286.26666666666665"/>
      <point x="388.23333333333335" y="334.1666666666667"/>
      <point x="408.93333333333334" y="357.6333333333333" type="curve"/>
      <point x="406.73333333333335" y="126.76666666666667"/>
      <point x="343.3666666666667" y="13.266666666666666"/>
      <point x="214.46666666666667" y="13.266666666666666" type="curve" smooth="yes"/>
      <point x="155.39999999999998" y="13.266666666666666"/>
      <point x="121.06666666666666" y="38.5"/>
      <point x="102.1" y="80.0" type="curve"/>
      <point x="96.10000000000001" y="77.0"/>
      <point x="93.1" y="70.0"/>
      <point x="93.1" y="58.166666666666664" type="curve" smooth="yes"/>
      <point x="93.1" y="26.433333333333334"/>
      <point x="131.10000000000002" y="-11.733333333333333"/>
    </contour>
    <contour>
      <point x="242.9" y="311.2666666666667" type="curve" smooth="yes"/>
      <point x="141.60000000000002" y="311.26666666666665"/>
      <point x="91.66666666666667" y="378.0333333333333"/>
      <point x="91.66666666666667" y="488.0" type="curve" smooth="yes"/>
      <point x="91.66666666666667" y="610.1333333333333"/>
      <point x="132.63333333333333" y="699.0"/>
      <point x="237.89999999999998" y="699.0" type="curve" smooth="yes"/>
      <point x="348.3333333333333" y="699.0"/>
      <point x="408.93333333333334" y="594.1333333333333"/>
      <point x="408.93333333333334" y="391.93333333333334" type="curve"/>
      <point x="388.6" y="371.73333333333335"/>
      <point x="336.40000000000003" y="311.26666666666665"/>
    </contour>
  </outline>
</glyph>
<glyph name="colon" format="2">
  <advance width="210.06666666666666"/>
  <unicode hex="003A"/>
  <outline>
    <contour>
      <point x="104.13333333333333" y="431.9" type="curve" smooth="yes"/>
      <point x="119.4" y="431.9"/>
      <point x="132.76666666666665" y="440.90000000000003"/>
      <point x="132.76666666666665" y="471.5333333333333" type="curve" smooth="yes"/>
      <point x="132.76666666666665" y="501.5333333333333"/>
      <point x="119.4" y="509.9"/>
      <point x="104.13333333333333" y="509.9" type="curve" smooth="yes"/>
      <point x="88.4" y="509.9"/>
      <point x="74.76666666666667" y="501.5333333333333"/>
      <point x="74.76666666666667" y="471.5333333333333" type="curve" smooth="yes"/>
      <point x="74.76666666666667" y="440.90000000000003"/>
      <point x="88.4" y="431.9"/>
    </contour>
    <contour>
      <point x="104.13333333333333" y="-5.0" type="curve" smooth="yes"/>
      <point x="119.4" y="-5.0"/>
      <point x="132.76666666666665" y="4.0"/>
      <point x="132.76666666666665" y="34.63333333333333" type="curve" smooth="yes"/>
      <point x="132.76666666666665" y="64.63333333333334"/>
      <point x="119.4" y="73.0"/>
      <point x="104.13333333333333" y="73.0" type="curve" smooth="yes"/>
      <point x="88.4" y="73.0"/>
      <point x="74.76666666666667" y="64.63333333333334"/>
      <point x="74.76666666666667" y="34.63333333333333" type="curve" smooth="yes"/>
      <point x="74.76666666666667" y="4.0"/>
      <point x="88.4" y="-5.0"/>
    </contour>
  </outline>
</glyph>
<glyph name="semicolon" format="2">
  <advance width="210.06666666666666"/>
  <unicode hex="003B"/>
  <outline>
    <contour>
      <point x="39.06666666666667" y="-154.0" type="line"/>
      <point x="116.4" y="-125.89999999999999"/>
      <point x="145.93333333333334" y="-63.699999999999996"/>
      <point x="145.93333333333334" y="0.0" type="curve" smooth="yes"/>
      <point x="145.93333333333334" y="53.46666666666667"/>
      <point x="121.93333333333334" y="73.0"/>
      <point x="96.76666666666667" y="73.0" type="curve" smooth="yes"/>
      <point x="78.5" y="73.0"/>
      <point x="68.66666666666667" y="60.733333333333334"/>
      <point x="68.66666666666667" y="43.83333333333333" type="curve" smooth="yes"/>
      <point x="68.66666666666667" y="16.633333333333333"/>
      <point x="114.56666666666668" y="6.566666666666666"/>
      <point x="114.56666666666668" y="-28.53333333333333" type="curve" smooth="yes"/>
      <point x="114.56666666666668" y="-61.0"/>
      <point x="93.66666666666666" y="-113.16666666666667"/>
      <point x="39.06666666666667" y="-130.53333333333333" type="curve"/>
    </contour>
    <contour>
      <point x="104.13333333333333" y="431.9" type="curve" smooth="yes"/>
      <point x="119.76666666666667" y="431.9"/>
      <point x="132.76666666666665" y="440.90000000000003"/>
      <point x="132.76666666666665" y="471.5333333333333" type="curve" smooth="yes"/>
      <point x="132.76666666666665" y="501.5333333333333"/>
      <point x="119.76666666666667" y="509.9"/>
      <point x="104.13333333333333" y="509.9" type="curve" smooth="yes"/>
      <point x="88.4" y="509.9"/>
      <point x="74.76666666666667" y="501.5333333333333"/>
      <point x="74.76666666666667" y="471.5333333333333" type="curve" smooth="yes"/>
      <point x="74.76666666666667" y="440.90000000000003"/>
      <point x="88.4" y="431.9"/>
    </contour>
  </outline>
</glyph>
<glyph name="less" format="2">
  <advance width="509.8666666666667"/>
  <unicode hex="003C"/>
  <outline>
    <contour>
      <point x="450.3666666666667" y="117.63333333333333" type="line"/>
      <point x="450.3666666666667" y="150.46666666666667" type="line"/>
      <point x="89.86666666666667" y="357.0" type="line"/>
      <point x="450.3666666666667" y="565.5333333333333" type="line"/>
      <point x="450.3666666666667" y="598.3666666666667" type="line"/>
      <point x="59.5" y="371.0" type="line"/>
      <point x="59.5" y="344.0" type="line"/>
    </contour>
  </outline>
</glyph>
<glyph name="equal" format="2">
  <advance width="509.8666666666667"/>
  <unicode hex="003D"/>
  <outline>
    <contour>
      <point x="61.13333333333334" y="448.06666666666666" type="line"/>
      <point x="447.1" y="448.06666666666666" type="line"/>
      <point x="447.1" y="476.0666666666667" type="line"/>
      <point x="61.13333333333334" y="476.0666666666667" type="line"/>
    </contour>
    <contour>
      <point x="61.13333333333334" y="238.3" type="line"/>
      <point x="447.1" y="238.3" type="line"/>
      <point x="447.1" y="266.3" type="line"/>
      <point x="61.13333333333334" y="266.3" type="line"/>
    </contour>
  </outline>
</glyph>
<glyph name="greater" format="2">
  <advance width="509.8666666666667"/>
  <unicode hex="003E"/>
  <outline>
    <contour>
      <point x="59.5" y="117.63333333333333" type="line"/>
      <point x="450.3666666666667" y="344.0" type="line"/>
      <point x="450.3666666666667" y="371.0" type="line"/>
      <point x="59.5" y="598.3666666666667" type="line"/>
      <point x="59.5" y="565.5333333333333" type="line"/>
      <point x="417.4666666666667" y="357.0" type="line"/>
      <point x="59.5" y="150.46666666666667" type="line"/>
    </contour>
  </outline>
</glyph>
<glyph name="question" format="2">
  <advance width="420.40000000000003"/>
  <unicode hex="003F"/>
  <outline>
    <contour>
      <point x="186.73333333333335" y="197.70000000000002" type="line"/>
      <point x="206.73333333333335" y="197.70000000000002" type="line"/>
      <point x="210.36666666666667" y="323.6333333333333" type="line"/>
      <point x="313.56666666666666" y="374.06666666666666"/>
      <point x="359.8333333333333" y="439.90000000000003"/>
      <point x="359.8333333333333" y="551.3666666666667" type="curve" smooth="yes"/>
      <point x="359.8333333333333" y="655.7666666666667"/>
      <point x="298.7666666666667" y="724.0"/>
      <point x="195.5" y="724.0" type="curve" smooth="yes"/>
      <point x="80.96666666666667" y="724.0"/>
      <point x="44.333333333333336" y="658.5666666666666"/>
      <point x="44.333333333333336" y="616.5333333333333" type="curve" smooth="yes"/>
      <point x="44.333333333333336" y="590.7"/>
      <point x="52.8" y="577.1666666666667"/>
      <point x="65.33333333333333" y="577.1666666666667" type="curve"/>
      <point x="65.33333333333333" y="640.8333333333333"/>
      <point x="91.69999999999999" y="699.0"/>
      <point x="196.76666666666668" y="699.0" type="curve" smooth="yes"/>
      <point x="286.8666666666667" y="699.0"/>
      <point x="333.73333333333335" y="636.9333333333334"/>
      <point x="333.73333333333335" y="550.6333333333333" type="curve" smooth="yes"/>
      <point x="333.73333333333335" y="449.83333333333337"/>
      <point x="287.7666666666667" y="387.53333333333336"/>
      <point x="183.46666666666667" y="337.0" type="curve"/>
    </contour>
    <contour>
      <point x="196.46666666666667" y="-5.0" type="curve" smooth="yes"/>
      <point x="212.83333333333334" y="-5.0"/>
      <point x="226.20000000000002" y="4.0"/>
      <point x="226.20000000000002" y="34.63333333333333" type="curve" smooth="yes"/>
      <point x="226.20000000000002" y="64.63333333333334"/>
      <point x="212.83333333333334" y="73.0"/>
      <point x="196.46666666666667" y="73.0" type="curve" smooth="yes"/>
      <point x="181.46666666666667" y="73.0"/>
      <point x="167.83333333333334" y="64.63333333333334"/>
      <point x="167.83333333333334" y="34.63333333333333" type="curve" smooth="yes"/>
      <point x="167.83333333333334" y="4.0"/>
      <point x="181.46666666666667" y="-5.0"/>
    </contour>
  </outline>
</glyph>
<glyph name="bracketleft" format="2">
  <advance width="270.3666666666667"/>
  <unicode hex="005B"/>
  <outline>
    <contour>
      <point x="90.83333333333333" y="-128.0" type="line"/>
      <point x="236.3" y="-128.0" type="line"/>
      <point x="236.3" y="-108.0" type="line"/>
      <point x="174.83333333333334" y="-108.0" type="line" smooth="yes"/>
      <point x="124.83333333333334" y="-108.0"/>
      <point x="118.83333333333333" y="-97.0"/>
      <point x="118.83333333333333" y="-20.0" type="curve" smooth="yes"/>
      <point x="118.83333333333333" y="652.0" type="line" smooth="yes"/>
      <point x="118.83333333333333" y="729.0"/>
      <point x="124.83333333333334" y="740.0"/>
      <point x="174.83333333333334" y="740.0" type="curve" smooth="yes"/>
      <point x="236.3" y="740.0" type="line"/>
      <point x="236.3" y="760.0" type="line"/>
      <point x="90.83333333333333" y="760.0" type="line"/>
    </contour>
  </outline>
</glyph>
<glyph name="bracketright" format="2">
  <advance width="270.3666666666667"/>
  <unicode hex="005D"/>
  <outline>
    <contour>
      <point x="33.333333333333336" y="-128.0" type="line"/>
      <point x="178.8" y="-128.0" type="line"/>
      <point x="178.8" y="760.0" type="line"/>
      <point x="33.333333333333336" y="760.0" type="line"/>
      <point x="33.333333333333336" y="740.0" type="line"/>
      <point x="94.8" y="740.0" type="line" smooth="yes"/>
      <point x="144.8" y="740.0"/>
      <point x="150.8" y="729.0"/>
      <point x="150.8" y="652.0" type="curve" smooth="yes"/>
      <point x="150.8" y="-20.0" type="line" smooth="yes"/>
      <point x="150.8" y="-97.0"/>
      <point x="144.8" y="-108.0"/>
      <point x="94.8" y="-108.0" type="curve" smooth="yes"/>
      <point x="33.333333333333336" y="-108.0" type="line"/>
    </contour>
  </outline>
</glyph>
<glyph name="asciicircum" format="2">
  <advance width="509.8666666666667"/>
  <unicode hex="005E"/>
  <outline>
    <contour>
      <point x="50.766666666666666" y="271.6333333333333" type="line"/>
      <point x="82.13333333333334" y="271.6333333333333" type="line"/>
      <point x="253.43333333333334" y="673.8666666666667" type="line"/>
      <point x="426.73333333333335" y="271.6333333333333" type="line"/>
      <point x="458.1" y="271.6333333333333" type="line"/>
      <point x="265.43333333333334" y="714.0" type="line"/>
      <point x="240.8" y="714.0" type="line"/>
    </contour>
  </outline>
</glyph>
<glyph name="underscore" format="2">
  <advance width="417.93333333333334"/>
  <unicode hex="005F"/>
  <outline>
    <contour>
      <point x="-4.2666666666666675" y="-120.46666666666667" type="line"/>
      <point x="422.56666666666666" y="-120.46666666666667" type="line"/>
      <point x="422.56666666666666" y="-83.0" type="line"/>
      <point x="-4.2666666666666675" y="-83.0" type="line"/>
    </contour>
  </outline>
</glyph>
<glyph name="braceleft" format="2">
  <advance width="374.8"/>
  <unicode hex="007B"/>
  <outline>
    <contour>
      <point x="281.8" y="-132.0" type="curve" smooth="yes"/>
      <point x="308.5" y="-132.0" type="line"/>
      <point x="308.5" y="-107.0" type="line"/>
      <point x="283.6333333333333" y="-107.0" type="line" smooth="yes"/>
      <point x="229.56666666666666" y="-107.0"/>
      <point x="205.66666666666669" y="-68.73333333333332"/>
      <point x="205.66666666666669" y="8.566666666666666" type="curve" smooth="yes"/>
      <point x="205.66666666666669" y="187.36666666666665" type="line" smooth="yes"/>
      <point x="205.66666666666669" y="258.26666666666665"/>
      <point x="173.6" y="305.1666666666667"/>
      <point x="120.46666666666667" y="314.6333333333333" type="curve"/>
      <point x="120.46666666666667" y="317.0" type="line"/>
      <point x="174.4333333333333" y="326.56666666666666"/>
      <point x="205.66666666666669" y="373.0"/>
      <point x="205.66666666666669" y="443.0" type="curve" smooth="yes"/>
      <point x="205.66666666666669" y="617.8" type="line" smooth="yes"/>
      <point x="205.66666666666669" y="695.9"/>
      <point x="228.46666666666667" y="735.0"/>
      <point x="286.8" y="735.0" type="curve" smooth="yes"/>
      <point x="308.5" y="735.0" type="line"/>
      <point x="308.5" y="760.0" type="line"/>
      <point x="281.0666666666667" y="760.0" type="line" smooth="yes"/>
      <point x="214.0" y="760.0"/>
      <point x="177.66666666666669" y="710.0"/>
      <point x="177.66666666666669" y="621.0" type="curve" smooth="yes"/>
      <point x="177.66666666666669" y="445.0" type="line" smooth="yes"/>
      <point x="177.66666666666669" y="356.0"/>
      <point x="129.33333333333334" y="326.3666666666667"/>
      <point x="67.56666666666666" y="324.3666666666667" type="curve"/>
      <point x="67.56666666666666" y="305.6333333333333" type="line"/>
      <point x="135.93333333333334" y="302.26666666666665"/>
      <point x="177.66666666666669" y="268.1333333333333"/>
      <point x="177.66666666666669" y="184.36666666666665" type="curve" smooth="yes"/>
      <point x="177.66666666666669" y="8.0" type="line" smooth="yes"/>
      <point x="177.66666666666669" y="-77.63333333333333"/>
      <point x="214.0" y="-132.0"/>
    </contour>
  </outline>
</glyph>
<glyph name="bar" format="2">
  <advance width="509.1333333333334"/>
  <unicode hex="007C"/>
  <outline>
    <contour>
      <point x="240.4333333333333" y="-240.0" type="line"/>
      <point x="268.43333333333334" y="-240.0" type="line"/>
      <point x="268.43333333333334" y="760.0" type="line"/>
      <point x="240.4333333333333" y="760.0" type="line"/>
    </contour>
  </outline>
</glyph>
<glyph name="braceright" format="2">
  <advance width="374.8"/>
  <unicode hex="007D"/>
  <outline>
    <contour>
      <point x="67.56666666666666" y="-132.0" type="line"/>
      <point x="94.26666666666667" y="-132.0" type="line" smooth="yes"/>
      <point x="162.06666666666666" y="-132.0"/>
      <point x="198.4" y="-77.63333333333333"/>
      <point x="198.4" y="8.0" type="curve" smooth="yes"/>
      <point x="198.4" y="184.36666666666665" type="line" smooth="yes"/>
      <point x="198.4" y="268.1333333333333"/>
      <point x="240.13333333333333" y="302.26666666666665"/>
      <point x="308.5" y="305.6333333333333" type="curve"/>
      <point x="308.5" y="324.3666666666667" type="line"/>
      <point x="246.73333333333332" y="326.3666666666667"/>
      <point x="198.4" y="356.0"/>
      <point x="198.4" y="445.0" type="curve" smooth="yes"/>
      <point x="198.4" y="621.0" type="line" smooth="yes"/>
      <point x="198.4" y="710.0"/>
      <point x="162.06666666666666" y="760.0"/>
      <point x="95.0" y="760.0" type="curve" smooth="yes"/>
      <point x="67.56666666666666" y="760.0" type="line"/>
      <point x="67.56666666666666" y="735.0" type="line"/>
      <point x="89.26666666666667" y="735.0" type="line" smooth="yes"/>
      <point x="147.6" y="735.0"/>
      <point x="170.39999999999998" y="695.9"/>
      <point x="170.39999999999998" y="617.8" type="curve" smooth="yes"/>
      <point x="170.39999999999998" y="443.0" type="line" smooth="yes"/>
      <point x="170.39999999999998" y="373.0"/>
      <point x="201.63333333333335" y="326.56666666666666"/>
      <point x="255.6" y="317.0" type="curve"/>
      <point x="255.6" y="314.6333333333333" type="line"/>
      <point x="202.46666666666667" y="305.1666666666667"/>
      <point x="170.39999999999998" y="258.26666666666665"/>
      <point x="170.39999999999998" y="187.36666666666665" type="curve" smooth="yes"/>
      <point x="170.39999999999998" y="8.566666666666666" type="line" smooth="yes"/>
      <point x="170.39999999999998" y="-68.73333333333332"/>
      <point x="146.5" y="-107.0"/>
      <point x="92.43333333333334" y="-107.0" type="curve" smooth="yes"/>
      <point x="67.56666666666666" y="-107.0" type="line"/>
    </contour>
  </outline>
</glyph>
<glyph name="asciitilde" format="2">
  <advance width="509.8666666666667"/>
  <unicode hex="007E"/>
  <outline>
    <contour>
      <point x="57.766666666666666" y="277.0" type="curve"/>
      <point x="87.03333333333333" y="277.0" type="line"/>
      <point x="101.46666666666667" y="359.7"/>
      <point x="113.36666666666666" y="408.3666666666666"/>
      <point x="158.7" y="408.3666666666666" type="curve" smooth="yes"/>
      <point x="196.16666666666666" y="408.3666666666666"/>
      <point x="219.93333333333334" y="376.9"/>
      <point x="249.86666666666667" y="341.20000000000005" type="curve" smooth="yes"/>
      <point x="282.8666666666667" y="301.79999999999995"/>
      <point x="312.73333333333335" y="277.3666666666667"/>
      <point x="350.8" y="277.3666666666667" type="curve" smooth="yes"/>
      <point x="426.6666666666667" y="277.3666666666667"/>
      <point x="441.56666666666666" y="376.23333333333335"/>
      <point x="451.46666666666664" y="435.6333333333333" type="curve"/>
      <point x="421.56666666666666" y="435.6333333333333" type="line"/>
      <point x="407.76666666666665" y="365.6"/>
      <point x="397.40000000000003" y="305.0"/>
      <point x="350.8" y="305.0" type="curve" smooth="yes"/>
      <point x="322.2" y="305.0"/>
      <point x="297.43333333333334" y="327.5"/>
      <point x="264.06666666666666" y="367.0" type="curve" smooth="yes"/>
      <point x="230.43333333333334" y="406.76666666666665"/>
      <point x="202.46666666666667" y="436.0"/>
      <point x="158.7" y="436.0" type="curve" smooth="yes"/>
      <point x="80.93333333333332" y="436.0"/>
      <point x="70.19999999999999" y="342.1"/>
    </contour>
  </outline>
</glyph>
<glyph name="twosuperior" format="2">
  <advance width="364.43333333333334"/>
  <unicode hex="00B2"/>
  <outline>
    <contour>
      <point x="44.6" y="386.6333333333333" type="line"/>
      <point x="293.6" y="386.6333333333333" type="line"/>
      <point x="295.8666666666667" y="481.1" type="line"/>
      <point x="276.5" y="481.1" type="line"/>
      <point x="275.5" y="456.40000000000003" type="line"/>
      <point x="274.5" y="419.40000000000003"/>
      <point x="270.40000000000003" y="412.1"/>
      <point x="231.56666666666666" y="412.1" type="curve"/>
      <point x="85.96666666666667" y="412.1" type="line"/>
      <point x="208.96666666666667" y="555.6666666666666" type="line"/>
      <point x="248.66666666666666" y="603.5"/>
      <point x="283.1333333333333" y="645.2666666666667"/>
      <point x="283.1333333333333" y="714.0" type="curve" smooth="yes"/>
      <point x="283.1333333333333" y="781.4"/>
      <point x="242.13333333333333" y="824.2666666666667"/>
      <point x="170.4" y="824.2666666666667" type="curve" smooth="yes"/>
      <point x="94.96666666666667" y="824.2666666666667"/>
      <point x="59.666666666666664" y="774.7666666666667"/>
      <point x="59.666666666666664" y="743.2666666666667" type="curve" smooth="yes"/>
      <point x="59.666666666666664" y="724.1666666666667"/>
      <point x="70.13333333333334" y="714.4333333333334"/>
      <point x="83.13333333333334" y="714.4333333333334" type="curve"/>
      <point x="83.13333333333334" y="757.6666666666666"/>
      <point x="104.76666666666667" y="799.2666666666667"/>
      <point x="169.13333333333335" y="799.2666666666667" type="curve" smooth="yes"/>
      <point x="234.13333333333333" y="799.2666666666667"/>
      <point x="255.13333333333333" y="760.6666666666667"/>
      <point x="255.13333333333333" y="712.3666666666667" type="curve" smooth="yes"/>
      <point x="255.13333333333333" y="646.9333333333334"/>
      <point x="224.29999999999998" y="609.0333333333334"/>
      <point x="177.00000000000003" y="554.3333333333334" type="curve" smooth="yes"/>
      <point x="44.6" y="399.6333333333333" type="line"/>
    </contour>
  </outline>
</glyph>
<glyph name="threesuperior" format="2">
  <advance width="364.43333333333334"/>
  <unicode hex="00B3"/>
  <outline>
    <contour>
      <point x="164.60000000000002" y="379.26666666666665" type="curve" smooth="yes"/>
      <point x="247.60000000000002" y="379.26666666666665"/>
      <point x="302.76666666666665" y="426.3"/>
      <point x="302.76666666666665" y="507.16666666666663" type="curve" smooth="yes"/>
      <point x="302.76666666666665" y="573.4"/>
      <point x="263.0" y="602.6333333333333"/>
      <point x="208.53333333333336" y="611.9" type="curve"/>
      <point x="208.53333333333336" y="614.1666666666666" type="line"/>
      <point x="250.60000000000002" y="627.9666666666667"/>
      <point x="287.23333333333335" y="659.1"/>
      <point x="287.23333333333335" y="719.8333333333334" type="curve" smooth="yes"/>
      <point x="287.23333333333335" y="779.7666666666667"/>
      <point x="250.23333333333332" y="822.9"/>
      <point x="167.5" y="822.9" type="curve" smooth="yes"/>
      <point x="101.10000000000001" y="822.9"/>
      <point x="49.233333333333334" y="778.9333333333333"/>
      <point x="49.233333333333334" y="734.3" type="curve" smooth="yes"/>
      <point x="49.233333333333334" y="709.4666666666667"/>
      <point x="60.599999999999994" y="699.3666666666667"/>
      <point x="69.43333333333334" y="699.3666666666667" type="curve"/>
      <point x="69.43333333333334" y="759.1666666666667"/>
      <point x="105.6" y="797.9000000000001"/>
      <point x="166.96666666666667" y="797.9000000000001" type="curve" smooth="yes"/>
      <point x="229.16666666666669" y="797.9000000000001"/>
      <point x="259.23333333333335" y="771.1"/>
      <point x="259.23333333333335" y="717.3666666666667" type="curve" smooth="yes"/>
      <point x="259.23333333333335" y="661.1"/>
      <point x="221.96666666666667" y="624.1666666666666"/>
      <point x="152.23333333333335" y="624.1666666666666" type="curve" smooth="yes"/>
      <point x="117.63333333333333" y="624.1666666666666" type="line"/>
      <point x="117.63333333333333" y="599.1666666666667" type="line"/>
      <point x="146.96666666666667" y="599.1666666666667" type="line" smooth="yes"/>
      <point x="234.33333333333334" y="599.1666666666667"/>
      <point x="274.7666666666667" y="569.0666666666667"/>
      <point x="274.7666666666667" y="506.79999999999995" type="curve" smooth="yes"/>
      <point x="274.7666666666667" y="437.06666666666666"/>
      <point x="230.8" y="404.26666666666665"/>
      <point x="166.6" y="404.26666666666665" type="curve" smooth="yes"/>
      <point x="91.46666666666667" y="404.26666666666665"/>
      <point x="66.6" y="440.8333333333333"/>
      <point x="66.6" y="503.59999999999997" type="curve"/>
      <point x="52.96666666666667" y="503.59999999999997"/>
      <point x="43.233333333333334" y="492.9666666666667"/>
      <point x="43.233333333333334" y="467.8666666666667" type="curve" smooth="yes"/>
      <point x="43.233333333333334" y="422.3666666666667"/>
      <point x="86.73333333333333" y="379.26666666666665"/>
    </contour>
  </outline>
</glyph>
<glyph name="multiply" format="2">
  <advance width="509.8666666666667"/>
  <unicode hex="00D7"/>
  <outline>
    <contour>
      <point x="81.43333333333334" y="145.56666666666666" type="line"/>
      <point x="257.0" y="338.09999999999997" type="line"/>
      <point x="432.56666666666666" y="145.56666666666666" type="line"/>
      <point x="453.6666666666667" y="164.20000000000002" type="line"/>
      <point x="276.26666666666665" y="359.2" type="line"/>
      <point x="453.6666666666667" y="555.5666666666667" type="line"/>
      <point x="433.56666666666666" y="574.4666666666667" type="line"/>
      <point x="257.0" y="380.6666666666667" type="line"/>
      <point x="81.06666666666666" y="573.8333333333334" type="line"/>
      <point x="60.96666666666667" y="554.9333333333334" type="line"/>
      <point x="238.36666666666667" y="359.2" type="line"/>
      <point x="61.6" y="164.83333333333334" type="line"/>
    </contour>
  </outline>
</glyph>
<glyph name="divide" format="2">
  <advance width="509.8666666666667"/>
  <unicode hex="00F7"/>
  <outline>
    <contour>
      <point x="59.5" y="343.3666666666667" type="line"/>
      <point x="450.3666666666667" y="343.3666666666667" type="line"/>
      <point x="450.3666666666667" y="371.3666666666667" type="line"/>
      <point x="59.5" y="371.3666666666667" type="line"/>
    </contour>
    <contour>
      <point x="255.43333333333334" y="139.6" type="curve" smooth="yes"/>
      <point x="275.6" y="139.6"/>
      <point x="292.03333333333336" y="149.5"/>
      <point x="292.03333333333336" y="179.4" type="curve" smooth="yes"/>
      <point x="292.03333333333336" y="211.29999999999998"/>
      <point x="275.6" y="220.56666666666666"/>
      <point x="255.43333333333334" y="220.56666666666666" type="curve" smooth="yes"/>
      <point x="234.26666666666668" y="220.56666666666666"/>
      <point x="219.2" y="211.29999999999998"/>
      <point x="219.2" y="179.4" type="curve" smooth="yes"/>
      <point x="219.2" y="149.5"/>
      <point x="234.26666666666668" y="139.6"/>
    </contour>
    <contour>
      <point x="255.43333333333334" y="495.90000000000003" type="curve" smooth="yes"/>
      <point x="275.6" y="495.90000000000003"/>
      <point x="292.03333333333336" y="505.8"/>
      <point x="292.03333333333336" y="536.3333333333334" type="curve" smooth="yes"/>
      <point x="292.03333333333336" y="567.6"/>
      <point x="275.6" y="576.8666666666667"/>
      <point x="255.43333333333334" y="576.8666666666667" type="curve" smooth="yes"/>
      <point x="234.26666666666668" y="576.8666666666667"/>
      <point x="219.2" y="567.6"/>
      <point x="219.2" y="536.3333333333334" type="curve" smooth="yes"/>
      <point x="219.2" y="505.8"/>
      <point x="234.26666666666668" y="495.90000000000003"/>
    </contour>
  </outline>
</glyph>
<glyph name="udatta-deva" format="2">
  <unicode hex="0951"/>
  <anchor x="0.0" y="542.0" name="_vedic"/>
  <outline>
    <contour>
      <point x="-13.0" y="905.1666666666667" type="line"/>
      <point x="13.0" y="905.1666666666667" type="line"/>
      <point x="13.0" y="1089.1666666666665" type="line"/>
      <point x="-13.0" y="1089.1666666666665" type="line"/>
    </contour>
  </outline>
</glyph>
<glyph name="anudatta-deva" format="2">
  <unicode hex="0952"/>
  <anchor x="0.0" y="0.0" name="_bottom"/>
  <outline>
    <contour>
      <point x="-179.56666666666666" y="-462.7" type="line"/>
      <point x="179.56666666666666" y="-462.7" type="line"/>
      <point x="179.56666666666666" y="-438.7" type="line"/>
      <point x="-179.56666666666666" y="-438.7" type="line"/>
    </contour>
  </outline>
</glyph>
<glyph name="danda-deva" format="2">
  <advance width="271.9666666666667"/>
  <unicode hex="0964"/>
  <outline>
    <contour>
      <point x="121.3" y="0.0" type="line"/>
      <point x="150.3" y="0.0" type="line"/>
      <point x="150.3" y="542.0" type="line"/>
      <point x="121.3" y="542.0" type="line"/>
    </contour>
  </outline>
</glyph>
<glyph name="dbldanda-deva" format="2">
  <advance width="485.43333333333334"/>
  <unicode hex="0965"/>
  <outline>
    <contour>
      <point x="335.1333333333333" y="0.0" type="line"/>
      <point x="363.76666666666665" y="0.0" type="line"/>
      <point x="363.76666666666665" y="542.0" type="line"/>
      <point x="335.1333333333333" y="542.0" type="line"/>
    </contour>
    <contour>
      <point x="121.3" y="0.0" type="line"/>
      <point x="150.3" y="0.0" type="line"/>
      <point x="150.3" y="542.0" type="line"/>
      <point x="121.3" y="542.0" type="line"/>
    </contour>
  </outline>
</glyph>
<glyph name="anusvara-tamil" format="2">
  <unicode hex="0B82"/>
  <note>
uni0B82
</note>
  <anchor x="0.0" y="542.0" name="_top"/>
  <outline>
    <contour>
      <point x="0.0" y="650.0" type="curve" smooth="yes"/>
      <point x="54.53333333333334" y="650.0"/>
      <point x="92.06666666666666" y="690.5333333333334"/>
      <point x="92.06666666666666" y="743.0666666666666" type="curve" smooth="yes"/>
      <point x="92.06666666666666" y="794.9666666666667"/>
      <point x="54.53333333333334" y="835.8666666666667"/>
      <point x="0.0" y="835.8666666666667" type="curve" smooth="yes"/>
      <point x="-54.53333333333334" y="835.8666666666667"/>
      <point x="-92.06666666666666" y="794.9666666666667"/>
      <point x="-92.06666666666666" y="743.0666666666666" type="curve" smooth="yes"/>
      <point x="-92.06666666666666" y="690.5333333333334"/>
      <point x="-54.53333333333334" y="650.0"/>
    </contour>
    <contour>
      <point x="0.0" y="674.3666666666667" type="curve" smooth="yes"/>
      <point x="-39.16666666666667" y="674.3666666666667"/>
      <point x="-65.43333333333334" y="703.9"/>
      <point x="-65.43333333333334" y="743.0666666666666" type="curve" smooth="yes"/>
      <point x="-65.43333333333334" y="781.6"/>
      <point x="-39.16666666666667" y="811.5"/>
      <point x="0.0" y="811.5" type="curve" smooth="yes"/>
      <point x="39.16666666666667" y="811.5"/>
      <point x="65.43333333333334" y="781.6"/>
      <point x="65.43333333333334" y="743.0666666666666" type="curve" smooth="yes"/>
      <point x="65.43333333333334" y="703.9"/>
      <point x="39.16666666666667" y="674.3666666666667"/>
    </contour>
  </outline>
</glyph>
<glyph name="visarga-tamil" format="2">
  <advance width="780.8666666666667"/>
  <unicode hex="0B83"/>
  <note>
uni0B83
</note>
  <outline>
    <contour>
      <point x="579.9333333333334" y="0.0" type="curve" smooth="yes"/>
      <point x="662.9666666666667" y="0.0"/>
      <point x="716.6333333333333" y="77.0"/>
      <point x="716.6333333333333" y="181.0" type="curve" smooth="yes"/>
      <point x="716.6333333333333" y="283.0"/>
      <point x="669.2333333333332" y="362.0"/>
      <point x="582.1999999999999" y="362.0" type="curve" smooth="yes"/>
      <point x="489.26666666666665" y="362.0"/>
      <point x="446.6" y="277.0"/>
      <point x="446.6" y="181.0" type="curve" smooth="yes"/>
      <point x="446.6" y="81.0"/>
      <point x="489.26666666666665" y="0.0"/>
    </contour>
    <contour>
      <point x="197.20000000000002" y="0.0" type="curve" smooth="yes"/>
      <point x="280.6" y="0.0"/>
      <point x="333.9" y="77.0"/>
      <point x="333.9" y="181.0" type="curve" smooth="yes"/>
      <point x="333.9" y="283.0"/>
      <point x="286.5" y="362.0"/>
      <point x="199.83333333333334" y="362.0" type="curve" smooth="yes"/>
      <point x="106.53333333333335" y="362.0"/>
      <point x="63.60000000000001" y="277.0"/>
      <point x="63.60000000000001" y="181.0" type="curve" smooth="yes"/>
      <point x="63.60000000000001" y="81.0"/>
      <point x="106.53333333333333" y="0.0"/>
    </contour>
    <contour>
      <point x="390.83333333333337" y="404.0" type="curve" smooth="yes"/>
      <point x="474.23333333333335" y="404.0"/>
      <point x="527.5333333333333" y="480.0"/>
      <point x="527.5333333333333" y="585.0" type="curve" smooth="yes"/>
      <point x="527.5333333333333" y="687.0"/>
      <point x="480.1333333333334" y="766.0"/>
      <point x="393.1" y="766.0" type="curve" smooth="yes"/>
      <point x="300.1666666666667" y="766.0"/>
      <point x="257.5" y="681.0"/>
      <point x="257.5" y="585.0" type="curve" smooth="yes"/>
      <point x="257.5" y="485.0"/>
      <point x="300.1666666666667" y="404.0"/>
    </contour>
    <contour>
      <point x="194.2" y="26.0" type="curve" smooth="yes"/>
      <point x="122.43333333333334" y="26.0"/>
      <point x="89.86666666666666" y="96.0"/>
      <point x="89.86666666666666" y="181.0" type="curve" smooth="yes"/>
      <point x="89.86666666666666" y="264.0"/>
      <point x="124.06666666666666" y="337.0"/>
      <point x="196.83333333333334" y="337.0" type="curve" smooth="yes"/>
      <point x="271.23333333333335" y="337.0"/>
      <point x="306.9" y="267.0"/>
      <point x="306.9" y="181.0" type="curve" smooth="yes"/>
      <point x="306.9" y="91.0"/>
      <point x="265.3333333333333" y="26.0"/>
    </contour>
    <contour>
      <point x="387.83333333333337" y="430.0" type="curve" smooth="yes"/>
      <point x="316.7" y="430.0"/>
      <point x="283.5" y="500.0"/>
      <point x="283.5" y="585.0" type="curve" smooth="yes"/>
      <point x="283.5" y="668.0"/>
      <point x="317.7" y="741.0"/>
      <point x="391.1" y="741.0" type="curve" smooth="yes"/>
      <point x="464.8666666666667" y="741.0"/>
      <point x="500.53333333333336" y="671.0"/>
      <point x="500.53333333333336" y="585.0" type="curve" smooth="yes"/>
      <point x="500.53333333333336" y="495.0"/>
      <point x="458.9666666666667" y="430.0"/>
    </contour>
    <contour>
      <point x="576.9333333333333" y="26.0" type="curve" smooth="yes"/>
      <point x="505.8" y="26.0"/>
      <point x="472.6" y="96.0"/>
      <point x="472.6" y="181.0" type="curve" smooth="yes"/>
      <point x="472.6" y="264.0"/>
      <point x="506.8" y="337.0"/>
      <point x="580.2" y="337.0" type="curve" smooth="yes"/>
      <point x="653.9666666666667" y="337.0"/>
      <point x="689.6333333333333" y="267.0"/>
      <point x="689.6333333333333" y="181.0" type="curve" smooth="yes"/>
      <point x="689.6333333333333" y="91.0"/>
      <point x="648.0666666666667" y="26.0"/>
    </contour>
  </outline>
</glyph>
<glyph name="a-tamil" format="2">
  <advance width="1161.3666666666668"/>
  <unicode hex="0B85"/>
  <note>
uni0B85
</note>
  <anchor x="563.0" y="0.0" name="bottom"/>
  <anchor x="402.6" y="-87.66666666666667" name="nukta"/>
  <anchor x="567.3666666666667" y="542.0" name="top"/>
  <anchor x="567.7333333333333" y="542.0" name="vedic"/>
  <outline>
    <contour>
      <point x="1017.4666666666667" y="-154.36666666666667" type="line"/>
      <point x="1046.4666666666667" y="-154.36666666666667" type="line"/>
      <point x="1046.4666666666667" y="542.0" type="line"/>
      <point x="1017.4666666666667" y="542.0" type="line"/>
      <point x="1017.4666666666667" y="160.83333333333334" type="line"/>
      <point x="100.46666666666667" y="160.83333333333334" type="line" smooth="yes"/>
      <point x="62.766666666666666" y="160.83333333333334"/>
      <point x="44.766666666666666" y="141.2"/>
      <point x="44.766666666666666" y="104.83333333333333" type="curve" smooth="yes"/>
      <point x="44.766666666666666" y="27.666666666666668"/>
      <point x="180.5" y="-87.66666666666667"/>
      <point x="402.6" y="-87.66666666666667" type="curve" smooth="yes"/>
      <point x="615.6333333333333" y="-87.66666666666667"/>
      <point x="834.5666666666667" y="9.899999999999999"/>
      <point x="834.5666666666667" y="265.1333333333333" type="curve" smooth="yes"/>
      <point x="834.5666666666667" y="452.96666666666664"/>
      <point x="717.8" y="551.0"/>
      <point x="567.0" y="551.0" type="curve" smooth="yes"/>
      <point x="439.16666666666663" y="551.0"/>
      <point x="371.3666666666667" y="468.1666666666667"/>
      <point x="371.3666666666667" y="394.0" type="curve" smooth="yes"/>
      <point x="371.3666666666667" y="316.9"/>
      <point x="412.6" y="266.0"/>
      <point x="483.6333333333334" y="266.0" type="curve" smooth="yes"/>
      <point x="555.4666666666667" y="266.0"/>
      <point x="606.0666666666667" y="313.1666666666667"/>
      <point x="606.0666666666667" y="391.0" type="curve" smooth="yes"/>
      <point x="606.0666666666667" y="456.0"/>
      <point x="566.7333333333333" y="507.0"/>
      <point x="522.5" y="535.3666666666667" type="curve"/>
      <point x="493.7" y="530.0" type="line"/>
      <point x="549.3666666666667" y="493.0"/>
      <point x="578.0666666666667" y="447.0"/>
      <point x="578.0666666666667" y="391.0" type="curve" smooth="yes"/>
      <point x="578.0666666666667" y="331.1666666666667"/>
      <point x="542.8333333333334" y="291.0"/>
      <point x="482.6333333333333" y="291.0" type="curve" smooth="yes"/>
      <point x="430.70000000000005" y="291.0"/>
      <point x="399.00000000000006" y="330.26666666666665"/>
      <point x="399.00000000000006" y="392.0" type="curve" smooth="yes"/>
      <point x="399.00000000000006" y="460.53333333333336"/>
      <point x="456.1666666666667" y="527.0"/>
      <point x="563.0" y="527.0" type="curve" smooth="yes"/>
      <point x="696.4333333333334" y="527.0"/>
      <point x="804.9333333333334" y="440.3333333333333"/>
      <point x="804.9333333333334" y="266.1333333333333" type="curve" smooth="yes"/>
      <point x="804.9333333333334" y="26.166666666666664"/>
      <point x="592.8333333333334" y="-61.666666666666664"/>
      <point x="397.79999999999995" y="-61.666666666666664" type="curve" smooth="yes"/>
      <point x="206.66666666666669" y="-61.666666666666664"/>
      <point x="71.13333333333334" y="37.3"/>
      <point x="71.13333333333334" y="110.2" type="curve" smooth="yes"/>
      <point x="71.13333333333334" y="124.2"/>
      <point x="81.66666666666666" y="137.83333333333334"/>
      <point x="104.10000000000001" y="137.83333333333334" type="curve" smooth="yes"/>
      <point x="1017.4666666666667" y="137.83333333333334" type="line"/>
    </contour>
  </outline>
</glyph>
<glyph name="aa-tamil" format="2">
  <advance width="1246.1"/>
  <unicode hex="0B86"/>
  <note>
uni0B86
</note>
  <anchor x="612.0" y="0.0" name="bottom"/>
  <anchor x="402.6" y="-87.66666666666667" name="nukta"/>
  <anchor x="615.7333333333333" y="542.0" name="top"/>
  <anchor x="616.3666666666667" y="542.0" name="vedic"/>
  <outline>
    <contour>
      <point x="889.5" y="-402.23333333333335" type="curve" smooth="yes"/>
      <point x="1040.3666666666666" y="-402.23333333333335"/>
      <point x="1217.2333333333333" y="-291.8333333333333"/>
      <point x="1217.2333333333333" y="-108.8" type="curve" smooth="yes"/>
      <point x="1217.2333333333333" y="-37.63333333333333"/>
      <point x="1180.9" y="1.0"/>
      <point x="1128.3" y="1.0" type="curve" smooth="yes"/>
      <point x="1067.2666666666667" y="1.0"/>
      <point x="1035.3" y="-43.333333333333336"/>
      <point x="1028.3" y="-117.23333333333333" type="curve"/>
      <point x="1043.8333333333333" y="-127.23333333333332" type="line"/>
      <point x="1046.4666666666667" y="-64.33333333333333"/>
      <point x="1078.0666666666666" y="-26.0"/>
      <point x="1123.1999999999998" y="-26.0" type="curve" smooth="yes"/>
      <point x="1162.1666666666665" y="-26.0"/>
      <point x="1188.2333333333333" y="-52.266666666666666"/>
      <point x="1188.2333333333333" y="-110.43333333333334" type="curve" smooth="yes"/>
      <point x="1188.2333333333333" y="-277.4666666666667"/>
      <point x="1022.7333333333333" y="-374.8666666666667"/>
      <point x="887.7666666666667" y="-374.8666666666667" type="curve" smooth="yes"/>
      <point x="805.2333333333333" y="-374.8666666666667"/>
      <point x="742.3000000000001" y="-344.5333333333333"/>
      <point x="742.3000000000001" y="-272.6333333333334" type="curve" smooth="yes"/>
      <point x="742.3000000000001" y="-227.0"/>
      <point x="766.3" y="-192.20000000000002"/>
      <point x="822.9666666666666" y="-174.63333333333333" type="curve"/>
      <point x="815.1333333333333" y="-149.36666666666667" type="line"/>
      <point x="744.9333333333333" y="-171.03333333333336"/>
      <point x="714.3000000000001" y="-215.0"/>
      <point x="714.3000000000001" y="-271.0" type="curve" smooth="yes"/>
      <point x="714.3000000000001" y="-355.26666666666665"/>
      <point x="783.3333333333333" y="-402.23333333333335"/>
    </contour>
    <component base="a-tamil"/>
  </outline>
</glyph>
<glyph name="i-tamil" format="2">
  <advance width="877.9333333333333"/>
  <unicode hex="0B87"/>
  <note>
uni0B87
</note>
  <anchor x="432.1333333333333" y="0.0" name="bottom"/>
  <anchor x="430.1333333333333" y="-246.16666666666666" name="nukta"/>
  <anchor x="436.3333333333333" y="784.3" name="top"/>
  <anchor x="438.1333333333333" y="542.0" name="vedic"/>
  <outline>
    <contour>
      <point x="207.10000000000002" y="-278.0" type="curve" smooth="yes"/>
      <point x="441.3666666666667" y="-278.0"/>
      <point x="652.1333333333333" y="3.0"/>
      <point x="652.1333333333333" y="267.0" type="curve" smooth="yes"/>
      <point x="652.1333333333333" y="445.0"/>
      <point x="569.6666666666667" y="551.0"/>
      <point x="425.8" y="551.0" type="curve" smooth="yes"/>
      <point x="307.0" y="551.0"/>
      <point x="244.4" y="472.2"/>
      <point x="244.4" y="394.0" type="curve" smooth="yes"/>
      <point x="244.4" y="316.53333333333336"/>
      <point x="286.0" y="266.0"/>
      <point x="356.3" y="266.0" type="curve" smooth="yes"/>
      <point x="428.8666666666667" y="266.0"/>
      <point x="473.03333333333336" y="313.9"/>
      <point x="473.03333333333336" y="391.0" type="curve" smooth="yes"/>
      <point x="473.03333333333336" y="456.0"/>
      <point x="435.43333333333334" y="507.0"/>
      <point x="388.3666666666667" y="535.0" type="curve"/>
      <point x="360.6666666666667" y="530.0" type="line"/>
      <point x="417.06666666666666" y="493.0"/>
      <point x="445.66666666666663" y="447.0"/>
      <point x="445.66666666666663" y="391.0" type="curve" smooth="yes"/>
      <point x="445.66666666666663" y="333.0"/>
      <point x="416.6" y="291.0"/>
      <point x="355.66666666666663" y="291.0" type="curve" smooth="yes"/>
      <point x="302.3666666666667" y="291.0"/>
      <point x="272.03333333333336" y="331.0"/>
      <point x="272.03333333333336" y="392.0" type="curve" smooth="yes"/>
      <point x="272.03333333333336" y="462.0"/>
      <point x="321.79999999999995" y="527.0"/>
      <point x="420.70000000000005" y="527.0" type="curve" smooth="yes"/>
      <point x="547.6666666666667" y="527.0"/>
      <point x="623.1333333333333" y="432.0"/>
      <point x="623.1333333333333" y="268.0" type="curve" smooth="yes"/>
      <point x="623.1333333333333" y="24.0"/>
      <point x="428.09999999999997" y="-252.0"/>
      <point x="212.46666666666667" y="-252.0" type="curve" smooth="yes"/>
      <point x="131.1" y="-252.0"/>
      <point x="86.76666666666668" y="-215.83333333333334"/>
      <point x="86.76666666666668" y="-143.46666666666664" type="curve" smooth="yes"/>
      <point x="86.76666666666668" y="-14.166666666666668"/>
      <point x="254.03333333333333" y="80.0"/>
      <point x="430.59999999999997" y="80.0" type="curve" smooth="yes"/>
      <point x="600.6333333333333" y="80.0"/>
      <point x="773.5333333333334" y="-17.166666666666668"/>
      <point x="773.5333333333334" y="-143.46666666666667" type="curve" smooth="yes"/>
      <point x="773.5333333333334" y="-218.83333333333331"/>
      <point x="724.8333333333334" y="-252.0"/>
      <point x="650.0" y="-252.0" type="curve" smooth="yes"/>
      <point x="447.73333333333335" y="-252.0"/>
      <point x="104.3" y="73.0"/>
      <point x="104.3" y="389.0" type="curve" smooth="yes"/>
      <point x="104.3" y="600.7333333333333"/>
      <point x="207.96666666666667" y="753.3000000000001"/>
      <point x="435.06666666666666" y="753.3000000000001" type="curve" smooth="yes"/>
      <point x="654.9333333333333" y="753.3000000000001"/>
      <point x="785.1666666666666" y="597.2"/>
      <point x="785.1666666666666" y="343.3333333333333" type="curve" smooth="yes"/>
      <point x="785.1666666666666" y="108.0" type="line"/>
      <point x="810.5333333333333" y="108.0" type="line"/>
      <point x="810.5333333333333" y="343.3333333333333" type="line" smooth="yes"/>
      <point x="810.5333333333333" y="622.2"/>
      <point x="673.7333333333332" y="784.3"/>
      <point x="436.3333333333333" y="784.3" type="curve" smooth="yes"/>
      <point x="191.96666666666667" y="784.3"/>
      <point x="76.3" y="616.7333333333333"/>
      <point x="76.3" y="394.0" type="curve" smooth="yes"/>
      <point x="76.3" y="69.0"/>
      <point x="431.7333333333333" y="-278.0"/>
      <point x="656.3666666666667" y="-278.0" type="curve" smooth="yes"/>
      <point x="738.9333333333334" y="-278.0"/>
      <point x="802.4333333333333" y="-238.83333333333331"/>
      <point x="802.4333333333333" y="-145.83333333333331" type="curve" smooth="yes"/>
      <point x="802.4333333333333" y="-0.16666666666666685"/>
      <point x="622.5333333333333" y="105.0"/>
      <point x="430.59999999999997" y="105.0" type="curve" smooth="yes"/>
      <point x="234.4" y="105.0"/>
      <point x="57.866666666666674" y="-1.5333333333333337"/>
      <point x="57.866666666666674" y="-143.83333333333331" type="curve" smooth="yes"/>
      <point x="57.866666666666674" y="-230.83333333333331"/>
      <point x="116.73333333333333" y="-278.0"/>
    </contour>
  </outline>
</glyph>
<glyph name="ii-tamil" format="2">
  <advance width="678.9333333333333"/>
  <unicode hex="0B88"/>
  <note>
uni0B88
</note>
  <anchor x="362.93333333333334" y="0.0" name="bottom"/>
  <anchor x="363.56666666666666" y="0.0" name="nukta"/>
  <anchor x="366.3" y="542.0" name="top"/>
  <anchor x="365.93333333333334" y="542.0" name="vedic"/>
  <outline>
    <contour>
      <point x="115.26666666666667" y="0.0" type="line"/>
      <point x="141.26666666666668" y="0.0" type="line"/>
      <point x="141.26666666666668" y="519.0" type="line"/>
      <point x="420.6" y="519.0" type="line"/>
      <point x="420.6" y="0.0" type="line"/>
      <point x="449.96666666666664" y="0.0" type="line"/>
      <point x="449.96666666666664" y="519.0" type="line"/>
      <point x="634.2333333333333" y="519.0" type="line"/>
      <point x="634.2333333333333" y="542.0" type="line"/>
      <point x="115.26666666666667" y="542.0" type="line"/>
    </contour>
    <contour>
      <point x="279.56666666666666" y="228.46666666666667" type="curve" smooth="yes"/>
      <point x="297.8333333333333" y="228.46666666666667"/>
      <point x="312.09999999999997" y="243.1"/>
      <point x="312.09999999999997" y="261.0" type="curve" smooth="yes"/>
      <point x="312.09999999999997" y="278.6333333333333"/>
      <point x="297.8333333333333" y="293.9"/>
      <point x="279.56666666666666" y="293.9" type="curve" smooth="yes"/>
      <point x="260.3" y="293.9"/>
      <point x="245.03333333333333" y="278.6333333333333"/>
      <point x="245.03333333333333" y="261.0" type="curve" smooth="yes"/>
      <point x="245.03333333333333" y="243.1"/>
      <point x="260.3" y="228.46666666666667"/>
    </contour>
    <contour>
      <point x="588.1" y="228.46666666666667" type="curve" smooth="yes"/>
      <point x="607.0" y="228.46666666666667"/>
      <point x="621.2666666666667" y="243.1"/>
      <point x="621.2666666666667" y="261.0" type="curve" smooth="yes"/>
      <point x="621.2666666666667" y="278.6333333333333"/>
      <point x="607.0" y="293.9"/>
      <point x="588.1" y="293.9" type="curve" smooth="yes"/>
      <point x="568.8333333333334" y="293.9"/>
      <point x="554.2" y="278.6333333333333"/>
      <point x="554.2" y="261.0" type="curve" smooth="yes"/>
      <point x="554.2" y="243.1"/>
      <point x="568.8333333333334" y="228.46666666666667"/>
    </contour>
  </outline>
</glyph>
<glyph name="u-tamil" format="2">
  <advance width="950.9333333333334"/>
  <unicode hex="0B89"/>
  <note>
uni0B89
</note>
  <anchor x="493.8" y="0.0" name="bottom"/>
  <anchor x="493.8" y="0.0" name="nukta"/>
  <anchor x="495.8" y="542.0" name="top"/>
  <anchor x="496.43333333333334" y="542.0" name="vedic"/>
  <outline>
    <contour>
      <point x="147.26666666666665" y="0.0" type="curve" smooth="yes"/>
      <point x="924.6666666666667" y="0.0" type="line"/>
      <point x="924.6666666666667" y="23.0" type="line"/>
      <point x="145.26666666666668" y="23.0" type="line" smooth="yes"/>
      <point x="106.5" y="23.0"/>
      <point x="81.23333333333333" y="49.0"/>
      <point x="81.23333333333333" y="86.0" type="curve" smooth="yes"/>
      <point x="81.23333333333333" y="124.0"/>
      <point x="105.5" y="146.0"/>
      <point x="145.26666666666668" y="146.0" type="curve" smooth="yes"/>
      <point x="365.5" y="146.0" type="line" smooth="yes"/>
      <point x="495.6333333333333" y="146.0"/>
      <point x="579.4666666666666" y="211.36666666666667"/>
      <point x="579.4666666666666" y="339.0" type="curve" smooth="yes"/>
      <point x="579.4666666666666" y="471.0"/>
      <point x="485.73333333333335" y="551.0"/>
      <point x="338.3333333333333" y="551.0" type="curve" smooth="yes"/>
      <point x="215.63333333333335" y="551.0"/>
      <point x="142.7" y="470.0"/>
      <point x="142.7" y="394.0" type="curve" smooth="yes"/>
      <point x="142.7" y="318.0"/>
      <point x="183.83333333333334" y="266.0"/>
      <point x="254.96666666666667" y="266.0" type="curve" smooth="yes"/>
      <point x="327.53333333333336" y="266.0"/>
      <point x="377.4" y="315.0"/>
      <point x="377.4" y="391.0" type="curve" smooth="yes"/>
      <point x="377.4" y="456.0"/>
      <point x="338.3333333333333" y="507.0"/>
      <point x="293.1" y="535.0" type="curve"/>
      <point x="264.3" y="530.0" type="line"/>
      <point x="320.70000000000005" y="493.0"/>
      <point x="349.4" y="447.0"/>
      <point x="349.4" y="391.0" type="curve" smooth="yes"/>
      <point x="349.4" y="333.0"/>
      <point x="315.53333333333336" y="291.0"/>
      <point x="253.6" y="291.0" type="curve" smooth="yes"/>
      <point x="200.93333333333334" y="291.0"/>
      <point x="169.96666666666667" y="331.0"/>
      <point x="169.96666666666667" y="392.0" type="curve" smooth="yes"/>
      <point x="169.96666666666667" y="462.0"/>
      <point x="232.63333333333333" y="527.0"/>
      <point x="335.06666666666666" y="527.0" type="curve" smooth="yes"/>
      <point x="464.8333333333333" y="527.0"/>
      <point x="549.4666666666667" y="458.0"/>
      <point x="549.4666666666667" y="340.0" type="curve" smooth="yes"/>
      <point x="549.4666666666667" y="227.0"/>
      <point x="475.20000000000005" y="170.0"/>
      <point x="358.8666666666667" y="170.0" type="curve" smooth="yes"/>
      <point x="147.26666666666665" y="170.0" type="line" smooth="yes"/>
      <point x="89.5" y="170.0"/>
      <point x="54.96666666666666" y="138.0"/>
      <point x="54.96666666666666" y="86.0" type="curve" smooth="yes"/>
      <point x="54.96666666666666" y="35.0"/>
      <point x="89.5" y="0.0"/>
    </contour>
  </outline>
</glyph>
<glyph name="uu-tamil" format="2">
  <advance width="1483.5666666666666"/>
  <unicode hex="0B8A"/>
  <note>
uni0B8A
</note>
  <anchor x="782.4666666666667" y="0.0" name="bottom"/>
  <anchor x="783.4666666666667" y="0.0" name="nukta"/>
  <anchor x="785.4666666666667" y="542.0" name="top"/>
  <anchor x="785.4666666666667" y="542.0" name="vedic"/>
  <outline>
    <contour>
      <point x="147.26666666666668" y="0.0" type="curve" smooth="yes"/>
      <point x="1467.1" y="0.0" type="line"/>
      <point x="1467.1" y="23.0" type="line"/>
      <point x="145.26666666666668" y="23.0" type="line" smooth="yes"/>
      <point x="106.50000000000001" y="23.0"/>
      <point x="81.23333333333333" y="49.0"/>
      <point x="81.23333333333333" y="86.0" type="curve" smooth="yes"/>
      <point x="81.23333333333333" y="124.0"/>
      <point x="105.50000000000001" y="146.0"/>
      <point x="145.26666666666668" y="146.0" type="curve" smooth="yes"/>
      <point x="365.5" y="146.0" type="line" smooth="yes"/>
      <point x="495.6333333333333" y="146.0"/>
      <point x="579.4666666666666" y="211.36666666666667"/>
      <point x="579.4666666666666" y="339.0" type="curve" smooth="yes"/>
      <point x="579.4666666666666" y="471.0"/>
      <point x="485.73333333333335" y="551.0"/>
      <point x="338.3333333333333" y="551.0" type="curve" smooth="yes"/>
      <point x="215.63333333333335" y="551.0"/>
      <point x="142.7" y="470.0"/>
      <point x="142.7" y="394.0" type="curve" smooth="yes"/>
      <point x="142.7" y="318.0"/>
      <point x="183.83333333333334" y="266.0"/>
      <point x="254.96666666666667" y="266.0" type="curve" smooth="yes"/>
      <point x="327.53333333333336" y="266.0"/>
      <point x="377.4" y="315.0"/>
      <point x="377.4" y="391.0" type="curve" smooth="yes"/>
      <point x="377.4" y="456.0"/>
      <point x="338.3333333333333" y="507.0"/>
      <point x="293.1" y="535.0" type="curve"/>
      <point x="264.3" y="530.0" type="line"/>
      <point x="320.70000000000005" y="493.0"/>
      <point x="349.4" y="447.0"/>
      <point x="349.4" y="391.0" type="curve" smooth="yes"/>
      <point x="349.4" y="333.0"/>
      <point x="315.53333333333336" y="291.0"/>
      <point x="253.6" y="291.0" type="curve" smooth="yes"/>
      <point x="200.93333333333334" y="291.0"/>
      <point x="169.96666666666667" y="331.0"/>
      <point x="169.96666666666667" y="392.0" type="curve" smooth="yes"/>
      <point x="169.96666666666667" y="462.0"/>
      <point x="232.63333333333333" y="527.0"/>
      <point x="335.06666666666666" y="527.0" type="curve" smooth="yes"/>
      <point x="464.8333333333333" y="527.0"/>
      <point x="549.4666666666667" y="458.0"/>
      <point x="549.4666666666667" y="340.0" type="curve" smooth="yes"/>
      <point x="549.4666666666667" y="227.0"/>
      <point x="475.20000000000005" y="170.0"/>
      <point x="358.8666666666667" y="170.0" type="curve" smooth="yes"/>
      <point x="147.26666666666668" y="170.0" type="line" smooth="yes"/>
      <point x="89.5" y="170.0"/>
      <point x="54.96666666666666" y="138.0"/>
      <point x="54.96666666666666" y="86.0" type="curve" smooth="yes"/>
      <point x="54.96666666666666" y="35.0"/>
      <point x="89.5" y="0.0"/>
    </contour>
    <contour>
      <point x="819.0666666666667" y="104.0" type="curve" smooth="yes"/>
      <point x="896.0" y="104.0"/>
      <point x="950.4" y="153.26666666666665"/>
      <point x="950.4" y="243.63333333333333" type="curve" smooth="yes"/>
      <point x="950.4" y="322.6333333333333"/>
      <point x="900.5333333333333" y="371.6333333333333"/>
      <point x="833.4" y="371.6333333333333" type="curve" smooth="yes"/>
      <point x="749.0333333333333" y="371.6333333333333"/>
      <point x="706.3666666666667" y="300.4"/>
      <point x="688.4666666666667" y="234.0" type="curve"/>
      <point x="701.1" y="209.0" type="line"/>
      <point x="721.2666666666668" y="278.4"/>
      <point x="760.5666666666667" y="347.0"/>
      <point x="828.1333333333333" y="347.0" type="curve" smooth="yes"/>
      <point x="885.5333333333333" y="347.0"/>
      <point x="922.7666666666667" y="309.0"/>
      <point x="922.7666666666667" y="240.0" type="curve" smooth="yes"/>
      <point x="922.7666666666667" y="166.0"/>
      <point x="876.7333333333333" y="129.0"/>
      <point x="817.0666666666666" y="129.0" type="curve" smooth="yes"/>
      <point x="749.3000000000001" y="129.0"/>
      <point x="695.8333333333334" y="190.0"/>
      <point x="695.8333333333334" y="287.0" type="curve" smooth="yes"/>
      <point x="695.8333333333334" y="427.6333333333333"/>
      <point x="754.6666666666666" y="527.0"/>
      <point x="886.0" y="527.0" type="curve" smooth="yes"/>
      <point x="981.0" y="527.0"/>
      <point x="1075.2666666666667" y="469.1666666666667"/>
      <point x="1075.2666666666667" y="329.0" type="curve"/>
      <point x="1097.2666666666667" y="330.0" type="line"/>
      <point x="1097.2666666666667" y="493.0"/>
      <point x="993.3666666666667" y="551.0"/>
      <point x="885.6333333333333" y="551.0" type="curve" smooth="yes"/>
      <point x="740.0333333333333" y="551.0"/>
      <point x="668.5666666666666" y="436.3666666666667"/>
      <point x="668.5666666666666" y="289.0" type="curve" smooth="yes"/>
      <point x="668.5666666666666" y="180.0"/>
      <point x="733.3" y="104.0"/>
    </contour>
    <contour>
      <point x="1075.2666666666667" y="107.0" type="line"/>
      <point x="1103.6333333333334" y="107.0" type="line"/>
      <point x="1103.6333333333334" y="519.0" type="line"/>
      <point x="1310.6000000000001" y="519.0" type="line"/>
      <point x="1310.6000000000001" y="107.0" type="line"/>
      <point x="1338.6000000000001" y="107.0" type="line"/>
      <point x="1338.6000000000001" y="519.0" type="line"/>
      <point x="1467.1" y="519.0" type="line"/>
      <point x="1467.1" y="542.0" type="line"/>
      <point x="1075.6333333333334" y="542.0" type="line"/>
      <point x="1075.6333333333334" y="416.0" type="line"/>
      <point x="1075.2666666666667" y="395.0" type="line"/>
    </contour>
  </outline>
</glyph>
<glyph name="ee-tamil" format="2">
  <advance width="769.2666666666668"/>
  <unicode hex="0B8F"/>
  <note>
uni0B8F
</note>
  <anchor x="404.1" y="0.0" name="bottom"/>
  <anchor x="405.1" y="-186.2" name="nukta"/>
  <anchor x="406.8333333333333" y="542.0" name="top"/>
  <anchor x="407.1" y="542.0" name="vedic"/>
  <outline>
    <contour>
      <point x="416.23333333333335" y="-203.23333333333335" type="line"/>
      <point x="589.6" y="-2.2666666666666666" type="line"/>
      <point x="589.6" y="519.0" type="line"/>
      <point x="743.0" y="519.0" type="line"/>
      <point x="743.0" y="542.0" type="line"/>
      <point x="367.0" y="542.0" type="line" smooth="yes"/>
      <point x="153.9" y="542.0"/>
      <point x="62.333333333333336" y="403.3333333333333"/>
      <point x="62.333333333333336" y="230.0" type="curve" smooth="yes"/>
      <point x="62.333333333333336" y="92.06666666666666"/>
      <point x="124.26666666666667" y="-3.9999999999999996"/>
      <point x="229.26666666666668" y="-3.9999999999999996" type="curve" smooth="yes"/>
      <point x="311.93333333333334" y="-3.9999999999999996"/>
      <point x="369.7" y="51.0"/>
      <point x="369.7" y="146.0" type="curve" smooth="yes"/>
      <point x="369.7" y="233.0"/>
      <point x="312.3" y="283.0"/>
      <point x="241.96666666666667" y="283.0" type="curve" smooth="yes"/>
      <point x="154.13333333333333" y="283.0"/>
      <point x="108.1" y="212.39999999999998"/>
      <point x="87.76666666666667" y="143.63333333333335" type="curve"/>
      <point x="98.66666666666667" y="116.06666666666666" type="line"/>
      <point x="123.73333333333333" y="191.66666666666666"/>
      <point x="163.60000000000002" y="258.0"/>
      <point x="237.06666666666666" y="258.0" type="curve" smooth="yes"/>
      <point x="300.4666666666667" y="258.0"/>
      <point x="342.06666666666666" y="215.0"/>
      <point x="342.06666666666666" y="142.0" type="curve" smooth="yes"/>
      <point x="342.06666666666666" y="62.0"/>
      <point x="291.20000000000005" y="21.0"/>
      <point x="226.36666666666665" y="21.0" type="curve" smooth="yes"/>
      <point x="141.10000000000002" y="21.0"/>
      <point x="89.96666666666667" y="102.86666666666666"/>
      <point x="89.96666666666667" y="229.0" type="curve" smooth="yes"/>
      <point x="89.96666666666667" y="392.7"/>
      <point x="179.36666666666667" y="519.0"/>
      <point x="361.93333333333334" y="519.0" type="curve" smooth="yes"/>
      <point x="560.6" y="519.0" type="line"/>
      <point x="560.6" y="5.0" type="line"/>
      <point x="396.5" y="-185.7" type="line"/>
    </contour>
  </outline>
</glyph>
<glyph name="ai-tamil" format="2">
  <advance width="867.6"/>
  <unicode hex="0B90"/>
  <note>
uni0B90
</note>
  <anchor x="451.2333333333333" y="0.0" name="bottom"/>
  <anchor x="450.8666666666667" y="-278.0" name="nukta"/>
  <anchor x="454.3333333333333" y="542.0" name="top"/>
  <anchor x="455.33333333333337" y="542.0" name="vedic"/>
  <outline>
    <contour>
      <point x="257.23333333333335" y="-278.0" type="curve" smooth="yes"/>
      <point x="363.5" y="-278.0"/>
      <point x="423.90000000000003" y="-220.83333333333334"/>
      <point x="452.23333333333335" y="-154.66666666666669" type="curve"/>
      <point x="477.6666666666667" y="-221.83333333333334"/>
      <point x="532.0666666666666" y="-278.0"/>
      <point x="621.4333333333334" y="-278.0" type="curve" smooth="yes"/>
      <point x="721.8000000000001" y="-278.0"/>
      <point x="805.2666666666667" y="-214.73333333333335"/>
      <point x="805.2666666666667" y="-92.0" type="curve" smooth="yes"/>
      <point x="805.2666666666667" y="-26.0"/>
      <point x="780.0" y="25.733333333333334"/>
      <point x="736.3333333333334" y="80.26666666666667" type="curve"/>
      <point x="714.9666666666667" y="63.36666666666666" type="line"/>
      <point x="749.5666666666666" y="21.266666666666666"/>
      <point x="777.2666666666667" y="-35.0"/>
      <point x="777.2666666666667" y="-92.0" type="curve" smooth="yes"/>
      <point x="777.2666666666667" y="-192.73333333333335"/>
      <point x="710.1666666666667" y="-254.0"/>
      <point x="623.4333333333334" y="-254.0" type="curve" smooth="yes"/>
      <point x="521.9" y="-254.0"/>
      <point x="467.6" y="-179.83333333333334"/>
      <point x="467.6" y="-75.66666666666667" type="curve" smooth="yes"/>
      <point x="467.6" y="-8.0" type="line"/>
      <point x="441.5" y="-8.0" type="line"/>
      <point x="441.5" y="-92.66666666666667" type="line" smooth="yes"/>
      <point x="441.5" y="-166.46666666666667"/>
      <point x="373.03333333333336" y="-254.0"/>
      <point x="260.8666666666667" y="-254.0" type="curve" smooth="yes"/>
      <point x="163.96666666666667" y="-254.0"/>
      <point x="102.13333333333334" y="-200.83333333333334"/>
      <point x="102.13333333333334" y="-100.73333333333333" type="curve" smooth="yes"/>
      <point x="102.13333333333334" y="21.633333333333333"/>
      <point x="184.9" y="64.0"/>
      <point x="452.3333333333333" y="90.0" type="curve" smooth="yes"/>
      <point x="668.2" y="111.0"/>
      <point x="804.9000000000001" y="167.46666666666667"/>
      <point x="804.9000000000001" y="352.0" type="curve" smooth="yes"/>
      <point x="804.9000000000001" y="473.23333333333335"/>
      <point x="736.3000000000001" y="551.0"/>
      <point x="626.8666666666667" y="551.0" type="curve" smooth="yes"/>
      <point x="528.3333333333334" y="551.0"/>
      <point x="478.6666666666667" y="493.56666666666666"/>
      <point x="453.6" y="428.4" type="curve"/>
      <point x="425.5333333333333" y="494.8333333333333"/>
      <point x="372.4" y="551.0"/>
      <point x="268.23333333333335" y="551.0" type="curve" smooth="yes"/>
      <point x="135.06666666666666" y="551.0"/>
      <point x="62.333333333333336" y="458.0"/>
      <point x="62.333333333333336" y="351.0" type="curve" smooth="yes"/>
      <point x="62.333333333333336" y="239.0"/>
      <point x="111.2" y="164.0"/>
      <point x="198.93333333333334" y="164.0" type="curve" smooth="yes"/>
      <point x="261.23333333333335" y="164.0"/>
      <point x="312.83333333333337" y="206.53333333333333"/>
      <point x="312.83333333333337" y="286.0" type="curve" smooth="yes"/>
      <point x="312.83333333333337" y="352.8333333333333"/>
      <point x="270.96666666666664" y="398.0"/>
      <point x="212.1" y="398.0" type="curve" smooth="yes"/>
      <point x="141.70000000000002" y="398.0"/>
      <point x="101.2" y="335.9"/>
      <point x="86.5" y="266.53333333333336" type="curve"/>
      <point x="102.76666666666667" y="245.9" type="line"/>
      <point x="120.73333333333333" y="319.26666666666665"/>
      <point x="151.43333333333334" y="374.0"/>
      <point x="208.46666666666667" y="374.0" type="curve" smooth="yes"/>
      <point x="255.59999999999997" y="374.0"/>
      <point x="285.2" y="337.8333333333333"/>
      <point x="285.2" y="283.0" type="curve" smooth="yes"/>
      <point x="285.2" y="223.9"/>
      <point x="247.6" y="190.0"/>
      <point x="195.29999999999998" y="190.0" type="curve" smooth="yes"/>
      <point x="129.1" y="190.0"/>
      <point x="89.96666666666667" y="248.0"/>
      <point x="89.96666666666667" y="347.0" type="curve" smooth="yes"/>
      <point x="89.96666666666667" y="442.0"/>
      <point x="152.6" y="526.0"/>
      <point x="263.23333333333335" y="526.0" type="curve" smooth="yes"/>
      <point x="373.6666666666667" y="526.0"/>
      <point x="441.5" y="453.56666666666666"/>
      <point x="441.5" y="349.03333333333336" type="curve" smooth="yes"/>
      <point x="441.5" y="208.0" type="line"/>
      <point x="467.6" y="208.0" type="line"/>
      <point x="467.6" y="366.4" type="line" smooth="yes"/>
      <point x="467.6" y="439.56666666666666"/>
      <point x="521.3333333333334" y="527.0"/>
      <point x="623.5" y="527.0" type="curve" smooth="yes"/>
      <point x="721.4000000000001" y="527.0"/>
      <point x="774.2666666666667" y="454.6"/>
      <point x="774.2666666666667" y="355.0" type="curve" smooth="yes"/>
      <point x="774.2666666666667" y="195.0"/>
      <point x="676.0" y="134.0"/>
      <point x="431.7" y="111.0" type="curve" smooth="yes"/>
      <point x="163.16666666666666" y="86.0"/>
      <point x="72.13333333333334" y="34.166666666666664"/>
      <point x="72.13333333333334" y="-97.73333333333333" type="curve" smooth="yes"/>
      <point x="72.13333333333334" y="-215.46666666666667"/>
      <point x="146.96666666666667" y="-278.0"/>
    </contour>
  </outline>
</glyph>
<glyph name="o-tamil" format="2">
  <advance width="880.5"/>
  <unicode hex="0B92"/>
  <note>
uni0B92
</note>
  <anchor x="442.3666666666667" y="0.0" name="bottom"/>
  <anchor x="440.3666666666667" y="-335.0" name="nukta"/>
  <anchor x="435.3666666666667" y="542.0" name="top"/>
  <anchor x="435.3666666666667" y="542.0" name="vedic"/>
  <outline>
    <contour>
      <point x="327.3666666666667" y="-287.53333333333336" type="curve" smooth="yes"/>
      <point x="479.03333333333336" y="-287.53333333333336"/>
      <point x="511.8333333333333" y="-124.3"/>
      <point x="678.0333333333334" y="-124.3" type="curve" smooth="yes"/>
      <point x="695.1" y="-124.3" type="line"/>
      <point x="695.1" y="-100.3" type="line"/>
      <point x="668.5" y="-100.3" type="line" smooth="yes"/>
      <point x="518.5666666666667" y="-100.3"/>
      <point x="405.8666666666667" y="45.16666666666667"/>
      <point x="546.3000000000001" y="229.03333333333333" type="curve"/>
      <point x="551.5666666666667" y="225.76666666666665" type="line"/>
      <point x="511.5333333333333" y="131.5"/>
      <point x="532.9666666666667" y="-5.0"/>
      <point x="660.5666666666667" y="-5.0" type="curve" smooth="yes"/>
      <point x="750.6999999999999" y="-5.0"/>
      <point x="818.1666666666666" y="64.9"/>
      <point x="818.1666666666666" y="203.73333333333332" type="curve" smooth="yes"/>
      <point x="818.1666666666666" y="424.73333333333335"/>
      <point x="634.6" y="551.0"/>
      <point x="421.3666666666667" y="551.0" type="curve" smooth="yes"/>
      <point x="207.0" y="551.0"/>
      <point x="62.333333333333336" y="409.6666666666667"/>
      <point x="62.333333333333336" y="229.36666666666665" type="curve" smooth="yes"/>
      <point x="62.333333333333336" y="91.43333333333334"/>
      <point x="131.86666666666667" y="-4.0"/>
      <point x="233.70000000000002" y="-4.0" type="curve" smooth="yes"/>
      <point x="317.0" y="-4.0"/>
      <point x="374.1333333333333" y="52.266666666666666"/>
      <point x="374.1333333333333" y="147.26666666666665" type="curve" smooth="yes"/>
      <point x="374.1333333333333" y="233.63333333333333"/>
      <point x="316.73333333333335" y="283.0"/>
      <point x="247.03333333333333" y="283.0" type="curve" smooth="yes"/>
      <point x="158.56666666666666" y="283.0"/>
      <point x="109.36666666666666" y="213.66666666666666"/>
      <point x="89.03333333333333" y="144.26666666666668" type="curve"/>
      <point x="99.93333333333334" y="116.7" type="line"/>
      <point x="125.0" y="192.93333333333334"/>
      <point x="168.66666666666669" y="258.0"/>
      <point x="242.13333333333333" y="258.0" type="curve" smooth="yes"/>
      <point x="304.90000000000003" y="258.0"/>
      <point x="346.5" y="216.26666666666665"/>
      <point x="346.5" y="143.26666666666668" type="curve" smooth="yes"/>
      <point x="346.5" y="63.266666666666666"/>
      <point x="296.90000000000003" y="21.0"/>
      <point x="232.06666666666666" y="21.0" type="curve" smooth="yes"/>
      <point x="149.96666666666667" y="21.0"/>
      <point x="89.96666666666667" y="99.06666666666666"/>
      <point x="89.96666666666667" y="227.73333333333332" type="curve" smooth="yes"/>
      <point x="89.96666666666667" y="398.40000000000003"/>
      <point x="229.36666666666667" y="527.0"/>
      <point x="418.8333333333333" y="527.0" type="curve" smooth="yes"/>
      <point x="613.4333333333333" y="527.0"/>
      <point x="788.1666666666667" y="406.73333333333335"/>
      <point x="788.1666666666667" y="208.36666666666667" type="curve" smooth="yes"/>
      <point x="788.1666666666667" y="82.26666666666667"/>
      <point x="735.2333333333333" y="21.0"/>
      <point x="656.9333333333333" y="21.0" type="curve" smooth="yes"/>
      <point x="556.7666666666667" y="21.0"/>
      <point x="531.0" y="147.63333333333333"/>
      <point x="586.4666666666667" y="251.96666666666667" type="curve"/>
      <point x="550.5333333333334" y="274.0333333333333" type="line"/>
      <point x="372.96666666666664" y="60.03333333333334"/>
      <point x="478.9666666666667" y="-82.76666666666667"/>
      <point x="604.2666666666667" y="-112.93333333333332" type="curve"/>
      <point x="604.2666666666667" y="-116.93333333333332" type="line"/>
      <point x="476.0" y="-138.46666666666667"/>
      <point x="451.3" y="-259.90000000000003"/>
      <point x="324.6333333333334" y="-259.90000000000003" type="curve" smooth="yes"/>
      <point x="256.59999999999997" y="-259.90000000000003"/>
      <point x="224.36666666666667" y="-215.76666666666665"/>
      <point x="224.36666666666667" y="-169.16666666666669" type="curve" smooth="yes"/>
      <point x="224.36666666666667" y="-127.66666666666666"/>
      <point x="237.8" y="-103.23333333333333"/>
      <point x="277.3" y="-74.33333333333333" type="curve"/>
      <point x="261.56666666666666" y="-54.06666666666667" type="line"/>
      <point x="214.16666666666669" y="-88.60000000000001"/>
      <point x="197.36666666666667" y="-118.76666666666667"/>
      <point x="197.36666666666667" y="-168.16666666666669" type="curve" smooth="yes"/>
      <point x="197.36666666666667" y="-232.03333333333333"/>
      <point x="240.96666666666667" y="-287.53333333333336"/>
    </contour>
  </outline>
</glyph>
<glyph name="oo-tamil" format="2">
  <advance width="880.5"/>
  <unicode hex="0B93"/>
  <note>
uni0B93
</note>
  <anchor x="434.6333333333334" y="0.0" name="bottom"/>
  <anchor x="432.6333333333334" y="-270.7" name="nukta"/>
  <anchor x="427.6333333333334" y="542.0" name="top"/>
  <anchor x="427.6333333333334" y="542.0" name="vedic"/>
  <outline>
    <contour>
      <point x="312.1" y="-290.7" type="curve" smooth="yes"/>
      <point x="461.7" y="-290.7"/>
      <point x="502.3333333333333" y="-124.3"/>
      <point x="669.1666666666666" y="-124.3" type="curve" smooth="yes"/>
      <point x="684.1333333333333" y="-124.3" type="line"/>
      <point x="684.1333333333333" y="-100.3" type="line"/>
      <point x="659.0000000000001" y="-100.3" type="line" smooth="yes"/>
      <point x="515.4" y="-100.3"/>
      <point x="409.0333333333333" y="45.16666666666667"/>
      <point x="546.3000000000001" y="229.03333333333333" type="curve"/>
      <point x="551.5666666666667" y="225.76666666666665" type="line"/>
      <point x="511.5333333333333" y="131.5"/>
      <point x="532.9666666666667" y="-5.0"/>
      <point x="660.5666666666667" y="-5.0" type="curve" smooth="yes"/>
      <point x="750.6999999999999" y="-5.0"/>
      <point x="818.1666666666666" y="64.9"/>
      <point x="818.1666666666666" y="203.73333333333332" type="curve" smooth="yes"/>
      <point x="818.1666666666666" y="424.73333333333335"/>
      <point x="634.6" y="551.0"/>
      <point x="421.3666666666667" y="551.0" type="curve" smooth="yes"/>
      <point x="207.0" y="551.0"/>
      <point x="62.333333333333336" y="409.6666666666667"/>
      <point x="62.333333333333336" y="229.36666666666665" type="curve" smooth="yes"/>
      <point x="62.333333333333336" y="91.43333333333334"/>
      <point x="131.86666666666667" y="-4.0"/>
      <point x="233.70000000000002" y="-4.0" type="curve" smooth="yes"/>
      <point x="317.0" y="-4.0"/>
      <point x="374.1333333333333" y="52.266666666666666"/>
      <point x="374.1333333333333" y="147.26666666666665" type="curve" smooth="yes"/>
      <point x="374.1333333333333" y="233.63333333333333"/>
      <point x="316.73333333333335" y="283.0"/>
      <point x="247.03333333333333" y="283.0" type="curve" smooth="yes"/>
      <point x="158.56666666666666" y="283.0"/>
      <point x="109.36666666666666" y="213.66666666666666"/>
      <point x="89.03333333333333" y="144.26666666666668" type="curve"/>
      <point x="99.93333333333334" y="116.7" type="line"/>
      <point x="125.0" y="192.93333333333334"/>
      <point x="168.66666666666669" y="258.0"/>
      <point x="242.13333333333333" y="258.0" type="curve" smooth="yes"/>
      <point x="304.90000000000003" y="258.0"/>
      <point x="346.5" y="216.26666666666665"/>
      <point x="346.5" y="143.26666666666668" type="curve" smooth="yes"/>
      <point x="346.5" y="63.266666666666666"/>
      <point x="296.90000000000003" y="21.0"/>
      <point x="232.06666666666666" y="21.0" type="curve" smooth="yes"/>
      <point x="149.96666666666667" y="21.0"/>
      <point x="89.96666666666667" y="99.06666666666666"/>
      <point x="89.96666666666667" y="227.73333333333332" type="curve" smooth="yes"/>
      <point x="89.96666666666667" y="398.40000000000003"/>
      <point x="229.36666666666667" y="527.0"/>
      <point x="418.8333333333333" y="527.0" type="curve" smooth="yes"/>
      <point x="613.4333333333333" y="527.0"/>
      <point x="788.1666666666667" y="406.73333333333335"/>
      <point x="788.1666666666667" y="208.36666666666667" type="curve" smooth="yes"/>
      <point x="788.1666666666667" y="82.26666666666667"/>
      <point x="735.2333333333333" y="21.0"/>
      <point x="656.9333333333333" y="21.0" type="curve" smooth="yes"/>
      <point x="556.7666666666667" y="21.0"/>
      <point x="531.0" y="147.63333333333333"/>
      <point x="586.4666666666667" y="251.96666666666667" type="curve"/>
      <point x="550.5333333333334" y="274.0333333333333" type="line"/>
      <point x="377.4" y="61.93333333333334"/>
      <point x="475.8" y="-80.86666666666667"/>
      <point x="595.0333333333333" y="-112.93333333333332" type="curve"/>
      <point x="595.0333333333333" y="-116.93333333333332" type="line"/>
      <point x="466.5" y="-138.46666666666667"/>
      <point x="431.8666666666667" y="-263.7"/>
      <point x="309.0" y="-263.7" type="curve" smooth="yes"/>
      <point x="249.8" y="-263.7"/>
      <point x="210.56666666666666" y="-225.46666666666667"/>
      <point x="210.56666666666666" y="-177.96666666666667" type="curve" smooth="yes"/>
      <point x="210.56666666666666" y="-127.1"/>
      <point x="244.53333333333333" y="-96.86666666666667"/>
      <point x="288.09999999999997" y="-96.86666666666667" type="curve" smooth="yes"/>
      <point x="319.9" y="-96.86666666666667"/>
      <point x="343.9666666666667" y="-115.6"/>
      <point x="353.23333333333335" y="-137.23333333333332" type="curve"/>
      <point x="365.1333333333333" y="-129.6"/>
      <point x="373.1333333333333" y="-119.6"/>
      <point x="373.1333333333333" y="-102.6" type="curve" smooth="yes"/>
      <point x="373.1333333333333" y="-76.60000000000001"/>
      <point x="340.33333333333337" y="-58.599999999999994"/>
      <point x="303.0" y="-58.599999999999994" type="curve" smooth="yes"/>
      <point x="227.9" y="-58.599999999999994"/>
      <point x="184.3" y="-114.63333333333334"/>
      <point x="184.3" y="-176.96666666666667" type="curve" smooth="yes"/>
      <point x="184.3" y="-240.83333333333334"/>
      <point x="236.16666666666666" y="-290.7"/>
    </contour>
  </outline>
</glyph>
<glyph name="au-tamil" format="2">
  <advance width="1971.1666666666665"/>
  <unicode hex="0B94"/>
  <note>
uni0B94
</note>
  <anchor x="997.5" y="0.0" name="bottom"/>
  <anchor x="1055.9" y="0.0" name="nukta"/>
  <anchor x="990.5" y="542.0" name="top"/>
  <anchor x="990.5" y="542.0" name="vedic"/>
  <outline>
    <contour>
      <point x="1114.0333333333333" y="-3.9999999999999996" type="curve" smooth="yes"/>
      <point x="1195.9666666666667" y="-3.9999999999999996"/>
      <point x="1253.2" y="51.166666666666664"/>
      <point x="1253.2" y="148.0" type="curve" smooth="yes"/>
      <point x="1253.2" y="234.0"/>
      <point x="1195.0666666666666" y="283.0"/>
      <point x="1126.8333333333335" y="283.0" type="curve" smooth="yes"/>
      <point x="1041.7333333333333" y="283.0"/>
      <point x="992.3333333333333" y="216.86666666666665"/>
      <point x="971.6333333333333" y="144.26666666666668" type="curve"/>
      <point x="983.1666666666666" y="116.06666666666666" type="line"/>
      <point x="1007.9666666666666" y="192.3"/>
      <point x="1047.4666666666667" y="258.0"/>
      <point x="1120.9333333333334" y="258.0" type="curve" smooth="yes"/>
      <point x="1183.6000000000001" y="258.0"/>
      <point x="1225.5666666666668" y="217.0"/>
      <point x="1225.5666666666668" y="144.0" type="curve" smooth="yes"/>
      <point x="1225.5666666666668" y="64.0"/>
      <point x="1176.7" y="21.0"/>
      <point x="1111.1333333333334" y="21.0" type="curve" smooth="yes"/>
      <point x="1026.3999999999999" y="21.0"/>
      <point x="973.8333333333334" y="103.26666666666667"/>
      <point x="973.8333333333334" y="225.1" type="curve" smooth="yes"/>
      <point x="973.8333333333334" y="399.1"/>
      <point x="1063.5666666666668" y="527.0"/>
      <point x="1222.8666666666666" y="527.0" type="curve" smooth="yes"/>
      <point x="1343.7666666666669" y="527.0"/>
      <point x="1452.2666666666667" y="460.6333333333333"/>
      <point x="1452.2666666666667" y="278.6666666666667" type="curve"/>
      <point x="1475.2666666666667" y="279.6666666666667" type="line"/>
      <point x="1474.8999999999999" y="478.53333333333336"/>
      <point x="1361.9666666666667" y="551.0"/>
      <point x="1222.5" y="551.0" type="curve" smooth="yes"/>
      <point x="1044.7333333333333" y="551.0"/>
      <point x="946.1999999999999" y="409.46666666666664"/>
      <point x="946.1999999999999" y="227.1" type="curve" smooth="yes"/>
      <point x="946.1999999999999" y="91.46666666666667"/>
      <point x="1009.0333333333333" y="-3.9999999999999996"/>
    </contour>
    <contour>
      <point x="1452.2666666666667" y="0.0" type="line"/>
      <point x="1480.2666666666667" y="0.0" type="line"/>
      <point x="1480.2666666666667" y="519.0" type="line"/>
      <point x="1732.0" y="519.0" type="line"/>
      <point x="1732.0" y="0.0" type="line"/>
      <point x="1760.3666666666668" y="0.0" type="line"/>
      <point x="1760.3666666666668" y="519.0" type="line"/>
      <point x="1944.9" y="519.0" type="line"/>
      <point x="1944.9" y="542.0" type="line"/>
      <point x="1452.2666666666667" y="542.0" type="line"/>
      <point x="1452.2666666666667" y="383.0" type="line"/>
      <point x="1452.2666666666667" y="357.0" type="line"/>
    </contour>
    <component base="o-tamil"/>
  </outline>
</glyph>
<glyph name="ka-tamil" format="2">
  <advance width="711.7666666666667"/>
  <unicode hex="0B95"/>
  <note>
uni0B95
</note>
  <anchor x="373.73333333333335" y="0.0" name="bottom"/>
  <anchor x="475.1333333333333" y="542.0" name="imatra"/>
  <anchor x="378.73333333333335" y="0.0" name="nukta"/>
  <anchor x="386.3" y="542.0" name="top"/>
  <anchor x="390.6666666666667" y="542.0" name="vedic"/>
  <outline>
    <contour>
      <point x="227.36666666666667" y="-4.0" type="curve" smooth="yes"/>
      <point x="337.6" y="-4.0"/>
      <point x="405.4" y="66.4"/>
      <point x="405.4" y="184.66666666666666" type="curve" smooth="yes"/>
      <point x="405.4" y="275.0" type="line"/>
      <point x="466.2333333333333" y="275.0" type="line" smooth="yes"/>
      <point x="576.1" y="275.0"/>
      <point x="621.8000000000001" y="227.3"/>
      <point x="621.8000000000001" y="148.0" type="curve" smooth="yes"/>
      <point x="621.8000000000001" y="82.4"/>
      <point x="583.0666666666667" y="21.0"/>
      <point x="497.76666666666665" y="21.0" type="curve" smooth="yes"/>
      <point x="457.56666666666666" y="21.0" type="line"/>
      <point x="457.56666666666666" y="-2.0" type="line"/>
      <point x="503.76666666666665" y="-2.0" type="line" smooth="yes"/>
      <point x="585.7333333333333" y="-2.0"/>
      <point x="650.1666666666666" y="47.9"/>
      <point x="650.1666666666666" y="147.0" type="curve" smooth="yes"/>
      <point x="650.1666666666666" y="247.83333333333334"/>
      <point x="594.4666666666667" y="299.0"/>
      <point x="465.23333333333335" y="299.0" type="curve" smooth="yes"/>
      <point x="405.4" y="299.0" type="line"/>
      <point x="405.4" y="519.0" type="line"/>
      <point x="565.6" y="519.0" type="line"/>
      <point x="565.6" y="542.0" type="line"/>
      <point x="173.23333333333335" y="542.0" type="line"/>
      <point x="173.23333333333335" y="284.0" type="line"/>
      <point x="199.23333333333332" y="284.0" type="line"/>
      <point x="199.23333333333332" y="519.0" type="line"/>
      <point x="377.4" y="519.0" type="line"/>
      <point x="377.4" y="299.0" type="line"/>
      <point x="225.36666666666667" y="299.0" type="line" smooth="yes"/>
      <point x="126.16666666666667" y="299.0"/>
      <point x="66.60000000000001" y="228.16666666666666"/>
      <point x="66.60000000000001" y="145.26666666666668" type="curve" smooth="yes"/>
      <point x="66.60000000000001" y="61.266666666666666"/>
      <point x="126.00000000000001" y="-4.0"/>
    </contour>
    <contour>
      <point x="228.63333333333333" y="21.0" type="curve" smooth="yes"/>
      <point x="147.16666666666666" y="21.0"/>
      <point x="98.5" y="73.9"/>
      <point x="98.5" y="147.26666666666668" type="curve" smooth="yes"/>
      <point x="98.5" y="211.8"/>
      <point x="139.9" y="275.0"/>
      <point x="228.73333333333332" y="275.0" type="curve" smooth="yes"/>
      <point x="377.4" y="275.0" type="line"/>
      <point x="377.4" y="181.3" type="line" smooth="yes"/>
      <point x="377.4" y="84.3"/>
      <point x="317.5333333333333" y="21.0"/>
    </contour>
  </outline>
</glyph>
<glyph name="nga-tamil" format="2">
  <advance width="923.7"/>
  <unicode hex="0B99"/>
  <note>
uni0B99
</note>
  <anchor x="466.6666666666667" y="0.0" name="bottom"/>
  <anchor x="522.0666666666666" y="542.0" name="imatra"/>
  <anchor x="466.6666666666667" y="0.0" name="nukta"/>
  <anchor x="468.3" y="542.0" name="top"/>
  <anchor x="464.03333333333336" y="542.0" name="vedic"/>
  <outline>
    <contour>
      <point x="115.26666666666667" y="0.0" type="line"/>
      <point x="141.26666666666668" y="0.0" type="line"/>
      <point x="141.26666666666668" y="519.0" type="line"/>
      <point x="346.0333333333333" y="519.0" type="line"/>
      <point x="346.0333333333333" y="188.0" type="line"/>
      <point x="375.03333333333336" y="188.0" type="line"/>
      <point x="375.03333333333336" y="206.29999999999998" type="line" smooth="yes"/>
      <point x="375.03333333333336" y="257.6666666666667"/>
      <point x="404.73333333333335" y="332.0"/>
      <point x="490.26666666666665" y="332.0" type="curve" smooth="yes"/>
      <point x="553.9333333333334" y="332.0"/>
      <point x="592.7" y="287.53333333333336"/>
      <point x="592.7" y="208.0" type="curve" smooth="yes"/>
      <point x="592.7" y="73.0"/>
      <point x="466.20000000000005" y="23.0"/>
      <point x="408.5" y="23.0" type="curve" smooth="yes"/>
      <point x="346.0333333333333" y="23.0" type="line"/>
      <point x="346.0333333333333" y="0.0" type="line"/>
      <point x="808.8" y="0.0" type="line"/>
      <point x="808.8" y="542.0" type="line"/>
      <point x="780.1666666666666" y="542.0" type="line"/>
      <point x="780.1666666666666" y="23.0" type="line"/>
      <point x="492.8" y="23.0" type="line"/>
      <point x="566.6666666666667" y="53.0"/>
      <point x="622.6999999999999" y="108.0"/>
      <point x="622.6999999999999" y="214.0" type="curve" smooth="yes"/>
      <point x="622.6999999999999" y="304.5333333333333"/>
      <point x="569.0333333333333" y="355.0"/>
      <point x="494.5333333333333" y="355.0" type="curve" smooth="yes"/>
      <point x="425.90000000000003" y="355.0"/>
      <point x="391.09999999999997" y="318.93333333333334"/>
      <point x="375.0333333333333" y="284.66666666666663" type="curve"/>
      <point x="375.0333333333333" y="519.0" type="line"/>
      <point x="558.9333333333334" y="519.0" type="line"/>
      <point x="558.9333333333334" y="542.0" type="line"/>
      <point x="115.26666666666667" y="542.0" type="line"/>
    </contour>
  </outline>
</glyph>
<glyph name="ca-tamil" format="2">
  <advance width="610.7333333333333"/>
  <unicode hex="0B9A"/>
  <note>
uni0B9A
</note>
  <anchor x="324.9" y="0.0" name="bottom"/>
  <anchor x="503.93333333333334" y="542.0" name="imatra"/>
  <anchor x="326.1666666666667" y="0.0" name="nukta"/>
  <anchor x="367.59999999999997" y="542.0" name="top"/>
  <anchor x="332.1666666666667" y="542.0" name="vedic"/>
  <outline>
    <contour>
      <point x="227.36666666666667" y="-4.0" type="curve" smooth="yes"/>
      <point x="338.33333333333337" y="-4.0"/>
      <point x="405.4" y="66.4"/>
      <point x="405.4" y="184.66666666666666" type="curve" smooth="yes"/>
      <point x="405.4" y="275.0" type="line"/>
      <point x="565.6" y="275.0" type="line"/>
      <point x="565.6" y="299.0" type="line"/>
      <point x="405.4" y="299.0" type="line"/>
      <point x="405.4" y="519.0" type="line"/>
      <point x="565.6" y="519.0" type="line"/>
      <point x="565.6" y="542.0" type="line"/>
      <point x="173.23333333333335" y="542.0" type="line"/>
      <point x="173.23333333333335" y="282.73333333333335" type="line"/>
      <point x="199.23333333333332" y="282.73333333333335" type="line"/>
      <point x="199.23333333333332" y="519.0" type="line"/>
      <point x="377.4" y="519.0" type="line"/>
      <point x="377.4" y="299.0" type="line"/>
      <point x="227.20000000000002" y="299.0" type="line" smooth="yes"/>
      <point x="124.33333333333333" y="299.0"/>
      <point x="66.60000000000001" y="226.7"/>
      <point x="66.60000000000001" y="145.26666666666668" type="curve" smooth="yes"/>
      <point x="66.60000000000001" y="61.266666666666666"/>
      <point x="126.00000000000001" y="-4.0"/>
    </contour>
    <contour>
      <point x="228.63333333333333" y="21.0" type="curve" smooth="yes"/>
      <point x="147.16666666666666" y="21.0"/>
      <point x="98.5" y="73.9"/>
      <point x="98.5" y="147.26666666666668" type="curve" smooth="yes"/>
      <point x="98.5" y="211.8"/>
      <point x="138.8" y="275.0"/>
      <point x="230.56666666666666" y="275.0" type="curve" smooth="yes"/>
      <point x="377.4" y="275.0" type="line"/>
      <point x="377.4" y="181.3" type="line" smooth="yes"/>
      <point x="377.4" y="84.3"/>
      <point x="317.5333333333333" y="21.0"/>
    </contour>
  </outline>
</glyph>
<glyph name="tta-tamil" format="2">
  <advance width="787.4"/>
  <unicode hex="0B9F"/>
  <note>
uni0B9F
</note>
  <anchor x="444.8666666666667" y="0.0" name="bottom"/>
  <anchor x="444.8666666666667" y="0.0" name="nukta"/>
  <anchor x="456.59999999999997" y="542.0" name="top"/>
  <anchor x="440.6" y="542.0" name="vedic"/>
  <outline>
    <contour>
      <point x="115.26666666666667" y="0.0" type="line"/>
      <point x="766.6666666666666" y="0.0" type="line"/>
      <point x="766.6666666666666" y="23.0" type="line"/>
      <point x="144.26666666666665" y="23.0" type="line"/>
      <point x="144.26666666666665" y="542.0" type="line"/>
      <point x="115.26666666666667" y="542.0" type="line"/>
    </contour>
  </outline>
</glyph>
<glyph name="ta-tamil" format="2">
  <advance width="713.0333333333333"/>
  <unicode hex="0BA4"/>
  <note>
uni0BA4
</note>
  <anchor x="354.7" y="0.0" name="bottom"/>
  <anchor x="514.7333333333333" y="542.0" name="imatra"/>
  <anchor x="354.7" y="-127.33333333333333" name="nukta"/>
  <anchor x="377.1333333333333" y="542.0" name="top"/>
  <anchor x="361.9666666666667" y="542.0" name="vedic"/>
  <outline>
    <contour>
      <point x="133.46666666666667" y="-195.66666666666666" type="curve"/>
      <point x="133.46666666666667" y="-159.66666666666669"/>
      <point x="152.26666666666665" y="-123.76666666666667"/>
      <point x="201.96666666666667" y="-123.76666666666667" type="curve" smooth="yes"/>
      <point x="387.23333333333335" y="-123.76666666666667" type="line" smooth="yes"/>
      <point x="549.9" y="-123.76666666666667"/>
      <point x="651.4333333333334" y="-52.96666666666667"/>
      <point x="651.4333333333334" y="93.83333333333333" type="curve" smooth="yes"/>
      <point x="651.4333333333334" y="226.1"/>
      <point x="575.1666666666666" y="299.0"/>
      <point x="447.06666666666666" y="299.0" type="curve" smooth="yes"/>
      <point x="405.4" y="299.0" type="line"/>
      <point x="405.4" y="519.0" type="line"/>
      <point x="576.6666666666667" y="519.0" type="line"/>
      <point x="576.6666666666667" y="542.0" type="line"/>
      <point x="173.23333333333335" y="542.0" type="line"/>
      <point x="173.23333333333335" y="284.0" type="line"/>
      <point x="199.23333333333332" y="284.0" type="line"/>
      <point x="199.23333333333332" y="519.0" type="line"/>
      <point x="377.4" y="519.0" type="line"/>
      <point x="377.4" y="299.0" type="line"/>
      <point x="227.20000000000002" y="299.0" type="line" smooth="yes"/>
      <point x="124.33333333333333" y="299.0"/>
      <point x="66.60000000000001" y="226.7"/>
      <point x="66.60000000000001" y="145.26666666666668" type="curve" smooth="yes"/>
      <point x="66.60000000000001" y="61.266666666666666"/>
      <point x="126.00000000000001" y="-4.0"/>
      <point x="227.36666666666667" y="-4.0" type="curve" smooth="yes"/>
      <point x="332.0" y="-4.0"/>
      <point x="405.4" y="66.4"/>
      <point x="405.4" y="184.66666666666666" type="curve" smooth="yes"/>
      <point x="405.4" y="275.0" type="line"/>
      <point x="448.06666666666666" y="275.0" type="line" smooth="yes"/>
      <point x="559.4333333333334" y="275.0"/>
      <point x="623.0666666666667" y="204.1"/>
      <point x="623.0666666666667" y="94.83333333333333" type="curve" smooth="yes"/>
      <point x="623.0666666666667" y="-40.333333333333336"/>
      <point x="523.7333333333333" y="-99.66666666666667"/>
      <point x="382.5" y="-99.66666666666667" type="curve" smooth="yes"/>
      <point x="169.63333333333333" y="-99.66666666666667" type="line" smooth="yes"/>
      <point x="121.3" y="-99.66666666666667"/>
      <point x="91.03333333333333" y="-123.03333333333333"/>
      <point x="91.03333333333333" y="-155.66666666666666" type="curve" smooth="yes"/>
      <point x="91.03333333333333" y="-178.66666666666666"/>
      <point x="106.3" y="-195.66666666666666"/>
    </contour>
    <contour>
      <point x="225.46666666666667" y="21.0" type="curve" smooth="yes"/>
      <point x="144.0" y="21.0"/>
      <point x="98.5" y="73.9"/>
      <point x="98.5" y="147.26666666666668" type="curve" smooth="yes"/>
      <point x="98.5" y="211.8"/>
      <point x="138.8" y="275.0"/>
      <point x="230.56666666666666" y="275.0" type="curve" smooth="yes"/>
      <point x="377.4" y="275.0" type="line"/>
      <point x="377.4" y="181.3" type="line" smooth="yes"/>
      <point x="377.4" y="84.3"/>
      <point x="314.3666666666666" y="21.0"/>
    </contour>
  </outline>
</glyph>
<glyph name="na-tamil" format="2">
  <advance width="702.0666666666667"/>
  <unicode hex="0BA8"/>
  <note>
uni0BA8
</note>
  <anchor x="356.3333333333333" y="0.0" name="bottom"/>
  <anchor x="513.9" y="542.0" name="imatra"/>
  <anchor x="366.1333333333333" y="-163.66666666666666" name="nukta"/>
  <anchor x="377.6666666666667" y="542.0" name="top"/>
  <anchor x="369.5" y="542.0" name="vedic"/>
  <outline>
    <contour>
      <point x="132.83333333333334" y="-195.66666666666666" type="curve"/>
      <point x="132.83333333333334" y="-159.66666666666666"/>
      <point x="151.63333333333333" y="-123.76666666666667"/>
      <point x="201.33333333333334" y="-123.76666666666667" type="curve" smooth="yes"/>
      <point x="346.8666666666667" y="-123.76666666666667" type="line" smooth="yes"/>
      <point x="525.3333333333334" y="-123.76666666666667"/>
      <point x="650.9666666666667" y="-49.63333333333333"/>
      <point x="650.9666666666667" y="146.46666666666667" type="curve" smooth="yes"/>
      <point x="650.9666666666667" y="266.1"/>
      <point x="588.6666666666666" y="328.0"/>
      <point x="509.7333333333333" y="328.0" type="curve" smooth="yes"/>
      <point x="433.0" y="328.0"/>
      <point x="402.56666666666666" y="278.6666666666667"/>
      <point x="389.03333333333336" y="246.39999999999998" type="curve"/>
      <point x="389.03333333333336" y="519.0" type="line"/>
      <point x="571.5666666666666" y="519.0" type="line"/>
      <point x="571.5666666666666" y="542.0" type="line"/>
      <point x="116.73333333333333" y="542.0" type="line"/>
      <point x="116.73333333333333" y="0.0" type="line"/>
      <point x="142.73333333333332" y="0.0" type="line"/>
      <point x="142.73333333333332" y="519.0" type="line"/>
      <point x="360.4" y="519.0" type="line"/>
      <point x="360.4" y="0.0" type="line"/>
      <point x="389.03333333333336" y="0.0" type="line"/>
      <point x="389.03333333333336" y="167.4" type="line" smooth="yes"/>
      <point x="389.03333333333336" y="220.4"/>
      <point x="424.3666666666667" y="304.0"/>
      <point x="504.0" y="304.0" type="curve" smooth="yes"/>
      <point x="571.3000000000001" y="304.0"/>
      <point x="619.3333333333334" y="254.73333333333332"/>
      <point x="619.3333333333334" y="147.46666666666667" type="curve" smooth="yes"/>
      <point x="619.3333333333334" y="-37.63333333333333"/>
      <point x="501.73333333333335" y="-99.66666666666666"/>
      <point x="342.76666666666665" y="-99.66666666666666" type="curve" smooth="yes"/>
      <point x="169.0" y="-99.66666666666666" type="line" smooth="yes"/>
      <point x="120.66666666666666" y="-99.66666666666666"/>
      <point x="90.4" y="-123.03333333333333"/>
      <point x="90.4" y="-155.66666666666666" type="curve" smooth="yes"/>
      <point x="90.4" y="-178.66666666666666"/>
      <point x="105.66666666666666" y="-195.66666666666666"/>
    </contour>
  </outline>
</glyph>
<glyph name="pa-tamil" format="2">
  <advance width="801.1"/>
  <unicode hex="0BAA"/>
  <note>
uni0BAA
</note>
  <anchor x="403.5333333333333" y="0.0" name="bottom"/>
  <anchor x="677.3000000000001" y="542.0" name="imatra"/>
  <anchor x="403.5333333333333" y="0.0" name="nukta"/>
  <anchor x="405.6333333333333" y="542.0" name="top"/>
  <anchor x="400.3666666666667" y="542.0" name="vedic"/>
  <outline>
    <contour>
      <point x="115.26666666666667" y="0.0" type="line"/>
      <point x="686.1999999999999" y="0.0" type="line"/>
      <point x="686.1999999999999" y="542.0" type="line"/>
      <point x="657.2" y="542.0" type="line"/>
      <point x="657.2" y="23.0" type="line"/>
      <point x="144.26666666666665" y="23.0" type="line"/>
      <point x="144.26666666666665" y="542.0" type="line"/>
      <point x="115.26666666666667" y="542.0" type="line"/>
    </contour>
  </outline>
</glyph>
<glyph name="ma-tamil" format="2">
  <advance width="812.4666666666667"/>
  <unicode hex="0BAE"/>
  <note>
uni0BAE
</note>
  <anchor x="412.90000000000003" y="0.0" name="bottom"/>
  <anchor x="736.3" y="542.0" name="imatra"/>
  <anchor x="413.90000000000003" y="0.0" name="nukta"/>
  <anchor x="433.8" y="542.0" name="top"/>
  <anchor x="431.7" y="542.0" name="vedic"/>
  <outline>
    <contour>
      <point x="115.26666666666667" y="0.0" type="line"/>
      <point x="601.1" y="0.0" type="line" smooth="yes"/>
      <point x="701.7666666666667" y="0.0"/>
      <point x="748.5" y="77.0"/>
      <point x="748.5" y="212.0" type="curve" smooth="yes"/>
      <point x="748.5" y="409.03333333333336"/>
      <point x="682.2666666666667" y="551.0"/>
      <point x="545.1" y="551.0" type="curve" smooth="yes"/>
      <point x="448.73333333333335" y="551.0"/>
      <point x="415.8" y="481.40000000000003"/>
      <point x="415.8" y="380.4666666666667" type="curve" smooth="yes"/>
      <point x="415.8" y="23.0" type="line"/>
      <point x="144.26666666666665" y="23.0" type="line"/>
      <point x="144.26666666666665" y="542.0" type="line"/>
      <point x="115.26666666666667" y="542.0" type="line"/>
    </contour>
    <contour>
      <point x="444.79999999999995" y="23.0" type="line"/>
      <point x="444.79999999999995" y="380.4666666666667" type="line" smooth="yes"/>
      <point x="444.79999999999995" y="472.8666666666667"/>
      <point x="469.8333333333333" y="526.6333333333333"/>
      <point x="545.9333333333334" y="526.6333333333333" type="curve" smooth="yes"/>
      <point x="660.3666666666667" y="526.6333333333333"/>
      <point x="721.2333333333333" y="391.29999999999995"/>
      <point x="721.2333333333333" y="210.0" type="curve" smooth="yes"/>
      <point x="721.2333333333333" y="90.0"/>
      <point x="679.2333333333333" y="23.0"/>
      <point x="596.3666666666667" y="23.0" type="curve" smooth="yes"/>
    </contour>
  </outline>
</glyph>
<glyph name="ya-tamil" format="2">
  <advance width="847.3333333333334"/>
  <unicode hex="0BAF"/>
  <note>
uni0BAF
</note>
  <anchor x="438.43333333333334" y="0.0" name="bottom"/>
  <anchor x="724.2666666666667" y="542.0" name="imatra"/>
  <anchor x="438.43333333333334" y="0.0" name="nukta"/>
  <anchor x="438.43333333333334" y="542.0" name="top"/>
  <anchor x="423.90000000000003" y="542.0" name="vedic"/>
  <outline>
    <contour>
      <point x="231.96666666666667" y="-5.0" type="curve" smooth="yes"/>
      <point x="285.73333333333335" y="-5.0"/>
      <point x="323.43333333333334" y="25.333333333333336"/>
      <point x="343.8666666666667" y="66.23333333333333" type="curve"/>
      <point x="343.8666666666667" y="0.0" type="line"/>
      <point x="732.4333333333333" y="0.0" type="line"/>
      <point x="732.4333333333333" y="542.0" type="line"/>
      <point x="703.1666666666667" y="542.0" type="line"/>
      <point x="703.1666666666667" y="23.0" type="line"/>
      <point x="370.8666666666667" y="23.0" type="line"/>
      <point x="370.8666666666667" y="542.0" type="line"/>
      <point x="341.8666666666667" y="542.0" type="line"/>
      <point x="341.8666666666667" y="137.33333333333331" type="line" smooth="yes"/>
      <point x="341.8666666666667" y="76.33333333333333"/>
      <point x="296.1" y="21.0"/>
      <point x="234.06666666666666" y="21.0" type="curve" smooth="yes"/>
      <point x="176.76666666666665" y="21.0"/>
      <point x="143.16666666666666" y="58.6"/>
      <point x="143.16666666666666" y="130.96666666666667" type="curve" smooth="yes"/>
      <point x="143.16666666666666" y="542.0" type="line"/>
      <point x="114.53333333333333" y="542.0" type="line"/>
      <point x="114.53333333333333" y="135.6" type="line" smooth="yes"/>
      <point x="114.53333333333333" y="41.96666666666667"/>
      <point x="163.3" y="-5.0"/>
    </contour>
  </outline>
</glyph>
<glyph name="ra-tamil" format="2">
  <advance width="621.4333333333333"/>
  <unicode hex="0BB0"/>
  <note>
uni0BB0
</note>
  <anchor x="332.23333333333335" y="0.0" name="bottom"/>
  <anchor x="537.1333333333333" y="542.0" name="imatra"/>
  <anchor x="329.6" y="-165.0" name="nukta"/>
  <anchor x="347.1333333333333" y="542.0" name="top"/>
  <anchor x="350.76666666666665" y="542.0" name="vedic"/>
  <outline>
    <contour>
      <point x="237.26666666666668" y="-203.23333333333335" type="line"/>
      <point x="410.90000000000003" y="-2.2666666666666666" type="line"/>
      <point x="410.90000000000003" y="519.0" type="line"/>
      <point x="595.1666666666667" y="519.0" type="line"/>
      <point x="595.1666666666667" y="542.0" type="line"/>
      <point x="115.26666666666667" y="542.0" type="line"/>
      <point x="115.26666666666667" y="0.0" type="line"/>
      <point x="141.26666666666665" y="0.0" type="line"/>
      <point x="141.26666666666665" y="519.0" type="line"/>
      <point x="382.26666666666665" y="519.0" type="line"/>
      <point x="382.26666666666665" y="5.0" type="line"/>
      <point x="217.8" y="-185.7" type="line"/>
    </contour>
  </outline>
</glyph>
<glyph name="rra-tamil" format="2">
  <advance width="771.5999999999999"/>
  <unicode hex="0BB1"/>
  <note>
uni0BB1
</note>
  <anchor x="379.5" y="0.0" name="bottom"/>
  <anchor x="395.46666666666664" y="-131.0" name="nukta"/>
  <anchor x="389.1" y="542.0" name="top"/>
  <anchor x="400.46666666666664" y="542.0" name="vedic"/>
  <outline>
    <contour>
      <point x="139.2" y="-196.03333333333333" type="curve"/>
      <point x="139.2" y="-160.03333333333333"/>
      <point x="157.0" y="-124.03333333333335"/>
      <point x="207.33333333333331" y="-124.03333333333335" type="curve" smooth="yes"/>
      <point x="350.8666666666667" y="-124.03333333333335" type="line" smooth="yes"/>
      <point x="553.6666666666666" y="-124.03333333333335"/>
      <point x="707.3666666666667" y="-23.9"/>
      <point x="707.3666666666667" y="262.8333333333333" type="curve" smooth="yes"/>
      <point x="707.3666666666667" y="433.16666666666663"/>
      <point x="639.0" y="551.0"/>
      <point x="499.73333333333335" y="551.0" type="curve" smooth="yes"/>
      <point x="412.83333333333337" y="551.0"/>
      <point x="375.4" y="501.8666666666666"/>
      <point x="359.8666666666667" y="464.6" type="curve"/>
      <point x="346.7" y="503.6"/>
      <point x="313.6333333333333" y="551.0"/>
      <point x="240.16666666666666" y="551.0" type="curve" smooth="yes"/>
      <point x="160.86666666666667" y="551.0"/>
      <point x="114.10000000000001" y="493.8666666666667"/>
      <point x="114.10000000000001" y="400.7" type="curve" smooth="yes"/>
      <point x="114.10000000000001" y="0.0" type="line"/>
      <point x="140.1" y="0.0" type="line"/>
      <point x="140.1" y="406.3333333333333" type="line" smooth="yes"/>
      <point x="140.1" y="479.23333333333335"/>
      <point x="176.5" y="527.0"/>
      <point x="240.16666666666666" y="527.0" type="curve" smooth="yes"/>
      <point x="301.7333333333333" y="527.0"/>
      <point x="343.2333333333333" y="481.3333333333333"/>
      <point x="343.2333333333333" y="407.7" type="curve" smooth="yes"/>
      <point x="343.2333333333333" y="0.0" type="line"/>
      <point x="372.23333333333335" y="0.0" type="line"/>
      <point x="372.23333333333335" y="406.7" type="line" smooth="yes"/>
      <point x="372.23333333333335" y="482.8666666666666"/>
      <point x="428.0" y="527.0"/>
      <point x="499.3666666666667" y="527.0" type="curve" smooth="yes"/>
      <point x="590.4666666666667" y="527.0"/>
      <point x="677.3666666666667" y="460.79999999999995"/>
      <point x="677.3666666666667" y="263.8333333333333" type="curve" smooth="yes"/>
      <point x="677.3666666666667" y="-11.9"/>
      <point x="530.7666666666667" y="-98.4"/>
      <point x="339.33333333333337" y="-98.4" type="curve" smooth="yes"/>
      <point x="175.0" y="-98.4" type="line" smooth="yes"/>
      <point x="127.03333333333333" y="-98.4"/>
      <point x="96.4" y="-123.4"/>
      <point x="96.4" y="-156.03333333333333" type="curve" smooth="yes"/>
      <point x="96.4" y="-179.03333333333333"/>
      <point x="112.03333333333333" y="-196.03333333333333"/>
    </contour>
  </outline>
</glyph>
<glyph name="la-tamil" format="2">
  <advance width="911.9333333333334"/>
  <unicode hex="0BB2"/>
  <note>
uni0BB2
</note>
  <anchor x="461.90000000000003" y="0.0" name="bottom"/>
  <anchor x="461.90000000000003" y="0.0" name="nukta"/>
  <anchor x="471.1333333333333" y="542.0" name="top"/>
  <anchor x="459.2333333333333" y="542.0" name="vedic"/>
  <outline>
    <contour>
      <point x="229.26666666666665" y="-3.9999999999999996" type="curve" smooth="yes"/>
      <point x="311.93333333333334" y="-3.9999999999999996"/>
      <point x="369.7" y="51.0"/>
      <point x="369.7" y="146.0" type="curve" smooth="yes"/>
      <point x="369.7" y="233.0"/>
      <point x="312.3" y="283.0"/>
      <point x="241.96666666666667" y="283.0" type="curve" smooth="yes"/>
      <point x="154.13333333333333" y="283.0"/>
      <point x="108.10000000000001" y="212.39999999999998"/>
      <point x="87.76666666666667" y="143.63333333333335" type="curve"/>
      <point x="98.66666666666667" y="116.06666666666666" type="line"/>
      <point x="123.73333333333333" y="191.66666666666666"/>
      <point x="163.6" y="258.0"/>
      <point x="237.06666666666666" y="258.0" type="curve" smooth="yes"/>
      <point x="300.4666666666667" y="258.0"/>
      <point x="342.06666666666666" y="215.0"/>
      <point x="342.06666666666666" y="142.0" type="curve" smooth="yes"/>
      <point x="342.06666666666666" y="62.0"/>
      <point x="291.20000000000005" y="21.0"/>
      <point x="226.36666666666667" y="21.0" type="curve" smooth="yes"/>
      <point x="141.1" y="21.0"/>
      <point x="89.96666666666667" y="102.86666666666666"/>
      <point x="89.96666666666667" y="229.0" type="curve" smooth="yes"/>
      <point x="89.96666666666667" y="392.7"/>
      <point x="165.5666666666667" y="527.0"/>
      <point x="320.4666666666667" y="527.0" type="curve" smooth="yes"/>
      <point x="431.5333333333333" y="527.0"/>
      <point x="509.90000000000003" y="462.56666666666666"/>
      <point x="509.90000000000003" y="328.6333333333333" type="curve" smooth="yes"/>
      <point x="509.90000000000003" y="148.5" type="line" smooth="yes"/>
      <point x="509.90000000000003" y="54.6"/>
      <point x="551.1333333333333" y="-4.0"/>
      <point x="640.8666666666667" y="-4.0" type="curve" smooth="yes"/>
      <point x="749.6" y="-4.0"/>
      <point x="848.3333333333334" y="103.73333333333333"/>
      <point x="848.3333333333334" y="284.0" type="curve" smooth="yes"/>
      <point x="848.3333333333334" y="384.0"/>
      <point x="822.2666666666667" y="465.73333333333335"/>
      <point x="749.6999999999999" y="547.7333333333333" type="curve"/>
      <point x="727.6" y="530.0999999999999" type="line"/>
      <point x="788.0" y="464.1"/>
      <point x="820.3333333333334" y="393.0"/>
      <point x="820.3333333333334" y="284.0" type="curve" smooth="yes"/>
      <point x="820.3333333333334" y="117.36666666666667"/>
      <point x="730.2333333333333" y="20.0"/>
      <point x="642.2333333333333" y="20.0" type="curve" smooth="yes"/>
      <point x="565.8666666666667" y="20.0"/>
      <point x="538.9" y="70.60000000000001"/>
      <point x="538.9" y="146.86666666666667" type="curve" smooth="yes"/>
      <point x="538.9" y="327.0" type="line" smooth="yes"/>
      <point x="538.9" y="484.56666666666666"/>
      <point x="446.1666666666667" y="551.0"/>
      <point x="320.8333333333333" y="551.0" type="curve" smooth="yes"/>
      <point x="148.36666666666667" y="551.0"/>
      <point x="62.333333333333336" y="403.33333333333337"/>
      <point x="62.333333333333336" y="230.0" type="curve" smooth="yes"/>
      <point x="62.333333333333336" y="92.06666666666666"/>
      <point x="124.26666666666667" y="-3.9999999999999996"/>
    </contour>
  </outline>
</glyph>
<glyph name="llla-tamil" format="2">
  <advance width="812.4666666666667"/>
  <unicode hex="0BB4"/>
  <note>
uni0BB4
</note>
  <anchor x="414.93333333333334" y="0.0" name="bottom"/>
  <anchor x="419.33333333333337" y="-268.03333333333336" name="nukta"/>
  <anchor x="448.8666666666667" y="542.0" name="top"/>
  <anchor x="432.06666666666666" y="542.0" name="vedic"/>
  <anchor x="736.3" y="542.0" name="imatra"/>
  <outline>
    <contour>
      <point x="276.93333333333334" y="-305.06666666666666" type="curve" smooth="yes"/>
      <point x="414.1666666666667" y="-305.06666666666666"/>
      <point x="467.79999999999995" y="-141.46666666666667"/>
      <point x="615.9" y="-141.46666666666667" type="curve" smooth="yes"/>
      <point x="672.6666666666666" y="-141.46666666666667" type="line"/>
      <point x="672.6666666666666" y="-118.46666666666667" type="line"/>
      <point x="605.0" y="-118.46666666666667" type="line" smooth="yes"/>
      <point x="513.0" y="-118.46666666666667"/>
      <point x="444.1666666666667" y="-58.03333333333333"/>
      <point x="444.1666666666667" y="5.0" type="curve" smooth="yes"/>
      <point x="444.1666666666667" y="47.0" type="line"/>
      <point x="416.43333333333334" y="47.0" type="line"/>
      <point x="416.43333333333334" y="5.0" type="line" smooth="yes"/>
      <point x="416.43333333333334" y="-60.03333333333333"/>
      <point x="481.4666666666667" y="-118.36666666666667"/>
      <point x="549.4" y="-130.1" type="curve"/>
      <point x="549.4" y="-135.1" type="line"/>
      <point x="435.8666666666667" y="-157.46666666666667"/>
      <point x="389.1" y="-277.7"/>
      <point x="275.3" y="-277.7" type="curve" smooth="yes"/>
      <point x="213.83333333333334" y="-277.7"/>
      <point x="179.76666666666668" y="-238.83333333333331"/>
      <point x="179.76666666666668" y="-189.23333333333332" type="curve" smooth="yes"/>
      <point x="179.76666666666668" y="-139.89999999999998"/>
      <point x="211.73333333333335" y="-99.66666666666667"/>
      <point x="263.76666666666665" y="-99.66666666666667" type="curve" smooth="yes"/>
      <point x="298.3666666666667" y="-99.66666666666667"/>
      <point x="321.43333333333334" y="-112.93333333333334"/>
      <point x="350.4" y="-140.83333333333334" type="curve"/>
      <point x="367.1333333333333" y="-123.2" type="line"/>
      <point x="330.53333333333336" y="-84.56666666666666"/>
      <point x="296.73333333333335" y="-75.66666666666666"/>
      <point x="262.40000000000003" y="-75.66666666666666" type="curve" smooth="yes"/>
      <point x="197.26666666666665" y="-75.66666666666666"/>
      <point x="152.86666666666667" y="-128.53333333333333"/>
      <point x="152.86666666666667" y="-188.23333333333332" type="curve" smooth="yes"/>
      <point x="152.86666666666667" y="-256.4666666666667"/>
      <point x="198.46666666666667" y="-305.06666666666666"/>
    </contour>
    <component base="ma-tamil"/>
  </outline>
</glyph>
<glyph name="va-tamil" format="2">
  <advance width="1033.7"/>
  <unicode hex="0BB5"/>
  <note>
uni0BB5
</note>
  <anchor x="519.1" y="0.0" name="bottom"/>
  <anchor x="895.9666666666667" y="542.0" name="imatra"/>
  <anchor x="519.1" y="0.0" name="nukta"/>
  <anchor x="512.5333333333334" y="542.0" name="top"/>
  <anchor x="505.90000000000003" y="542.0" name="vedic"/>
  <outline>
    <contour>
      <point x="228.53333333333333" y="-3.9999999999999996" type="curve" smooth="yes"/>
      <point x="310.83333333333337" y="-3.9999999999999996"/>
      <point x="369.3333333333333" y="49.9"/>
      <point x="369.3333333333333" y="146.73333333333332" type="curve" smooth="yes"/>
      <point x="369.3333333333333" y="233.36666666666667"/>
      <point x="311.2" y="283.0"/>
      <point x="242.33333333333334" y="283.0" type="curve" smooth="yes"/>
      <point x="155.96666666666667" y="283.0"/>
      <point x="108.46666666666667" y="214.96666666666667"/>
      <point x="87.76666666666667" y="143.63333333333335" type="curve"/>
      <point x="98.66666666666667" y="116.06666666666666" type="line"/>
      <point x="123.73333333333333" y="191.66666666666666"/>
      <point x="163.6" y="258.0"/>
      <point x="237.06666666666666" y="258.0" type="curve" smooth="yes"/>
      <point x="299.73333333333335" y="258.0"/>
      <point x="341.7" y="215.73333333333332"/>
      <point x="341.7" y="142.73333333333332" type="curve" smooth="yes"/>
      <point x="341.7" y="62.733333333333334"/>
      <point x="291.56666666666666" y="21.0"/>
      <point x="226.0" y="21.0" type="curve" smooth="yes"/>
      <point x="140.0" y="21.0"/>
      <point x="89.96666666666667" y="105.8"/>
      <point x="89.96666666666667" y="228.26666666666668" type="curve" smooth="yes"/>
      <point x="89.96666666666667" y="398.0"/>
      <point x="186.83333333333331" y="527.0"/>
      <point x="352.2333333333333" y="527.0" type="curve" smooth="yes"/>
      <point x="495.3" y="527.0"/>
      <point x="615.7" y="436.6333333333333"/>
      <point x="615.7" y="260.8333333333333" type="curve" smooth="yes"/>
      <point x="615.7" y="149.56666666666666"/>
      <point x="574.9" y="79.0"/>
      <point x="523.8666666666667" y="19.0" type="curve"/>
      <point x="535.9666666666667" y="0.0" type="line"/>
      <point x="918.8" y="0.0" type="line"/>
      <point x="918.8" y="542.0" type="line"/>
      <point x="889.8000000000001" y="542.0" type="line"/>
      <point x="889.8000000000001" y="23.0" type="line"/>
      <point x="561.3" y="23.0" type="line"/>
      <point x="606.8000000000001" y="82.0"/>
      <point x="644.6999999999999" y="153.56666666666666"/>
      <point x="644.6999999999999" y="259.8333333333333" type="curve" smooth="yes"/>
      <point x="644.6999999999999" y="448.6333333333333"/>
      <point x="517.5666666666667" y="551.0"/>
      <point x="356.23333333333335" y="551.0" type="curve" smooth="yes"/>
      <point x="170.16666666666669" y="551.0"/>
      <point x="62.333333333333336" y="407.6333333333333"/>
      <point x="62.333333333333336" y="229.63333333333333" type="curve" smooth="yes"/>
      <point x="62.333333333333336" y="94.63333333333334"/>
      <point x="123.9" y="-3.9999999999999996"/>
    </contour>
  </outline>
</glyph>
<glyph name="sha-tamil" format="2">
  <advance width="1018.4333333333334"/>
  <unicode hex="0BB6"/>
  <note>
uni0BB6
</note>
  <anchor x="526.2333333333332" y="0.0" name="bottom"/>
  <anchor x="793.0666666666666" y="542.0" name="imatra"/>
  <anchor x="526.2333333333332" y="0.0" name="nukta"/>
  <anchor x="528.2333333333333" y="542.0" name="top"/>
  <anchor x="534.5" y="542.0" name="vedic"/>
  <outline>
    <contour>
      <point x="272.3" y="-9.0" type="curve" smooth="yes"/>
      <point x="369.93333333333334" y="-9.0"/>
      <point x="442.3333333333333" y="44.33333333333333"/>
      <point x="442.3333333333333" y="179.2" type="curve" smooth="yes"/>
      <point x="442.3333333333333" y="519.0" type="line"/>
      <point x="610.2333333333333" y="519.0" type="line"/>
      <point x="610.2333333333333" y="159.20000000000002" type="line" smooth="yes"/>
      <point x="610.2333333333333" y="51.666666666666664"/>
      <point x="644.1333333333333" y="-9.0"/>
      <point x="735.0333333333334" y="-9.0" type="curve" smooth="yes"/>
      <point x="865.7666666666668" y="-9.0"/>
      <point x="954.4666666666667" y="138.2"/>
      <point x="954.4666666666667" y="327.2" type="curve" smooth="yes"/>
      <point x="954.4666666666667" y="481.2"/>
      <point x="904.0666666666666" y="542.0"/>
      <point x="806.3333333333333" y="542.0" type="curve" smooth="yes"/>
      <point x="416.33333333333337" y="542.0" type="line"/>
      <point x="416.33333333333337" y="179.2" type="line" smooth="yes"/>
      <point x="416.33333333333337" y="59.06666666666666"/>
      <point x="353.4" y="15.0"/>
      <point x="271.76666666666665" y="15.0" type="curve" smooth="yes"/>
      <point x="192.76666666666668" y="15.0"/>
      <point x="143.53333333333333" y="56.7"/>
      <point x="143.53333333333333" y="174.2" type="curve" smooth="yes"/>
      <point x="143.53333333333333" y="542.0" type="line"/>
      <point x="114.53333333333333" y="542.0" type="line"/>
      <point x="114.53333333333333" y="174.2" type="line" smooth="yes"/>
      <point x="114.53333333333333" y="45.333333333333336"/>
      <point x="175.03333333333333" y="-9.0"/>
    </contour>
    <contour>
      <point x="735.1333333333333" y="15.0" type="curve" smooth="yes"/>
      <point x="664.4000000000001" y="15.0"/>
      <point x="638.6" y="61.03333333333334"/>
      <point x="638.6" y="158.2" type="curve" smooth="yes"/>
      <point x="638.6" y="519.0" type="line"/>
      <point x="803.3333333333333" y="519.0" type="line" smooth="yes"/>
      <point x="882.2666666666667" y="519.0"/>
      <point x="927.4666666666667" y="468.2"/>
      <point x="927.4666666666667" y="329.2" type="curve" smooth="yes"/>
      <point x="927.4666666666667" y="151.2"/>
      <point x="844.1333333333333" y="15.0"/>
    </contour>
  </outline>
</glyph>
<glyph name="ssa-tamil" format="2">
  <advance width="1238.5333333333335"/>
  <unicode hex="0BB7"/>
  <note>
uni0BB7
</note>
  <anchor x="631.4333333333333" y="0.0" name="bottom"/>
  <anchor x="591.1" y="0.0" name="nukta"/>
  <anchor x="645.9666666666667" y="542.0" name="top"/>
  <anchor x="609.7333333333333" y="542.0" name="vedic"/>
  <outline>
    <contour>
      <point x="228.53333333333333" y="-3.9999999999999996" type="curve" smooth="yes"/>
      <point x="310.83333333333337" y="-3.9999999999999996"/>
      <point x="369.3333333333333" y="49.9"/>
      <point x="369.3333333333333" y="146.73333333333332" type="curve" smooth="yes"/>
      <point x="369.3333333333333" y="233.36666666666667"/>
      <point x="311.2" y="283.0"/>
      <point x="242.33333333333334" y="283.0" type="curve" smooth="yes"/>
      <point x="155.96666666666667" y="283.0"/>
      <point x="108.46666666666667" y="214.96666666666667"/>
      <point x="87.76666666666667" y="143.63333333333335" type="curve"/>
      <point x="98.66666666666667" y="116.06666666666666" type="line"/>
      <point x="123.73333333333333" y="191.66666666666666"/>
      <point x="163.6" y="258.0"/>
      <point x="237.06666666666666" y="258.0" type="curve" smooth="yes"/>
      <point x="299.73333333333335" y="258.0"/>
      <point x="341.7" y="215.73333333333332"/>
      <point x="341.7" y="142.73333333333332" type="curve" smooth="yes"/>
      <point x="341.7" y="62.733333333333334"/>
      <point x="291.56666666666666" y="21.0"/>
      <point x="226.0" y="21.0" type="curve" smooth="yes"/>
      <point x="140.0" y="21.0"/>
      <point x="89.96666666666667" y="105.8"/>
      <point x="89.96666666666667" y="228.26666666666668" type="curve" smooth="yes"/>
      <point x="89.96666666666667" y="398.0"/>
      <point x="186.83333333333334" y="527.0"/>
      <point x="352.2333333333333" y="527.0" type="curve" smooth="yes"/>
      <point x="495.3" y="527.0"/>
      <point x="615.7" y="436.6333333333333"/>
      <point x="615.7" y="260.8333333333333" type="curve" smooth="yes"/>
      <point x="615.7" y="149.56666666666666"/>
      <point x="574.9" y="79.0"/>
      <point x="523.8666666666667" y="19.0" type="curve"/>
      <point x="535.9666666666667" y="0.0" type="line"/>
      <point x="1173.2" y="0.0" type="line"/>
      <point x="1173.2" y="330.3666666666667" type="line"/>
      <point x="1144.2" y="322.3666666666667" type="line"/>
      <point x="1144.2" y="23.0" type="line"/>
      <point x="561.3" y="23.0" type="line"/>
      <point x="606.8000000000001" y="82.0"/>
      <point x="644.6999999999999" y="153.56666666666666"/>
      <point x="644.6999999999999" y="259.8333333333333" type="curve" smooth="yes"/>
      <point x="644.6999999999999" y="448.6333333333333"/>
      <point x="517.5666666666667" y="551.0"/>
      <point x="356.23333333333335" y="551.0" type="curve" smooth="yes"/>
      <point x="170.16666666666666" y="551.0"/>
      <point x="62.333333333333336" y="407.6333333333333"/>
      <point x="62.333333333333336" y="229.63333333333333" type="curve" smooth="yes"/>
      <point x="62.333333333333336" y="94.63333333333334"/>
      <point x="123.9" y="-3.9999999999999996"/>
    </contour>
    <contour>
      <point x="929.7666666666667" y="-255.63333333333335" type="line"/>
      <point x="957.7666666666667" y="-255.63333333333335" type="line"/>
      <point x="957.7666666666667" y="429.1333333333333" type="line" smooth="yes"/>
      <point x="957.7666666666667" y="508.3"/>
      <point x="915.3666666666667" y="551.0"/>
      <point x="850.3333333333334" y="551.0" type="curve" smooth="yes"/>
      <point x="784.4666666666667" y="551.0"/>
      <point x="734.3333333333334" y="496.26666666666665"/>
      <point x="734.3333333333334" y="410.0" type="curve" smooth="yes"/>
      <point x="734.3333333333334" y="294.90000000000003"/>
      <point x="807.2333333333333" y="221.0"/>
      <point x="929.9666666666667" y="221.0" type="curve" smooth="yes"/>
      <point x="1022.6" y="221.0"/>
      <point x="1093.8999999999999" y="252.5333333333333"/>
      <point x="1173.2" y="326.09999999999997" type="curve"/>
      <point x="1173.2" y="336.0" type="line"/>
      <point x="1157.8333333333335" y="348.46666666666664" type="line"/>
      <point x="1078.1000000000001" y="274.1666666666667"/>
      <point x="1014.7" y="245.0"/>
      <point x="927.3333333333334" y="245.0" type="curve" smooth="yes"/>
      <point x="823.2333333333333" y="245.0"/>
      <point x="761.6" y="303.0"/>
      <point x="761.6" y="408.0" type="curve" smooth="yes"/>
      <point x="761.6" y="484.0"/>
      <point x="798.8333333333334" y="527.0"/>
      <point x="849.9666666666667" y="527.0" type="curve" smooth="yes"/>
      <point x="895.7333333333333" y="527.0"/>
      <point x="929.7666666666667" y="498.29999999999995"/>
      <point x="929.7666666666667" y="429.76666666666665" type="curve" smooth="yes"/>
    </contour>
  </outline>
</glyph>
<glyph name="sa-tamil" format="2">
  <advance width="1136.8666666666668"/>
  <unicode hex="0BB8"/>
  <note>
uni0BB8
</note>
  <anchor x="587.7666666666667" y="0.0" name="bottom"/>
  <anchor x="587.7666666666667" y="0.0" name="nukta"/>
  <anchor x="579.1333333333333" y="542.0" name="top"/>
  <anchor x="569.0666666666666" y="542.0" name="vedic"/>
  <outline>
    <contour>
      <point x="518.9333333333334" y="0.0" type="line"/>
      <point x="547.3" y="0.0" type="line"/>
      <point x="547.3" y="417.96666666666664" type="line" smooth="yes"/>
      <point x="547.3" y="486.8666666666667"/>
      <point x="583.2666666666667" y="527.0"/>
      <point x="642.2" y="527.0" type="curve" smooth="yes"/>
      <point x="702.7666666666667" y="527.0"/>
      <point x="734.8333333333334" y="483.2333333333333"/>
      <point x="734.8333333333334" y="415.33333333333337" type="curve" smooth="yes"/>
      <point x="734.8333333333334" y="148.5" type="line" smooth="yes"/>
      <point x="734.8333333333334" y="54.6"/>
      <point x="776.0666666666667" y="-4.0"/>
      <point x="866.4333333333334" y="-4.0" type="curve" smooth="yes"/>
      <point x="974.5333333333333" y="-4.0"/>
      <point x="1073.2666666666667" y="103.73333333333333"/>
      <point x="1073.2666666666667" y="284.0" type="curve" smooth="yes"/>
      <point x="1073.2666666666667" y="384.6333333333333"/>
      <point x="1047.5666666666666" y="465.0"/>
      <point x="974.6333333333334" y="547.0" type="curve"/>
      <point x="952.5333333333333" y="529.7333333333333" type="line"/>
      <point x="1013.5666666666667" y="463.73333333333335"/>
      <point x="1045.2666666666667" y="393.6333333333333"/>
      <point x="1045.2666666666667" y="284.0" type="curve" smooth="yes"/>
      <point x="1045.2666666666667" y="117.36666666666667"/>
      <point x="955.1666666666666" y="20.0"/>
      <point x="867.8" y="20.0" type="curve" smooth="yes"/>
      <point x="791.4333333333333" y="20.0"/>
      <point x="763.8333333333334" y="70.60000000000001"/>
      <point x="763.8333333333334" y="146.86666666666667" type="curve" smooth="yes"/>
      <point x="763.8333333333334" y="412.3333333333333" type="line" smooth="yes"/>
      <point x="763.8333333333334" y="501.8666666666667"/>
      <point x="717.7666666666667" y="551.0"/>
      <point x="642.5666666666667" y="551.0" type="curve" smooth="yes"/>
      <point x="567.6333333333333" y="551.0"/>
      <point x="522.0333333333333" y="495.5"/>
      <point x="522.0333333333333" y="423.96666666666664" type="curve" smooth="yes"/>
      <point x="522.0333333333333" y="379.96666666666664" type="line"/>
      <point x="518.9333333333334" y="379.96666666666664" type="line"/>
    </contour>
    <contour>
      <point x="233.53333333333333" y="-3.9999999999999996" type="curve" smooth="yes"/>
      <point x="316.2" y="-3.9999999999999996"/>
      <point x="373.9666666666667" y="51.0"/>
      <point x="373.9666666666667" y="146.0" type="curve" smooth="yes"/>
      <point x="373.9666666666667" y="233.0"/>
      <point x="316.56666666666666" y="283.0"/>
      <point x="245.6" y="283.0" type="curve" smooth="yes"/>
      <point x="158.4" y="283.0"/>
      <point x="112.36666666666666" y="212.39999999999998"/>
      <point x="92.03333333333335" y="143.63333333333335" type="curve"/>
      <point x="102.93333333333334" y="116.06666666666666" type="line"/>
      <point x="128.0" y="191.66666666666666"/>
      <point x="167.86666666666665" y="258.0"/>
      <point x="241.33333333333334" y="258.0" type="curve" smooth="yes"/>
      <point x="304.7333333333333" y="258.0"/>
      <point x="346.33333333333337" y="215.0"/>
      <point x="346.33333333333337" y="142.0" type="curve" smooth="yes"/>
      <point x="346.33333333333337" y="62.0"/>
      <point x="295.4666666666667" y="21.0"/>
      <point x="230.63333333333333" y="21.0" type="curve" smooth="yes"/>
      <point x="145.0" y="21.0"/>
      <point x="93.86666666666667" y="102.86666666666666"/>
      <point x="93.86666666666667" y="229.0" type="curve" smooth="yes"/>
      <point x="93.86666666666667" y="392.7"/>
      <point x="169.20000000000002" y="527.0"/>
      <point x="324.7333333333333" y="527.0" type="curve" smooth="yes"/>
      <point x="436.26666666666665" y="527.0"/>
      <point x="518.9333333333334" y="465.8666666666667"/>
      <point x="518.9333333333334" y="324.96666666666664" type="curve"/>
      <point x="544.8333333333333" y="323.3333333333333" type="line"/>
      <point x="544.4666666666667" y="486.4"/>
      <point x="451.53333333333336" y="551.0"/>
      <point x="324.4666666666667" y="551.0" type="curve" smooth="yes"/>
      <point x="152.63333333333335" y="551.0"/>
      <point x="66.60000000000001" y="403.3333333333333"/>
      <point x="66.60000000000001" y="230.0" type="curve" smooth="yes"/>
      <point x="66.60000000000001" y="92.06666666666666"/>
      <point x="128.53333333333333" y="-3.9999999999999996"/>
    </contour>
  </outline>
</glyph>
<glyph name="aaMatra-tamil" format="2">
  <advance width="637.3333333333334"/>
  <unicode hex="0BBE"/>
  <note>
uni0BBE
</note>
  <anchor x="345.4" y="0.0" name="bottom"/>
  <anchor x="344.76666666666665" y="0.0" name="nukta"/>
  <anchor x="338.76666666666665" y="542.0" name="top"/>
  <anchor x="338.76666666666665" y="542.0" name="vedic"/>
  <outline>
    <contour>
      <point x="115.26666666666667" y="0.0" type="line"/>
      <point x="141.26666666666665" y="0.0" type="line"/>
      <point x="141.26666666666665" y="519.0" type="line"/>
      <point x="398.1666666666667" y="519.0" type="line"/>
      <point x="398.1666666666667" y="0.0" type="line"/>
      <point x="427.16666666666663" y="0.0" type="line"/>
      <point x="427.16666666666663" y="519.0" type="line"/>
      <point x="611.0666666666666" y="519.0" type="line"/>
      <point x="611.0666666666666" y="542.0" type="line"/>
      <point x="115.26666666666667" y="542.0" type="line"/>
    </contour>
  </outline>
</glyph>
<glyph name="iMatra-tamil" format="2">
  <advance width="210.9"/>
  <unicode hex="0BBF"/>
  <note>
uni0BBF
</note>
  <anchor x="-108.13333333333333" y="793.0333333333333" name="top"/>
  <outline>
    <contour>
      <point x="84.80000000000001" y="0.0" type="line"/>
      <point x="113.06666666666668" y="0.0" type="line"/>
      <point x="113.06666666666668" y="551.9333333333333" type="line" smooth="yes"/>
      <point x="113.06666666666668" y="706.1"/>
      <point x="21.133333333333333" y="793.0333333333333"/>
      <point x="-108.13333333333333" y="793.0333333333333" type="curve" smooth="yes"/>
      <point x="-213.16666666666669" y="793.0333333333333"/>
      <point x="-273.7" y="726.3"/>
      <point x="-273.7" y="647.1666666666667" type="curve" smooth="yes"/>
      <point x="-273.7" y="563.1666666666667"/>
      <point x="-211.26666666666668" y="519.0"/>
      <point x="-144.8" y="519.0" type="curve" smooth="yes"/>
      <point x="-137.53333333333333" y="519.0" type="line"/>
      <point x="-137.53333333333333" y="542.0" type="line"/>
      <point x="-142.16666666666666" y="542.0" type="line" smooth="yes"/>
      <point x="-200.8" y="542.0"/>
      <point x="-245.7" y="580.1666666666666"/>
      <point x="-245.7" y="642.1666666666667" type="curve" smooth="yes"/>
      <point x="-245.7" y="710.4666666666667"/>
      <point x="-197.26666666666665" y="762.6666666666666"/>
      <point x="-109.13333333333333" y="762.6666666666666" type="curve" smooth="yes"/>
      <point x="0.666666666666667" y="762.6666666666666"/>
      <point x="84.80000000000001" y="689.8333333333333"/>
      <point x="84.80000000000001" y="540.3" type="curve" smooth="yes"/>
    </contour>
  </outline>
</glyph>
<glyph name="iiMatra-tamil" format="2">
  <unicode hex="0BC0"/>
  <note>
uni0BC0
</note>
  <anchor x="0.0" y="542.0" name="_imatra"/>
  <anchor x="8.233333333333334" y="872.0" name="top"/>
  <outline>
    <contour>
      <point x="-14.066666666666666" y="521.0" type="curve" smooth="yes"/>
      <point x="0.0" y="521.0" type="line"/>
      <point x="0.0" y="542.0" type="line"/>
      <point x="-14.066666666666666" y="542.0" type="line" smooth="yes"/>
      <point x="-99.63333333333334" y="542.0"/>
      <point x="-145.5" y="598.2666666666667"/>
      <point x="-145.5" y="686.5333333333333" type="curve" smooth="yes"/>
      <point x="-145.5" y="778.4333333333333"/>
      <point x="-94.60000000000001" y="850.0"/>
      <point x="6.6" y="850.0" type="curve" smooth="yes"/>
      <point x="84.43333333333334" y="850.0"/>
      <point x="141.73333333333332" y="807.1666666666666"/>
      <point x="141.73333333333332" y="734.1666666666666" type="curve" smooth="yes"/>
      <point x="141.73333333333332" y="681.6999999999999"/>
      <point x="110.13333333333334" y="645.0"/>
      <point x="55.56666666666667" y="645.0" type="curve" smooth="yes"/>
      <point x="-30.599999999999998" y="645.0"/>
      <point x="-51.56666666666666" y="756.9666666666667"/>
      <point x="-5.333333333333334" y="855.0" type="curve"/>
      <point x="-26.066666666666666" y="859.0" type="line"/>
      <point x="-85.2" y="747.9666666666667"/>
      <point x="-53.699999999999996" y="622.0"/>
      <point x="57.83333333333333" y="622.0" type="curve" smooth="yes"/>
      <point x="124.4" y="622.0"/>
      <point x="170.73333333333332" y="664.0666666666667"/>
      <point x="170.73333333333332" y="732.1666666666667" type="curve" smooth="yes"/>
      <point x="170.73333333333332" y="818.5333333333334"/>
      <point x="104.06666666666666" y="872.0"/>
      <point x="8.233333333333334" y="872.0" type="curve" smooth="yes"/>
      <point x="-110.23333333333333" y="872.0"/>
      <point x="-175.13333333333335" y="787.4333333333334"/>
      <point x="-175.13333333333335" y="686.9" type="curve" smooth="yes"/>
      <point x="-175.13333333333335" y="585.2666666666667"/>
      <point x="-115.73333333333333" y="521.0"/>
    </contour>
  </outline>
</glyph>
<glyph name="uMatra-tamil" format="2">
  <advance width="482.1"/>
  <unicode hex="0BC1"/>
  <note>
uni0BC1
</note>
  <anchor x="203.79999999999998" y="542.0" name="top"/>
  <outline>
    <contour>
      <point x="299.06666666666666" y="229.0" type="curve" smooth="yes"/>
      <point x="383.79999999999995" y="229.0"/>
      <point x="449.2" y="285.56666666666666"/>
      <point x="449.2" y="391.1666666666667" type="curve" smooth="yes"/>
      <point x="449.2" y="542.0" type="line"/>
      <point x="-218.6" y="542.0" type="line"/>
      <point x="-196.7" y="519.0" type="line"/>
      <point x="420.20000000000005" y="519.0" type="line"/>
      <point x="420.20000000000005" y="385.1666666666667" type="line" smooth="yes"/>
      <point x="420.20000000000005" y="302.56666666666666"/>
      <point x="368.8" y="255.00000000000003"/>
      <point x="295.43333333333334" y="255.00000000000003" type="curve" smooth="yes"/>
      <point x="220.7" y="255.00000000000003"/>
      <point x="183.1" y="308.8333333333333"/>
      <point x="183.1" y="391.8" type="curve" smooth="yes"/>
      <point x="183.1" y="529.0" type="line"/>
      <point x="157.10000000000002" y="529.0" type="line"/>
      <point x="157.10000000000002" y="394.8" type="line" smooth="yes"/>
      <point x="157.10000000000002" y="293.4666666666667"/>
      <point x="203.16666666666666" y="229.0"/>
    </contour>
  </outline>
</glyph>
<glyph name="uuMatra-tamil" format="2">
  <advance width="772.0000000000001"/>
  <unicode hex="0BC2"/>
  <note>
uni0BC2
</note>
  <anchor x="414.4666666666667" y="780.0" name="top"/>
  <outline>
    <contour>
      <point x="369.1666666666667" y="1.0" type="curve" smooth="yes"/>
      <point x="585.7666666666667" y="1.0"/>
      <point x="727.0333333333333" y="154.8"/>
      <point x="727.0333333333333" y="407.0" type="curve" smooth="yes"/>
      <point x="727.0333333333333" y="639.5666666666667"/>
      <point x="602.1666666666666" y="780.0"/>
      <point x="414.4666666666667" y="780.0" type="curve" smooth="yes"/>
      <point x="232.1" y="780.0"/>
      <point x="162.73333333333335" y="655.8666666666667"/>
      <point x="162.73333333333335" y="529.7" type="curve" smooth="yes"/>
      <point x="162.73333333333335" y="394.8" type="line" smooth="yes"/>
      <point x="162.73333333333335" y="293.4666666666667"/>
      <point x="208.79999999999998" y="229.0"/>
      <point x="304.06666666666666" y="229.0" type="curve" smooth="yes"/>
      <point x="388.8" y="229.0"/>
      <point x="454.2" y="285.56666666666666"/>
      <point x="454.2" y="391.1666666666667" type="curve" smooth="yes"/>
      <point x="454.2" y="542.0" type="line"/>
      <point x="-221.5" y="542.0" type="line"/>
      <point x="-206.6" y="519.0" type="line"/>
      <point x="425.20000000000005" y="519.0" type="line"/>
      <point x="425.20000000000005" y="385.1666666666667" type="line" smooth="yes"/>
      <point x="425.20000000000005" y="302.56666666666666"/>
      <point x="373.43333333333334" y="255.00000000000003"/>
      <point x="301.06666666666666" y="255.00000000000003" type="curve" smooth="yes"/>
      <point x="225.7" y="255.00000000000003"/>
      <point x="188.73333333333332" y="308.8333333333333"/>
      <point x="188.73333333333332" y="391.8" type="curve" smooth="yes"/>
      <point x="188.73333333333332" y="529.7" type="line" smooth="yes"/>
      <point x="188.73333333333332" y="644.8666666666667"/>
      <point x="254.1" y="756.0"/>
      <point x="410.56666666666666" y="756.0" type="curve" smooth="yes"/>
      <point x="586.0" y="756.0"/>
      <point x="697.9333333333333" y="619.4666666666667"/>
      <point x="697.9333333333333" y="410.26666666666665" type="curve" smooth="yes"/>
      <point x="697.9333333333333" y="178.06666666666666"/>
      <point x="571.2333333333333" y="25.0"/>
      <point x="368.5333333333333" y="25.0" type="curve" smooth="yes"/>
      <point x="251.4" y="25.0"/>
      <point x="185.0" y="62.16666666666667"/>
      <point x="110.0" y="141.63333333333333" type="curve"/>
      <point x="89.36666666666667" y="123.26666666666667" type="line"/>
      <point x="168.63333333333333" y="40.900000000000006"/>
      <point x="240.5" y="1.0"/>
    </contour>
  </outline>
</glyph>
<glyph name="eMatra-tamil" format="2">
  <advance width="735.1"/>
  <unicode hex="0BC6"/>
  <note>
uni0BC6
</note>
  <outline>
    <contour>
      <point x="268.76666666666665" y="-3.9999999999999996" type="curve" smooth="yes"/>
      <point x="354.53333333333336" y="-3.9999999999999996"/>
      <point x="416.93333333333334" y="53.36666666666667"/>
      <point x="416.93333333333334" y="150.36666666666667" type="curve" smooth="yes"/>
      <point x="416.93333333333334" y="237.0"/>
      <point x="359.43333333333334" y="290.0"/>
      <point x="282.83333333333337" y="290.0" type="curve" smooth="yes"/>
      <point x="199.36666666666667" y="290.0"/>
      <point x="136.60000000000002" y="227.9"/>
      <point x="108.0" y="133.86666666666665" type="curve"/>
      <point x="122.63333333333334" y="108.03333333333333" type="line"/>
      <point x="151.23333333333335" y="202.36666666666667"/>
      <point x="205.83333333333334" y="265.0"/>
      <point x="279.6666666666667" y="265.0" type="curve" smooth="yes"/>
      <point x="344.43333333333334" y="265.0"/>
      <point x="389.93333333333334" y="220.36666666666665"/>
      <point x="389.93333333333334" y="147.36666666666665" type="curve" smooth="yes"/>
      <point x="389.93333333333334" y="67.36666666666667"/>
      <point x="334.5333333333333" y="21.0"/>
      <point x="265.8666666666667" y="21.0" type="curve" smooth="yes"/>
      <point x="162.03333333333333" y="21.0"/>
      <point x="81.43333333333334" y="134.0"/>
      <point x="81.43333333333334" y="351.0" type="curve" smooth="yes"/>
      <point x="81.43333333333334" y="595.2666666666667"/>
      <point x="198.43333333333334" y="770.0"/>
      <point x="388.43333333333334" y="770.0" type="curve" smooth="yes"/>
      <point x="515.9333333333334" y="770.0"/>
      <point x="609.3666666666667" y="702.1666666666666"/>
      <point x="609.3666666666667" y="513.4" type="curve" smooth="yes"/>
      <point x="609.3666666666667" y="0.0" type="line"/>
      <point x="637.2666666666668" y="0.0" type="line"/>
      <point x="637.2666666666668" y="527.0333333333333" type="line" smooth="yes"/>
      <point x="637.2666666666668" y="720.5333333333333"/>
      <point x="534.5666666666666" y="800.0"/>
      <point x="390.06666666666666" y="800.0" type="curve" smooth="yes"/>
      <point x="178.63333333333333" y="800.0"/>
      <point x="53.8" y="611.2333333333333"/>
      <point x="53.8" y="353.0" type="curve" smooth="yes"/>
      <point x="53.8" y="121.0"/>
      <point x="145.83333333333331" y="-3.9999999999999996"/>
    </contour>
  </outline>
</glyph>
<glyph name="eeMatra-tamil" format="2">
  <advance width="539.3666666666667"/>
  <unicode hex="0BC7"/>
  <note>
uni0BC7
</note>
  <outline>
    <contour>
      <point x="337.5" y="-4.0" type="curve" smooth="yes"/>
      <point x="424.09999999999997" y="-4.0"/>
      <point x="484.7666666666667" y="49.1"/>
      <point x="484.7666666666667" y="144.73333333333335" type="curve" smooth="yes"/>
      <point x="484.7666666666667" y="232.36666666666667"/>
      <point x="429.3666666666667" y="283.0"/>
      <point x="360.4" y="283.0" type="curve" smooth="yes"/>
      <point x="263.26666666666665" y="283.0"/>
      <point x="213.16666666666669" y="191.00000000000003"/>
      <point x="205.46666666666667" y="62.63333333333333" type="curve"/>
      <point x="223.83333333333331" y="35.53333333333333" type="line"/>
      <point x="235.16666666666669" y="171.36666666666667"/>
      <point x="273.73333333333335" y="258.0"/>
      <point x="354.8666666666667" y="258.0" type="curve" smooth="yes"/>
      <point x="417.5333333333333" y="258.0"/>
      <point x="457.1333333333334" y="214.36666666666667"/>
      <point x="457.1333333333334" y="140.73333333333332" type="curve" smooth="yes"/>
      <point x="457.1333333333334" y="60.733333333333334"/>
      <point x="404.0" y="21.0"/>
      <point x="336.8666666666667" y="21.0" type="curve" smooth="yes"/>
      <point x="196.9333333333333" y="21.0"/>
      <point x="91.23333333333333" y="166.53333333333333"/>
      <point x="91.23333333333333" y="386.73333333333335" type="curve" smooth="yes"/>
      <point x="91.23333333333333" y="607.9333333333333"/>
      <point x="196.9333333333333" y="767.6666666666666"/>
      <point x="336.23333333333335" y="767.6666666666666" type="curve" smooth="yes"/>
      <point x="404.0" y="767.6666666666666"/>
      <point x="457.1333333333334" y="727.9333333333333"/>
      <point x="457.1333333333334" y="647.9333333333333" type="curve" smooth="yes"/>
      <point x="457.1333333333334" y="574.6666666666667"/>
      <point x="417.5333333333333" y="531.0333333333334"/>
      <point x="354.8666666666667" y="531.0333333333334" type="curve" smooth="yes"/>
      <point x="274.3666666666667" y="531.0333333333334"/>
      <point x="237.70000000000002" y="613.8666666666667"/>
      <point x="226.36666666666665" y="752.2333333333333" type="curve"/>
      <point x="207.36666666666667" y="725.4" type="line"/>
      <point x="215.70000000000002" y="593.8666666666667"/>
      <point x="263.9" y="506.03333333333336"/>
      <point x="360.4" y="506.03333333333336" type="curve" smooth="yes"/>
      <point x="429.3666666666667" y="506.03333333333336"/>
      <point x="484.7666666666667" y="556.3000000000001"/>
      <point x="484.7666666666667" y="643.9333333333333" type="curve" smooth="yes"/>
      <point x="484.7666666666667" y="739.9333333333333"/>
      <point x="423.46666666666664" y="793.0333333333333"/>
      <point x="337.5" y="793.0333333333333" type="curve" smooth="yes"/>
      <point x="178.46666666666667" y="793.0333333333333"/>
      <point x="63.96666666666667" y="617.5666666666667"/>
      <point x="63.96666666666667" y="386.73333333333335" type="curve" smooth="yes"/>
      <point x="63.96666666666667" y="156.9"/>
      <point x="179.1" y="-4.0"/>
    </contour>
  </outline>
</glyph>
<glyph name="aiMatra-tamil" format="2">
  <advance width="1101.4"/>
  <unicode hex="0BC8"/>
  <note>
uni0BC8
</note>
  <outline>
    <contour>
      <point x="912.5" y="-7.0" type="line"/>
      <point x="984.4" y="53.3"/>
      <point x="1039.0666666666666" y="136.5"/>
      <point x="1039.0666666666666" y="264.73333333333335" type="curve" smooth="yes"/>
      <point x="1039.0666666666666" y="441.6333333333333"/>
      <point x="931.1666666666666" y="551.0"/>
      <point x="778.5333333333333" y="551.0" type="curve" smooth="yes"/>
      <point x="573.8" y="551.0"/>
      <point x="464.40000000000003" y="362.40000000000003"/>
      <point x="464.40000000000003" y="183.76666666666668" type="curve" smooth="yes"/>
      <point x="464.40000000000003" y="62.833333333333336"/>
      <point x="512.0" y="-5.0"/>
      <point x="598.1" y="-5.0" type="curve" smooth="yes"/>
      <point x="683.8333333333334" y="-5.0"/>
      <point x="742.4333333333334" y="65.30000000000001"/>
      <point x="742.4333333333334" y="183.13333333333335" type="curve" smooth="yes"/>
      <point x="742.4333333333334" y="402.5"/>
      <point x="572.6999999999999" y="551.0"/>
      <point x="372.0333333333333" y="551.0" type="curve" smooth="yes"/>
      <point x="185.29999999999998" y="551.0"/>
      <point x="62.333333333333336" y="424.73333333333335"/>
      <point x="62.333333333333336" y="229.0" type="curve" smooth="yes"/>
      <point x="62.333333333333336" y="94.0"/>
      <point x="127.06666666666668" y="-3.9999999999999996"/>
      <point x="228.53333333333333" y="-3.9999999999999996" type="curve" smooth="yes"/>
      <point x="310.8333333333333" y="-3.9999999999999996"/>
      <point x="369.3333333333333" y="51.166666666666664"/>
      <point x="369.3333333333333" y="148.0" type="curve" smooth="yes"/>
      <point x="369.3333333333333" y="234.0"/>
      <point x="311.2" y="283.0"/>
      <point x="242.96666666666667" y="283.0" type="curve" smooth="yes"/>
      <point x="157.86666666666665" y="283.0"/>
      <point x="108.46666666666667" y="216.23333333333332"/>
      <point x="87.76666666666667" y="144.26666666666668" type="curve"/>
      <point x="98.66666666666667" y="116.7" type="line"/>
      <point x="123.73333333333333" y="192.93333333333334"/>
      <point x="163.6" y="258.0"/>
      <point x="237.06666666666666" y="258.0" type="curve" smooth="yes"/>
      <point x="299.73333333333335" y="258.0"/>
      <point x="341.70000000000005" y="217.0"/>
      <point x="341.70000000000005" y="144.0" type="curve" smooth="yes"/>
      <point x="341.70000000000005" y="64.0"/>
      <point x="292.83333333333337" y="21.0"/>
      <point x="227.26666666666668" y="21.0" type="curve" smooth="yes"/>
      <point x="143.8" y="21.0"/>
      <point x="89.96666666666667" y="102.0"/>
      <point x="89.96666666666667" y="227.0" type="curve" smooth="yes"/>
      <point x="89.96666666666667" y="414.4666666666667"/>
      <point x="205.13333333333333" y="527.0"/>
      <point x="367.6666666666667" y="527.0" type="curve" smooth="yes"/>
      <point x="563.2333333333332" y="527.0"/>
      <point x="714.4333333333333" y="382.5"/>
      <point x="714.4333333333333" y="182.13333333333333" type="curve" smooth="yes"/>
      <point x="714.4333333333333" y="74.66666666666667"/>
      <point x="663.6666666666667" y="21.0"/>
      <point x="596.1" y="21.0" type="curve" smooth="yes"/>
      <point x="528.2666666666667" y="21.0"/>
      <point x="489.6666666666667" y="83.3"/>
      <point x="489.6666666666667" y="180.76666666666668" type="curve" smooth="yes"/>
      <point x="489.6666666666667" y="354.7666666666667"/>
      <point x="596.4333333333333" y="527.0"/>
      <point x="774.1666666666667" y="527.0" type="curve" smooth="yes"/>
      <point x="913.1666666666667" y="527.0"/>
      <point x="1011.3333333333334" y="424.73333333333335"/>
      <point x="1011.3333333333334" y="264.73333333333335" type="curve" smooth="yes"/>
      <point x="1011.3333333333334" y="146.56666666666666"/>
      <point x="956.7666666666667" y="64.83333333333333"/>
      <point x="895.3000000000001" y="13.433333333333334" type="curve"/>
    </contour>
  </outline>
</glyph>
<glyph name="halant-tamil" format="2">
  <unicode hex="0BCD"/>
  <note>
uni0BCD
</note>
  <anchor x="0.0" y="542.0" name="_top"/>
  <outline>
    <contour>
      <point x="0.0" y="635.3666666666667" type="curve" smooth="yes"/>
      <point x="20.633333333333333" y="635.3666666666667"/>
      <point x="36.9" y="651.6333333333333"/>
      <point x="36.9" y="671.2666666666667" type="curve" smooth="yes"/>
      <point x="36.9" y="690.5333333333333"/>
      <point x="20.633333333333333" y="707.5333333333334"/>
      <point x="0.0" y="707.5333333333334" type="curve" smooth="yes"/>
      <point x="-20.633333333333333" y="707.5333333333334"/>
      <point x="-36.9" y="690.5333333333333"/>
      <point x="-36.9" y="671.2666666666667" type="curve" smooth="yes"/>
      <point x="-36.9" y="651.6333333333333"/>
      <point x="-20.633333333333333" y="635.3666666666667"/>
    </contour>
  </outline>
</glyph>
<glyph name="om-tamil" format="2">
  <advance width="880.5"/>
  <unicode hex="0BD0"/>
  <note>
uni0BD0
</note>
  <outline>
    <contour>
      <point x="283.0" y="-336.0" type="curve" smooth="yes"/>
      <point x="472.8666666666666" y="-336.0"/>
      <point x="502.3333333333333" y="-124.3"/>
      <point x="678.0333333333333" y="-124.3" type="curve" smooth="yes"/>
      <point x="695.0999999999999" y="-124.3" type="line"/>
      <point x="695.0999999999999" y="-100.3" type="line"/>
      <point x="668.5" y="-100.3" type="line" smooth="yes"/>
      <point x="524.9000000000001" y="-100.3"/>
      <point x="409.03333333333336" y="45.16666666666667"/>
      <point x="546.3000000000001" y="229.03333333333333" type="curve"/>
      <point x="551.5666666666667" y="225.76666666666665" type="line"/>
      <point x="511.5333333333333" y="131.5"/>
      <point x="532.9666666666667" y="-5.0"/>
      <point x="660.5666666666667" y="-5.0" type="curve" smooth="yes"/>
      <point x="750.6999999999999" y="-5.0"/>
      <point x="818.1666666666666" y="64.9"/>
      <point x="818.1666666666666" y="203.73333333333332" type="curve" smooth="yes"/>
      <point x="818.1666666666666" y="421.06666666666666"/>
      <point x="634.6" y="551.0"/>
      <point x="421.3666666666667" y="551.0" type="curve" smooth="yes"/>
      <point x="206.63333333333335" y="551.0"/>
      <point x="62.333333333333336" y="409.6666666666667"/>
      <point x="62.333333333333336" y="231.76666666666668" type="curve" smooth="yes"/>
      <point x="62.333333333333336" y="93.46666666666667"/>
      <point x="131.86666666666667" y="1.0666666666666669"/>
      <point x="233.70000000000002" y="1.0666666666666669" type="curve" smooth="yes"/>
      <point x="317.0" y="1.0666666666666669"/>
      <point x="374.1333333333333" y="57.96666666666667"/>
      <point x="374.1333333333333" y="152.96666666666664" type="curve" smooth="yes"/>
      <point x="374.1333333333333" y="239.33333333333331"/>
      <point x="316.73333333333335" y="288.7"/>
      <point x="247.03333333333333" y="288.7" type="curve" smooth="yes"/>
      <point x="158.56666666666666" y="288.7"/>
      <point x="109.36666666666666" y="219.36666666666667"/>
      <point x="89.03333333333333" y="149.96666666666667" type="curve"/>
      <point x="99.93333333333334" y="122.4" type="line"/>
      <point x="125.0" y="198.63333333333333"/>
      <point x="168.66666666666669" y="263.7"/>
      <point x="242.13333333333333" y="263.7" type="curve" smooth="yes"/>
      <point x="304.90000000000003" y="263.7"/>
      <point x="346.5" y="221.96666666666667"/>
      <point x="346.5" y="148.96666666666667" type="curve" smooth="yes"/>
      <point x="346.5" y="68.96666666666667"/>
      <point x="296.90000000000003" y="26.7"/>
      <point x="232.06666666666666" y="26.7" type="curve" smooth="yes"/>
      <point x="149.96666666666667" y="26.7"/>
      <point x="89.96666666666667" y="101.10000000000001"/>
      <point x="89.96666666666667" y="229.76666666666665" type="curve" smooth="yes"/>
      <point x="89.96666666666667" y="399.03333333333336"/>
      <point x="228.63333333333333" y="527.0"/>
      <point x="418.8333333333333" y="527.0" type="curve" smooth="yes"/>
      <point x="613.4333333333333" y="527.0"/>
      <point x="788.1666666666667" y="403.06666666666666"/>
      <point x="788.1666666666667" y="208.36666666666667" type="curve" smooth="yes"/>
      <point x="788.1666666666667" y="82.26666666666667"/>
      <point x="735.2333333333333" y="21.0"/>
      <point x="656.9333333333333" y="21.0" type="curve" smooth="yes"/>
      <point x="556.7666666666667" y="21.0"/>
      <point x="531.0" y="147.63333333333333"/>
      <point x="586.4666666666667" y="251.96666666666667" type="curve"/>
      <point x="550.5333333333334" y="274.0333333333333" type="line"/>
      <point x="376.1333333333333" y="61.93333333333334"/>
      <point x="485.3" y="-83.4"/>
      <point x="605.5333333333334" y="-112.93333333333334" type="curve"/>
      <point x="605.5333333333334" y="-116.93333333333334" type="line"/>
      <point x="477.2666666666667" y="-145.43333333333334"/>
      <point x="436.8" y="-309.0"/>
      <point x="279.53333333333336" y="-309.0" type="curve" smooth="yes"/>
      <point x="182.13333333333335" y="-309.0"/>
      <point x="130.2" y="-242.76666666666668"/>
      <point x="148.26666666666665" y="-165.5666666666667" type="curve"/>
      <point x="121.63333333333334" y="-160.56666666666666" type="line"/>
      <point x="100.83333333333333" y="-253.86666666666667"/>
      <point x="165.5" y="-336.0"/>
    </contour>
    <contour>
      <point x="207.4" y="-233.03333333333333" type="line"/>
      <point x="231.76666666666668" y="-233.03333333333333" type="line"/>
      <point x="231.76666666666668" y="-91.86666666666667" type="line"/>
      <point x="207.4" y="-91.86666666666667" type="line"/>
    </contour>
    <contour>
      <point x="215.4" y="-233.03333333333333" type="line"/>
      <point x="379.3333333333333" y="-233.03333333333333" type="line"/>
      <point x="379.3333333333333" y="-210.66666666666666" type="line"/>
      <point x="215.4" y="-210.66666666666666" type="line"/>
    </contour>
    <contour>
      <point x="285.5" y="-233.03333333333333" type="line"/>
      <point x="309.23333333333335" y="-233.03333333333333" type="line"/>
      <point x="309.23333333333335" y="-149.0" type="line" smooth="yes"/>
      <point x="309.23333333333335" y="-127.93333333333332"/>
      <point x="319.66666666666663" y="-113.86666666666667"/>
      <point x="339.3666666666667" y="-113.86666666666667" type="curve" smooth="yes"/>
      <point x="358.0666666666667" y="-113.86666666666667"/>
      <point x="368.23333333333335" y="-127.93333333333332"/>
      <point x="368.23333333333335" y="-149.0" type="curve" smooth="yes"/>
      <point x="368.23333333333335" y="-233.03333333333333" type="line"/>
      <point x="392.59999999999997" y="-233.03333333333333" type="line"/>
      <point x="392.59999999999997" y="-151.63333333333333" type="line" smooth="yes"/>
      <point x="392.59999999999997" y="-109.93333333333334"/>
      <point x="370.06666666666666" y="-89.23333333333333"/>
      <point x="339.3666666666667" y="-89.23333333333333" type="curve" smooth="yes"/>
      <point x="308.03333333333336" y="-89.23333333333333"/>
      <point x="285.5" y="-111.03333333333333"/>
      <point x="285.5" y="-151.63333333333333" type="curve" smooth="yes"/>
    </contour>
    <contour>
      <point x="296.6" y="-64.93333333333334" type="curve" smooth="yes"/>
      <point x="308.5" y="-64.93333333333334"/>
      <point x="317.76666666666665" y="-54.666666666666664"/>
      <point x="317.76666666666665" y="-43.766666666666666" type="curve" smooth="yes"/>
      <point x="317.76666666666665" y="-33.13333333333333"/>
      <point x="308.5" y="-23.233333333333334"/>
      <point x="296.6" y="-23.233333333333334" type="curve" smooth="yes"/>
      <point x="284.3333333333333" y="-23.233333333333334"/>
      <point x="274.43333333333334" y="-33.13333333333333"/>
      <point x="274.43333333333334" y="-43.766666666666666" type="curve" smooth="yes"/>
      <point x="274.43333333333334" y="-54.666666666666664"/>
      <point x="284.3333333333333" y="-64.93333333333334"/>
    </contour>
  </outline>
</glyph>
<glyph name="zero-tamil" format="2">
  <advance width="529.8333333333334"/>
  <unicode hex="0BE6"/>
  <note>
uni0BE6
</note>
  <outline>
    <contour>
      <point x="263.6" y="-4.0" type="curve" smooth="yes"/>
      <point x="390.3333333333333" y="-4.0"/>
      <point x="468.8666666666667" y="113.0"/>
      <point x="468.8666666666667" y="273.0" type="curve" smooth="yes"/>
      <point x="468.8666666666667" y="428.0"/>
      <point x="399.5" y="550.0"/>
      <point x="266.6" y="550.0" type="curve" smooth="yes"/>
      <point x="124.33333333333333" y="550.0"/>
      <point x="61.333333333333336" y="420.0"/>
      <point x="61.333333333333336" y="273.0" type="curve" smooth="yes"/>
      <point x="61.333333333333336" y="119.0"/>
      <point x="124.33333333333333" y="-4.0"/>
    </contour>
    <contour>
      <point x="258.59999999999997" y="21.0" type="curve" smooth="yes"/>
      <point x="141.5" y="21.0"/>
      <point x="87.96666666666667" y="135.73333333333332"/>
      <point x="87.96666666666667" y="273.0" type="curve" smooth="yes"/>
      <point x="87.96666666666667" y="406.26666666666665"/>
      <point x="143.5" y="526.0"/>
      <point x="262.8666666666667" y="526.0" type="curve" smooth="yes"/>
      <point x="382.8666666666667" y="526.0"/>
      <point x="440.8666666666667" y="411.0"/>
      <point x="440.8666666666667" y="273.0" type="curve" smooth="yes"/>
      <point x="440.8666666666667" y="127.0"/>
      <point x="373.3333333333333" y="21.0"/>
    </contour>
  </outline>
</glyph>
<glyph name="one-tamil" format="2">
  <advance width="711.7666666666667"/>
  <unicode hex="0BE7"/>
  <note>
uni0BE7
</note>
  <outline>
    <contour>
      <point x="227.36666666666667" y="-4.0" type="curve" smooth="yes"/>
      <point x="331.90000000000003" y="-4.0"/>
      <point x="405.4" y="66.4"/>
      <point x="405.4" y="184.66666666666666" type="curve" smooth="yes"/>
      <point x="405.4" y="275.0" type="line"/>
      <point x="466.23333333333335" y="275.0" type="line" smooth="yes"/>
      <point x="576.1" y="275.0"/>
      <point x="621.8000000000001" y="227.3"/>
      <point x="621.8000000000001" y="148.63333333333333" type="curve" smooth="yes"/>
      <point x="621.8000000000001" y="70.36666666666667"/>
      <point x="574.1333333333333" y="21.0"/>
      <point x="494.83333333333337" y="21.0" type="curve" smooth="yes"/>
      <point x="441.53333333333336" y="21.0"/>
      <point x="405.1" y="51.0"/>
      <point x="374.3333333333333" y="89.89999999999999" type="curve"/>
      <point x="356.6" y="71.46666666666667" type="line"/>
      <point x="390.1" y="30.733333333333334"/>
      <point x="431.0666666666667" y="-3.2666666666666666"/>
      <point x="501.8333333333333" y="-3.2666666666666666" type="curve" smooth="yes"/>
      <point x="584.4" y="-3.2666666666666666"/>
      <point x="650.1666666666666" y="49.16666666666667"/>
      <point x="650.1666666666666" y="147.63333333333333" type="curve" smooth="yes"/>
      <point x="650.1666666666666" y="247.2"/>
      <point x="594.4666666666667" y="299.0"/>
      <point x="465.23333333333335" y="299.0" type="curve" smooth="yes"/>
      <point x="405.4" y="299.0" type="line"/>
      <point x="405.4" y="519.0" type="line"/>
      <point x="565.6" y="519.0" type="line"/>
      <point x="565.6" y="542.0" type="line"/>
      <point x="173.23333333333335" y="542.0" type="line"/>
      <point x="173.23333333333335" y="284.0" type="line"/>
      <point x="199.23333333333332" y="284.0" type="line"/>
      <point x="199.23333333333332" y="519.0" type="line"/>
      <point x="377.4" y="519.0" type="line"/>
      <point x="377.4" y="299.0" type="line"/>
      <point x="225.36666666666667" y="299.0" type="line" smooth="yes"/>
      <point x="126.16666666666667" y="299.0"/>
      <point x="66.60000000000001" y="228.16666666666666"/>
      <point x="66.60000000000001" y="145.26666666666668" type="curve" smooth="yes"/>
      <point x="66.60000000000001" y="61.266666666666666"/>
      <point x="126.0" y="-4.0"/>
    </contour>
    <contour>
      <point x="228.63333333333333" y="21.0" type="curve" smooth="yes"/>
      <point x="147.16666666666669" y="21.0"/>
      <point x="98.5" y="73.9"/>
      <point x="98.5" y="147.26666666666668" type="curve" smooth="yes"/>
      <point x="98.5" y="211.79999999999998"/>
      <point x="139.9" y="275.0"/>
      <point x="228.73333333333335" y="275.0" type="curve" smooth="yes"/>
      <point x="377.4" y="275.0" type="line"/>
      <point x="377.4" y="181.3" type="line" smooth="yes"/>
      <point x="377.4" y="84.3"/>
      <point x="317.5333333333333" y="21.0"/>
    </contour>
  </outline>
</glyph>
<glyph name="two-tamil" format="2">
  <advance width="825.0000000000001"/>
  <unicode hex="0BE8"/>
  <note>
uni0BE8
</note>
  <outline>
    <contour>
      <point x="149.83333333333334" y="0.0" type="curve" smooth="yes"/>
      <point x="806.5333333333334" y="0.0" type="line"/>
      <point x="806.5333333333334" y="23.0" type="line"/>
      <point x="148.2" y="23.0" type="line" smooth="yes"/>
      <point x="106.5" y="23.0"/>
      <point x="82.33333333333334" y="49.0"/>
      <point x="82.33333333333334" y="86.0" type="curve" smooth="yes"/>
      <point x="82.33333333333334" y="124.0"/>
      <point x="105.5" y="146.0"/>
      <point x="148.2" y="146.0" type="curve" smooth="yes"/>
      <point x="360.8666666666667" y="146.0" type="line" smooth="yes"/>
      <point x="485.93333333333334" y="146.0"/>
      <point x="580.2" y="211.0"/>
      <point x="580.2" y="343.0" type="curve" smooth="yes"/>
      <point x="580.2" y="485.0"/>
      <point x="479.93333333333334" y="551.0"/>
      <point x="346.3333333333333" y="551.0" type="curve" smooth="yes"/>
      <point x="201.2" y="551.0"/>
      <point x="126.53333333333335" y="460.6333333333333"/>
      <point x="126.53333333333335" y="344.0" type="curve" smooth="yes"/>
      <point x="126.53333333333335" y="214.36666666666667"/>
      <point x="219.0" y="150.0"/>
      <point x="344.7" y="150.0" type="curve"/>
      <point x="344.7" y="170.0" type="line"/>
      <point x="234.43333333333334" y="170.0"/>
      <point x="153.8" y="225.36666666666667"/>
      <point x="153.8" y="343.0" type="curve" smooth="yes"/>
      <point x="153.8" y="454.6333333333333"/>
      <point x="220.36666666666667" y="527.0"/>
      <point x="342.3333333333333" y="527.0" type="curve" smooth="yes"/>
      <point x="463.3" y="527.0"/>
      <point x="550.1999999999999" y="469.0"/>
      <point x="550.1999999999999" y="344.0" type="curve" smooth="yes"/>
      <point x="550.1999999999999" y="225.0"/>
      <point x="464.4" y="170.0"/>
      <point x="354.23333333333335" y="170.0" type="curve" smooth="yes"/>
      <point x="149.83333333333334" y="170.0" type="line" smooth="yes"/>
      <point x="89.13333333333334" y="170.0"/>
      <point x="55.333333333333336" y="138.0"/>
      <point x="55.333333333333336" y="86.0" type="curve" smooth="yes"/>
      <point x="55.333333333333336" y="35.0"/>
      <point x="89.13333333333334" y="0.0"/>
    </contour>
  </outline>
</glyph>
<glyph name="three-tamil" format="2">
  <advance width="823.6999999999999"/>
  <unicode hex="0BE9"/>
  <note>
uni0BE9
</note>
  <outline>
    <contour>
      <point x="115.26666666666667" y="0.0" type="line"/>
      <point x="141.26666666666668" y="0.0" type="line"/>
      <point x="141.26666666666668" y="519.0" type="line"/>
      <point x="346.0333333333333" y="519.0" type="line"/>
      <point x="346.0333333333333" y="188.0" type="line"/>
      <point x="375.03333333333336" y="188.0" type="line"/>
      <point x="375.03333333333336" y="206.29999999999998" type="line" smooth="yes"/>
      <point x="375.03333333333336" y="257.6666666666667"/>
      <point x="404.73333333333335" y="332.0"/>
      <point x="490.26666666666665" y="332.0" type="curve" smooth="yes"/>
      <point x="553.9333333333334" y="332.0"/>
      <point x="591.4333333333334" y="285.0"/>
      <point x="591.4333333333334" y="208.0" type="curve" smooth="yes"/>
      <point x="591.4333333333334" y="73.0"/>
      <point x="466.20000000000005" y="23.0"/>
      <point x="408.5" y="23.0" type="curve" smooth="yes"/>
      <point x="346.0333333333333" y="23.0" type="line"/>
      <point x="346.0333333333333" y="0.0" type="line"/>
      <point x="799.4333333333334" y="0.0" type="line"/>
      <point x="799.4333333333334" y="23.0" type="line"/>
      <point x="492.8" y="23.0" type="line"/>
      <point x="566.6666666666667" y="53.0"/>
      <point x="622.6999999999999" y="108.0"/>
      <point x="622.6999999999999" y="214.0" type="curve" smooth="yes"/>
      <point x="622.6999999999999" y="302.0"/>
      <point x="569.0333333333333" y="355.0"/>
      <point x="494.5333333333333" y="355.0" type="curve" smooth="yes"/>
      <point x="425.90000000000003" y="355.0"/>
      <point x="391.09999999999997" y="318.93333333333334"/>
      <point x="375.0333333333333" y="284.66666666666663" type="curve"/>
      <point x="375.0333333333333" y="519.0" type="line"/>
      <point x="558.9333333333334" y="519.0" type="line"/>
      <point x="558.9333333333334" y="542.0" type="line"/>
      <point x="115.26666666666667" y="542.0" type="line"/>
    </contour>
  </outline>
</glyph>
